<ttFont>
<head>
    <!-- Most of this table will be recalculated by the compiler -->
    <tableVersion value="1.0"/>
    <fontRevision value="2.538"/>
    <checkSumAdjustment value="0x5f2e375e"/>
    <magicNumber value="0x5f0f3cf5"/>
    <flags value="00000000 00001111"/>
    <unitsPerEm value="1000"/>
    <created value="Thu May 18 16:20:37 2017"/>
    <modified value="Thu May 18 10:50:40 2017"/>
    <xMin value="-611"/>
    <yMin value="-612"/>
    <xMax value="1353"/>
    <yMax value="1001"/>
    <macStyle value="00000000 00000000"/>
    <lowestRecPPEM value="9"/>
    <fontDirectionHint value="2"/>
    <indexToLocFormat value="1"/>
    <glyphDataFormat value="0"/>
  </head>
    <TTGlyph name=".notdef" xMin="0" yMin="0" xMax="512" yMax="699">
      <contour>
        <pt x="0" y="699" on="1"/>
        <pt x="512" y="699" on="1"/>
        <pt x="512" y="0" on="1"/>
        <pt x="0" y="0" on="1"/>
      </contour>
      <contour>
        <pt x="410" y="640" on="1"/>
        <pt x="102" y="640" on="1"/>
        <pt x="256" y="409" on="1"/>
      </contour>
      <contour>
        <pt x="443" y="128" on="1"/>
        <pt x="443" y="570" on="1"/>
        <pt x="296" y="349" on="1"/>
      </contour>
      <contour>
        <pt x="410" y="59" on="1"/>
        <pt x="256" y="289" on="1"/>
        <pt x="102" y="59" on="1"/>
      </contour>
      <contour>
        <pt x="69" y="128" on="1"/>
        <pt x="216" y="349" on="1"/>
        <pt x="69" y="570" on="1"/>
      </contour>
    </TTGlyph>
    <TTGlyph name="A" xMin="7" yMin="0" xMax="610" yMax="630">
      <contour>
        <pt x="219" y="246" on="1"/>
        <pt x="394" y="246" on="1"/>
        <pt x="361" y="339" on="1"/>
        <pt x="347" y="381" on="0"/>
        <pt x="322" y="455" on="0"/>
        <pt x="309" y="499" on="1"/>
        <pt x="307" y="499" on="1"/>
        <pt x="293" y="458" on="0"/>
        <pt x="267" y="381" on="0"/>
        <pt x="252" y="339" on="1"/>
      </contour>
      <contour>
        <pt x="249" y="630" on="1"/>
        <pt x="371" y="630" on="1"/>
        <pt x="610" y="0" on="1"/>
        <pt x="481" y="0" on="1"/>
        <pt x="425" y="155" on="1"/>
        <pt x="190" y="155" on="1"/>
        <pt x="134" y="0" on="1"/>
        <pt x="7" y="0" on="1"/>
      </contour>
    </TTGlyph>
    <TTGlyph name="AE" xMin="9" yMin="0" xMax="779" yMax="630">
      <contour>
        <pt x="328" y="630" on="1"/>
        <pt x="776" y="630" on="1"/>
        <pt x="776" y="534" on="1"/>
        <pt x="523" y="534" on="1"/>
        <pt x="523" y="375" on="1"/>
        <pt x="750" y="375" on="1"/>
        <pt x="750" y="280" on="1"/>
        <pt x="523" y="280" on="1"/>
        <pt x="523" y="96" on="1"/>
        <pt x="779" y="96" on="1"/>
        <pt x="779" y="0" on="1"/>
        <pt x="403" y="0" on="1"/>
        <pt x="403" y="157" on="1"/>
        <pt x="224" y="157" on="1"/>
        <pt x="148" y="0" on="1"/>
        <pt x="9" y="0" on="1"/>
      </contour>
      <contour>
        <pt x="403" y="541" on="1"/>
        <pt x="264" y="250" on="1"/>
        <pt x="403" y="250" on="1"/>
      </contour>
    </TTGlyph>
    <TTGlyph name="AEacute" xMin="9" yMin="0" xMax="779" yMax="824">
      <contour>
        <pt x="328" y="630" on="1"/>
        <pt x="776" y="630" on="1"/>
        <pt x="776" y="534" on="1"/>
        <pt x="523" y="534" on="1"/>
        <pt x="523" y="375" on="1"/>
        <pt x="750" y="375" on="1"/>
        <pt x="750" y="280" on="1"/>
        <pt x="523" y="280" on="1"/>
        <pt x="523" y="96" on="1"/>
        <pt x="779" y="96" on="1"/>
        <pt x="779" y="0" on="1"/>
        <pt x="403" y="0" on="1"/>
        <pt x="403" y="157" on="1"/>
        <pt x="224" y="157" on="1"/>
        <pt x="148" y="0" on="1"/>
        <pt x="9" y="0" on="1"/>
      </contour>
      <contour>
        <pt x="403" y="541" on="1"/>
        <pt x="264" y="250" on="1"/>
        <pt x="403" y="250" on="1"/>
      </contour>
      <contour>
        <pt x="452" y="700" on="1"/>
        <pt x="355" y="700" on="1"/>
        <pt x="435" y="824" on="1"/>
        <pt x="566" y="824" on="1"/>
      </contour>
    </TTGlyph>
    <TTGlyph name="Aacute" xMin="7" yMin="0" xMax="610" yMax="824">
      <contour>
        <pt x="355" y="700" on="1"/>
        <pt x="258" y="700" on="1"/>
        <pt x="338" y="824" on="1"/>
        <pt x="469" y="824" on="1"/>
      </contour>
      <contour>
        <pt x="219" y="246" on="1"/>
        <pt x="394" y="246" on="1"/>
        <pt x="361" y="339" on="1"/>
        <pt x="347" y="381" on="0"/>
        <pt x="322" y="455" on="0"/>
        <pt x="309" y="499" on="1"/>
        <pt x="307" y="499" on="1"/>
        <pt x="293" y="458" on="0"/>
        <pt x="267" y="381" on="0"/>
        <pt x="252" y="339" on="1"/>
      </contour>
      <contour>
        <pt x="249" y="630" on="1"/>
        <pt x="371" y="630" on="1"/>
        <pt x="610" y="0" on="1"/>
        <pt x="481" y="0" on="1"/>
        <pt x="425" y="155" on="1"/>
        <pt x="190" y="155" on="1"/>
        <pt x="134" y="0" on="1"/>
        <pt x="7" y="0" on="1"/>
      </contour>
    </TTGlyph>
    <TTGlyph name="Abreve" xMin="7" yMin="0" xMax="610" yMax="824">
      <contour>
        <pt x="245" y="824" on="1"/>
        <pt x="247" y="796" on="0"/>
        <pt x="274" y="764" on="0"/>
        <pt x="308" y="764" on="1"/>
        <pt x="364" y="764" on="0"/>
        <pt x="369" y="824" on="1"/>
        <pt x="441" y="824" on="1"/>
        <pt x="441" y="766" on="0"/>
        <pt x="372" y="697" on="0"/>
        <pt x="307" y="697" on="1"/>
        <pt x="271" y="697" on="0"/>
        <pt x="220" y="718" on="0"/>
        <pt x="187" y="753" on="0"/>
        <pt x="172" y="799" on="0"/>
        <pt x="172" y="824" on="1"/>
      </contour>
      <contour>
        <pt x="219" y="246" on="1"/>
        <pt x="394" y="246" on="1"/>
        <pt x="361" y="339" on="1"/>
        <pt x="347" y="381" on="0"/>
        <pt x="322" y="455" on="0"/>
        <pt x="309" y="499" on="1"/>
        <pt x="307" y="499" on="1"/>
        <pt x="293" y="458" on="0"/>
        <pt x="267" y="381" on="0"/>
        <pt x="252" y="339" on="1"/>
      </contour>
      <contour>
        <pt x="249" y="630" on="1"/>
        <pt x="371" y="630" on="1"/>
        <pt x="610" y="0" on="1"/>
        <pt x="481" y="0" on="1"/>
        <pt x="425" y="155" on="1"/>
        <pt x="190" y="155" on="1"/>
        <pt x="134" y="0" on="1"/>
        <pt x="7" y="0" on="1"/>
      </contour>
    </TTGlyph>
    <TTGlyph name="Acircumflex" xMin="7" yMin="0" xMax="610" yMax="829">
      <contour>
        <pt x="263" y="829" on="1"/>
        <pt x="352" y="829" on="1"/>
        <pt x="472" y="700" on="1"/>
        <pt x="377" y="700" on="1"/>
        <pt x="307" y="774" on="1"/>
        <pt x="237" y="700" on="1"/>
        <pt x="146" y="700" on="1"/>
      </contour>
      <contour>
        <pt x="219" y="246" on="1"/>
        <pt x="394" y="246" on="1"/>
        <pt x="361" y="339" on="1"/>
        <pt x="347" y="381" on="0"/>
        <pt x="322" y="455" on="0"/>
        <pt x="309" y="499" on="1"/>
        <pt x="307" y="499" on="1"/>
        <pt x="293" y="458" on="0"/>
        <pt x="267" y="381" on="0"/>
        <pt x="252" y="339" on="1"/>
      </contour>
      <contour>
        <pt x="249" y="630" on="1"/>
        <pt x="371" y="630" on="1"/>
        <pt x="610" y="0" on="1"/>
        <pt x="481" y="0" on="1"/>
        <pt x="425" y="155" on="1"/>
        <pt x="190" y="155" on="1"/>
        <pt x="134" y="0" on="1"/>
        <pt x="7" y="0" on="1"/>
      </contour>
    </TTGlyph>
    <TTGlyph name="Addak.gm" xMin="-304" yMin="637" xMax="39" yMax="816">
      <contour>
        <pt x="-132" y="637" on="1"/>
        <pt x="-165" y="637" on="0"/>
        <pt x="-227" y="657" on="0"/>
        <pt x="-275" y="697" on="0"/>
        <pt x="-304" y="760" on="0"/>
        <pt x="-304" y="803" on="1"/>
        <pt x="-304" y="816" on="1"/>
        <pt x="-228" y="816" on="1"/>
        <pt x="-223" y="766" on="0"/>
        <pt x="-171" y="719" on="0"/>
        <pt x="-131" y="719" on="1"/>
        <pt x="-95" y="719" on="0"/>
        <pt x="-39" y="767" on="0"/>
        <pt x="-37" y="816" on="1"/>
        <pt x="39" y="816" on="1"/>
        <pt x="39" y="803" on="1"/>
        <pt x="39" y="760" on="0"/>
        <pt x="12" y="698" on="0"/>
        <pt x="-35" y="657" on="0"/>
        <pt x="-97" y="637" on="0"/>
      </contour>
    </TTGlyph>
    <TTGlyph name="Addak.gm.alt" xMin="-422" yMin="664" xMax="-152" yMax="798">
      <contour>
        <pt x="-288" y="664" on="1"/>
        <pt x="-348" y="664" on="0"/>
        <pt x="-422" y="728" on="0"/>
        <pt x="-422" y="785" on="1"/>
        <pt x="-422" y="794" on="1"/>
        <pt x="-349" y="798" on="1"/>
        <pt x="-348" y="760" on="0"/>
        <pt x="-313" y="727" on="0"/>
        <pt x="-287" y="727" on="1"/>
        <pt x="-258" y="727" on="0"/>
        <pt x="-224" y="763" on="0"/>
        <pt x="-224" y="798" on="1"/>
        <pt x="-152" y="794" on="1"/>
        <pt x="-152" y="784" on="1"/>
        <pt x="-152" y="727" on="0"/>
        <pt x="-226" y="664" on="0"/>
      </contour>
    </TTGlyph>
    <TTGlyph name="AddakBindi.gm" xMin="-309" yMin="637" xMax="44" yMax="874">
      <contour>
        <pt x="-188" y="818" on="1"/>
        <pt x="-188" y="841" on="0"/>
        <pt x="-157" y="874" on="0"/>
        <pt x="-132" y="874" on="1"/>
        <pt x="-107" y="874" on="0"/>
        <pt x="-75" y="841" on="0"/>
        <pt x="-75" y="818" on="1"/>
        <pt x="-75" y="795" on="0"/>
        <pt x="-107" y="763" on="0"/>
        <pt x="-132" y="763" on="1"/>
        <pt x="-157" y="763" on="0"/>
        <pt x="-188" y="795" on="0"/>
      </contour>
      <contour>
        <pt x="-132" y="637" on="1"/>
        <pt x="-166" y="637" on="0"/>
        <pt x="-230" y="657" on="0"/>
        <pt x="-279" y="697" on="0"/>
        <pt x="-309" y="760" on="0"/>
        <pt x="-309" y="803" on="1"/>
        <pt x="-309" y="816" on="1"/>
        <pt x="-233" y="816" on="1"/>
        <pt x="-228" y="768" on="0"/>
        <pt x="-174" y="719" on="0"/>
        <pt x="-131" y="719" on="1"/>
        <pt x="-91" y="719" on="0"/>
        <pt x="-34" y="768" on="0"/>
        <pt x="-32" y="816" on="1"/>
        <pt x="44" y="816" on="1"/>
        <pt x="44" y="803" on="1"/>
        <pt x="44" y="760" on="0"/>
        <pt x="16" y="698" on="0"/>
        <pt x="-32" y="657" on="0"/>
        <pt x="-96" y="637" on="0"/>
      </contour>
    </TTGlyph>
    <TTGlyph name="AddakBindi.gm.alt" xMin="-422" yMin="664" xMax="-152" yMax="839">
      <contour>
        <pt x="-329" y="794" on="1"/>
        <pt x="-329" y="813" on="0"/>
        <pt x="-305" y="839" on="0"/>
        <pt x="-287" y="839" on="1"/>
        <pt x="-267" y="839" on="0"/>
        <pt x="-244" y="813" on="0"/>
        <pt x="-244" y="794" on="1"/>
        <pt x="-244" y="775" on="0"/>
        <pt x="-267" y="749" on="0"/>
        <pt x="-286" y="749" on="1"/>
        <pt x="-306" y="749" on="0"/>
        <pt x="-329" y="775" on="0"/>
      </contour>
      <contour>
        <pt x="-288" y="664" on="1"/>
        <pt x="-348" y="664" on="0"/>
        <pt x="-422" y="728" on="0"/>
        <pt x="-422" y="785" on="1"/>
        <pt x="-422" y="794" on="1"/>
        <pt x="-356" y="798" on="1"/>
        <pt x="-355" y="757" on="0"/>
        <pt x="-315" y="721" on="0"/>
        <pt x="-287" y="721" on="1"/>
        <pt x="-258" y="721" on="0"/>
        <pt x="-218" y="759" on="0"/>
        <pt x="-217" y="798" on="1"/>
        <pt x="-152" y="794" on="1"/>
        <pt x="-152" y="784" on="1"/>
        <pt x="-152" y="727" on="0"/>
        <pt x="-226" y="664" on="0"/>
      </contour>
    </TTGlyph>
    <TTGlyph name="AddhaMa.gm" xMin="16" yMin="0" xMax="483" yMax="588">
      <contour>
        <pt x="16" y="308" on="1"/>
        <pt x="283" y="308" on="1"/>
        <pt x="283" y="588" on="1"/>
        <pt x="483" y="588" on="1"/>
        <pt x="483" y="504" on="1"/>
        <pt x="388" y="504" on="1"/>
        <pt x="388" y="0" on="1"/>
        <pt x="283" y="0" on="1"/>
        <pt x="283" y="223" on="1"/>
        <pt x="16" y="223" on="1"/>
      </contour>
    </TTGlyph>
    <TTGlyph name="AddhaTha.gm" xMin="-30" yMin="0" xMax="507" yMax="588">
      <contour>
        <pt x="-30" y="588" on="1"/>
        <pt x="507" y="588" on="1"/>
        <pt x="507" y="504" on="1"/>
        <pt x="412" y="504" on="1"/>
        <pt x="412" y="0" on="1"/>
        <pt x="307" y="0" on="1"/>
        <pt x="307" y="118" on="1"/>
        <pt x="283" y="105" on="0"/>
        <pt x="220" y="90" on="0"/>
        <pt x="178" y="90" on="1"/>
        <pt x="123" y="90" on="0"/>
        <pt x="28" y="119" on="0"/>
        <pt x="-5" y="145" on="1"/>
        <pt x="50" y="218" on="1"/>
        <pt x="75" y="198" on="0"/>
        <pt x="141" y="175" on="0"/>
        <pt x="182" y="175" on="1"/>
        <pt x="221" y="175" on="0"/>
        <pt x="284" y="194" on="0"/>
        <pt x="307" y="211" on="1"/>
        <pt x="307" y="504" on="1"/>
        <pt x="-30" y="504" on="1"/>
      </contour>
    </TTGlyph>
    <TTGlyph name="AddhaYa.gm" xMin="-30" yMin="0" xMax="636" yMax="588">
      <contour>
        <pt x="-30" y="588" on="1"/>
        <pt x="636" y="588" on="1"/>
        <pt x="636" y="504" on="1"/>
        <pt x="541" y="504" on="1"/>
        <pt x="541" y="0" on="1"/>
        <pt x="436" y="0" on="1"/>
        <pt x="436" y="289" on="1"/>
        <pt x="311" y="289" on="1"/>
        <pt x="311" y="89" on="1"/>
        <pt x="291" y="83" on="0"/>
        <pt x="238" y="73" on="0"/>
        <pt x="202" y="73" on="1"/>
        <pt x="146" y="73" on="0"/>
        <pt x="33" y="105" on="0"/>
        <pt x="-6" y="140" on="1"/>
        <pt x="48" y="211" on="1"/>
        <pt x="115" y="158" on="0"/>
        <pt x="202" y="158" on="1"/>
        <pt x="206" y="158" on="1"/>
        <pt x="206" y="374" on="1"/>
        <pt x="436" y="374" on="1"/>
        <pt x="436" y="504" on="1"/>
        <pt x="-30" y="504" on="1"/>
      </contour>
    </TTGlyph>
    <TTGlyph name="Adieresis" xMin="7" yMin="0" xMax="610" yMax="812">
      <contour>
        <pt x="156" y="754" on="1"/>
        <pt x="156" y="777" on="0"/>
        <pt x="191" y="812" on="0"/>
        <pt x="215" y="812" on="1"/>
        <pt x="240" y="812" on="0"/>
        <pt x="274" y="777" on="0"/>
        <pt x="274" y="754" on="1"/>
        <pt x="274" y="729" on="0"/>
        <pt x="240" y="694" on="0"/>
        <pt x="215" y="694" on="1"/>
        <pt x="191" y="694" on="0"/>
        <pt x="156" y="729" on="0"/>
      </contour>
      <contour>
        <pt x="342" y="754" on="1"/>
        <pt x="342" y="777" on="0"/>
        <pt x="376" y="812" on="0"/>
        <pt x="401" y="812" on="1"/>
        <pt x="425" y="812" on="0"/>
        <pt x="459" y="777" on="0"/>
        <pt x="459" y="754" on="1"/>
        <pt x="459" y="729" on="0"/>
        <pt x="425" y="694" on="0"/>
        <pt x="401" y="694" on="1"/>
        <pt x="376" y="694" on="0"/>
        <pt x="342" y="729" on="0"/>
      </contour>
      <contour>
        <pt x="219" y="246" on="1"/>
        <pt x="394" y="246" on="1"/>
        <pt x="361" y="339" on="1"/>
        <pt x="347" y="381" on="0"/>
        <pt x="322" y="455" on="0"/>
        <pt x="309" y="499" on="1"/>
        <pt x="307" y="499" on="1"/>
        <pt x="293" y="458" on="0"/>
        <pt x="267" y="381" on="0"/>
        <pt x="252" y="339" on="1"/>
      </contour>
      <contour>
        <pt x="249" y="630" on="1"/>
        <pt x="371" y="630" on="1"/>
        <pt x="610" y="0" on="1"/>
        <pt x="481" y="0" on="1"/>
        <pt x="425" y="155" on="1"/>
        <pt x="190" y="155" on="1"/>
        <pt x="134" y="0" on="1"/>
        <pt x="7" y="0" on="1"/>
      </contour>
    </TTGlyph>
    <TTGlyph name="Agrave" xMin="7" yMin="0" xMax="610" yMax="824">
      <contour>
        <pt x="150" y="824" on="1"/>
        <pt x="280" y="824" on="1"/>
        <pt x="360" y="700" on="1"/>
        <pt x="263" y="700" on="1"/>
      </contour>
      <contour>
        <pt x="219" y="246" on="1"/>
        <pt x="394" y="246" on="1"/>
        <pt x="361" y="339" on="1"/>
        <pt x="347" y="381" on="0"/>
        <pt x="322" y="455" on="0"/>
        <pt x="309" y="499" on="1"/>
        <pt x="307" y="499" on="1"/>
        <pt x="293" y="458" on="0"/>
        <pt x="267" y="381" on="0"/>
        <pt x="252" y="339" on="1"/>
      </contour>
      <contour>
        <pt x="249" y="630" on="1"/>
        <pt x="371" y="630" on="1"/>
        <pt x="610" y="0" on="1"/>
        <pt x="481" y="0" on="1"/>
        <pt x="425" y="155" on="1"/>
        <pt x="190" y="155" on="1"/>
        <pt x="134" y="0" on="1"/>
        <pt x="7" y="0" on="1"/>
      </contour>
    </TTGlyph>
    <TTGlyph name="Amacron" xMin="7" yMin="0" xMax="610" yMax="772">
      <contour>
        <pt x="433" y="772" on="1"/>
        <pt x="433" y="700" on="1"/>
        <pt x="181" y="700" on="1"/>
        <pt x="181" y="772" on="1"/>
      </contour>
      <contour>
        <pt x="219" y="246" on="1"/>
        <pt x="394" y="246" on="1"/>
        <pt x="361" y="339" on="1"/>
        <pt x="347" y="381" on="0"/>
        <pt x="322" y="455" on="0"/>
        <pt x="309" y="499" on="1"/>
        <pt x="307" y="499" on="1"/>
        <pt x="293" y="458" on="0"/>
        <pt x="267" y="381" on="0"/>
        <pt x="252" y="339" on="1"/>
      </contour>
      <contour>
        <pt x="249" y="630" on="1"/>
        <pt x="371" y="630" on="1"/>
        <pt x="610" y="0" on="1"/>
        <pt x="481" y="0" on="1"/>
        <pt x="425" y="155" on="1"/>
        <pt x="190" y="155" on="1"/>
        <pt x="134" y="0" on="1"/>
        <pt x="7" y="0" on="1"/>
      </contour>
    </TTGlyph>
    <TTGlyph name="Aogonek" xMin="7" yMin="-206" xMax="613" yMax="630">
      <contour>
        <pt x="249" y="630" on="1"/>
        <pt x="371" y="630" on="1"/>
        <pt x="610" y="0" on="1"/>
        <pt x="572" y="0" on="1"/>
        <pt x="504" y="-39" on="0"/>
        <pt x="504" y="-85" on="1"/>
        <pt x="504" y="-107" on="0"/>
        <pt x="530" y="-131" on="0"/>
        <pt x="552" y="-131" on="1"/>
        <pt x="577" y="-131" on="0"/>
        <pt x="596" y="-123" on="1"/>
        <pt x="613" y="-185" on="1"/>
        <pt x="596" y="-195" on="0"/>
        <pt x="553" y="-206" on="0"/>
        <pt x="529" y="-206" on="1"/>
        <pt x="483" y="-206" on="0"/>
        <pt x="422" y="-154" on="0"/>
        <pt x="422" y="-107" on="1"/>
        <pt x="422" y="-69" on="0"/>
        <pt x="458" y="-17" on="0"/>
        <pt x="481" y="0" on="1"/>
        <pt x="425" y="155" on="1"/>
        <pt x="190" y="155" on="1"/>
        <pt x="134" y="0" on="1"/>
        <pt x="7" y="0" on="1"/>
      </contour>
      <contour>
        <pt x="219" y="246" on="1"/>
        <pt x="394" y="246" on="1"/>
        <pt x="361" y="339" on="1"/>
        <pt x="347" y="381" on="0"/>
        <pt x="322" y="455" on="0"/>
        <pt x="309" y="499" on="1"/>
        <pt x="307" y="499" on="1"/>
        <pt x="293" y="458" on="0"/>
        <pt x="267" y="381" on="0"/>
        <pt x="252" y="339" on="1"/>
      </contour>
    </TTGlyph>
    <TTGlyph name="Aring" xMin="7" yMin="0" xMax="610" yMax="849">
      <contour>
        <pt x="206" y="761" on="1"/>
        <pt x="206" y="806" on="0"/>
        <pt x="264" y="849" on="0"/>
        <pt x="308" y="849" on="1"/>
        <pt x="353" y="849" on="0"/>
        <pt x="410" y="806" on="0"/>
        <pt x="410" y="761" on="1"/>
        <pt x="410" y="738" on="0"/>
        <pt x="393" y="705" on="0"/>
        <pt x="365" y="684" on="0"/>
        <pt x="328" y="673" on="0"/>
        <pt x="308" y="673" on="1"/>
        <pt x="266" y="673" on="0"/>
        <pt x="206" y="718" on="0"/>
      </contour>
      <contour>
        <pt x="265" y="761" on="1"/>
        <pt x="265" y="739" on="0"/>
        <pt x="288" y="714" on="0"/>
        <pt x="308" y="714" on="1"/>
        <pt x="328" y="714" on="0"/>
        <pt x="351" y="739" on="0"/>
        <pt x="351" y="761" on="1"/>
        <pt x="351" y="783" on="0"/>
        <pt x="328" y="808" on="0"/>
        <pt x="308" y="808" on="1"/>
        <pt x="288" y="808" on="0"/>
        <pt x="265" y="783" on="0"/>
      </contour>
      <contour>
        <pt x="219" y="246" on="1"/>
        <pt x="394" y="246" on="1"/>
        <pt x="361" y="339" on="1"/>
        <pt x="347" y="381" on="0"/>
        <pt x="322" y="455" on="0"/>
        <pt x="309" y="499" on="1"/>
        <pt x="307" y="499" on="1"/>
        <pt x="293" y="458" on="0"/>
        <pt x="267" y="381" on="0"/>
        <pt x="252" y="339" on="1"/>
      </contour>
      <contour>
        <pt x="249" y="630" on="1"/>
        <pt x="371" y="630" on="1"/>
        <pt x="610" y="0" on="1"/>
        <pt x="481" y="0" on="1"/>
        <pt x="425" y="155" on="1"/>
        <pt x="190" y="155" on="1"/>
        <pt x="134" y="0" on="1"/>
        <pt x="7" y="0" on="1"/>
      </contour>
    </TTGlyph>
    <TTGlyph name="Asmall" xMin="9" yMin="0" xMax="490" yMax="475">
      <contour>
        <pt x="190" y="191" on="1"/>
        <pt x="306" y="191" on="1"/>
        <pt x="282" y="259" on="1"/>
        <pt x="274" y="284" on="0"/>
        <pt x="256" y="338" on="0"/>
        <pt x="250" y="361" on="1"/>
        <pt x="248" y="361" on="1"/>
        <pt x="242" y="338" on="0"/>
        <pt x="224" y="284" on="0"/>
        <pt x="215" y="259" on="1"/>
      </contour>
      <contour>
        <pt x="187" y="475" on="1"/>
        <pt x="310" y="475" on="1"/>
        <pt x="490" y="0" on="1"/>
        <pt x="371" y="0" on="1"/>
        <pt x="333" y="108" on="1"/>
        <pt x="164" y="108" on="1"/>
        <pt x="125" y="0" on="1"/>
        <pt x="9" y="0" on="1"/>
      </contour>
    </TTGlyph>
    <TTGlyph name="Atilde" xMin="7" yMin="0" xMax="610" yMax="818">
      <contour>
        <pt x="154" y="700" on="1"/>
        <pt x="154" y="748" on="0"/>
        <pt x="199" y="815" on="0"/>
        <pt x="244" y="815" on="1"/>
        <pt x="263" y="815" on="0"/>
        <pt x="294" y="803" on="0"/>
        <pt x="322" y="789" on="0"/>
        <pt x="348" y="777" on="0"/>
        <pt x="363" y="777" on="1"/>
        <pt x="380" y="777" on="0"/>
        <pt x="396" y="801" on="0"/>
        <pt x="397" y="818" on="1"/>
        <pt x="457" y="818" on="1"/>
        <pt x="457" y="770" on="0"/>
        <pt x="413" y="704" on="0"/>
        <pt x="372" y="704" on="1"/>
        <pt x="352" y="704" on="0"/>
        <pt x="316" y="716" on="0"/>
        <pt x="286" y="729" on="0"/>
        <pt x="260" y="741" on="0"/>
        <pt x="249" y="741" on="1"/>
        <pt x="230" y="741" on="0"/>
        <pt x="216" y="717" on="0"/>
        <pt x="214" y="700" on="1"/>
      </contour>
      <contour>
        <pt x="219" y="246" on="1"/>
        <pt x="394" y="246" on="1"/>
        <pt x="361" y="339" on="1"/>
        <pt x="347" y="381" on="0"/>
        <pt x="322" y="455" on="0"/>
        <pt x="309" y="499" on="1"/>
        <pt x="307" y="499" on="1"/>
        <pt x="293" y="458" on="0"/>
        <pt x="267" y="381" on="0"/>
        <pt x="252" y="339" on="1"/>
      </contour>
      <contour>
        <pt x="249" y="630" on="1"/>
        <pt x="371" y="630" on="1"/>
        <pt x="610" y="0" on="1"/>
        <pt x="481" y="0" on="1"/>
        <pt x="425" y="155" on="1"/>
        <pt x="190" y="155" on="1"/>
        <pt x="134" y="0" on="1"/>
        <pt x="7" y="0" on="1"/>
      </contour>
    </TTGlyph>
    <TTGlyph name="B" xMin="73" yMin="0" xMax="515" yMax="630">
      <contour>
        <pt x="286" y="630" on="1"/>
        <pt x="383" y="630" on="0"/>
        <pt x="496" y="545" on="0"/>
        <pt x="496" y="467" on="1"/>
        <pt x="496" y="438" on="0"/>
        <pt x="477" y="393" on="0"/>
        <pt x="445" y="360" on="0"/>
        <pt x="403" y="338" on="0"/>
        <pt x="381" y="332" on="1"/>
        <pt x="408" y="327" on="0"/>
        <pt x="457" y="303" on="0"/>
        <pt x="494" y="264" on="0"/>
        <pt x="515" y="211" on="0"/>
        <pt x="515" y="177" on="1"/>
        <pt x="515" y="138" on="0"/>
        <pt x="481" y="73" on="0"/>
        <pt x="419" y="26" on="0"/>
        <pt x="332" y="0" on="0"/>
        <pt x="280" y="0" on="1"/>
        <pt x="73" y="0" on="1"/>
        <pt x="73" y="630" on="1"/>
      </contour>
      <contour>
        <pt x="195" y="374" on="1"/>
        <pt x="263" y="374" on="1"/>
        <pt x="309" y="374" on="0"/>
        <pt x="371" y="413" on="0"/>
        <pt x="371" y="458" on="1"/>
        <pt x="371" y="497" on="0"/>
        <pt x="316" y="536" on="0"/>
        <pt x="267" y="536" on="1"/>
        <pt x="195" y="536" on="1"/>
      </contour>
      <contour>
        <pt x="195" y="94" on="1"/>
        <pt x="264" y="94" on="1"/>
        <pt x="290" y="94" on="0"/>
        <pt x="336" y="104" on="0"/>
        <pt x="370" y="126" on="0"/>
        <pt x="389" y="163" on="0"/>
        <pt x="389" y="189" on="1"/>
        <pt x="389" y="214" on="0"/>
        <pt x="367" y="249" on="0"/>
        <pt x="331" y="271" on="0"/>
        <pt x="283" y="281" on="0"/>
        <pt x="257" y="281" on="1"/>
        <pt x="195" y="281" on="1"/>
      </contour>
    </TTGlyph>
    <TTGlyph name="Ba.gm" xMin="-40" yMin="0" xMax="621" yMax="588">
      <contour>
        <pt x="420" y="93" on="1"/>
        <pt x="395" y="81" on="0"/>
        <pt x="332" y="66" on="0"/>
        <pt x="293" y="66" on="1"/>
        <pt x="254" y="66" on="0"/>
        <pt x="179" y="82" on="0"/>
        <pt x="111" y="115" on="0"/>
        <pt x="53" y="165" on="0"/>
        <pt x="33" y="199" on="1"/>
        <pt x="53" y="245" on="0"/>
        <pt x="125" y="317" on="0"/>
        <pt x="173" y="337" on="1"/>
        <pt x="124" y="362" on="0"/>
        <pt x="55" y="450" on="0"/>
        <pt x="43" y="504" on="1"/>
        <pt x="-40" y="504" on="1"/>
        <pt x="-40" y="588" on="1"/>
        <pt x="621" y="588" on="1"/>
        <pt x="621" y="504" on="1"/>
        <pt x="526" y="504" on="1"/>
        <pt x="526" y="0" on="1"/>
        <pt x="420" y="0" on="1"/>
      </contour>
      <contour>
        <pt x="303" y="152" on="1"/>
        <pt x="338" y="152" on="0"/>
        <pt x="399" y="170" on="0"/>
        <pt x="420" y="184" on="1"/>
        <pt x="420" y="295" on="1"/>
        <pt x="319" y="295" on="1"/>
        <pt x="257" y="295" on="0"/>
        <pt x="173" y="248" on="0"/>
        <pt x="151" y="210" on="1"/>
        <pt x="174" y="185" on="0"/>
        <pt x="250" y="152" on="0"/>
      </contour>
      <contour>
        <pt x="420" y="378" on="1"/>
        <pt x="420" y="504" on="1"/>
        <pt x="154" y="504" on="1"/>
        <pt x="160" y="480" on="0"/>
        <pt x="187" y="435" on="0"/>
        <pt x="225" y="399" on="0"/>
        <pt x="273" y="378" on="0"/>
        <pt x="302" y="378" on="1"/>
      </contour>
    </TTGlyph>
    <TTGlyph name="BaVirama.gm" xMin="-40" yMin="-300" xMax="700" yMax="588">
      <contour>
        <pt x="420" y="93" on="1"/>
        <pt x="395" y="81" on="0"/>
        <pt x="332" y="66" on="0"/>
        <pt x="293" y="66" on="1"/>
        <pt x="254" y="66" on="0"/>
        <pt x="179" y="82" on="0"/>
        <pt x="111" y="115" on="0"/>
        <pt x="53" y="165" on="0"/>
        <pt x="33" y="199" on="1"/>
        <pt x="53" y="245" on="0"/>
        <pt x="125" y="317" on="0"/>
        <pt x="173" y="337" on="1"/>
        <pt x="124" y="362" on="0"/>
        <pt x="55" y="450" on="0"/>
        <pt x="43" y="504" on="1"/>
        <pt x="-40" y="504" on="1"/>
        <pt x="-40" y="588" on="1"/>
        <pt x="621" y="588" on="1"/>
        <pt x="621" y="504" on="1"/>
        <pt x="526" y="504" on="1"/>
        <pt x="526" y="0" on="1"/>
        <pt x="420" y="0" on="1"/>
      </contour>
      <contour>
        <pt x="303" y="152" on="1"/>
        <pt x="338" y="152" on="0"/>
        <pt x="399" y="170" on="0"/>
        <pt x="420" y="184" on="1"/>
        <pt x="420" y="295" on="1"/>
        <pt x="319" y="295" on="1"/>
        <pt x="257" y="295" on="0"/>
        <pt x="173" y="248" on="0"/>
        <pt x="151" y="210" on="1"/>
        <pt x="174" y="185" on="0"/>
        <pt x="250" y="152" on="0"/>
      </contour>
      <contour>
        <pt x="420" y="378" on="1"/>
        <pt x="420" y="504" on="1"/>
        <pt x="154" y="504" on="1"/>
        <pt x="160" y="480" on="0"/>
        <pt x="187" y="435" on="0"/>
        <pt x="225" y="399" on="0"/>
        <pt x="273" y="378" on="0"/>
        <pt x="302" y="378" on="1"/>
      </contour>
      <contour>
        <pt x="700" y="-235" on="1"/>
        <pt x="646" y="-300" on="1"/>
        <pt x="417" y="-133" on="1"/>
        <pt x="480" y="-53" on="1"/>
      </contour>
    </TTGlyph>
    <TTGlyph name="Bha.gm" xMin="-20" yMin="-10" xMax="589" yMax="588">
      <contour>
        <pt x="-20" y="588" on="1"/>
        <pt x="589" y="588" on="1"/>
        <pt x="589" y="504" on="1"/>
        <pt x="515" y="504" on="1"/>
        <pt x="512" y="448" on="0"/>
        <pt x="479" y="353" on="0"/>
        <pt x="454" y="318" on="1"/>
        <pt x="479" y="293" on="0"/>
        <pt x="513" y="226" on="0"/>
        <pt x="513" y="187" on="1"/>
        <pt x="513" y="140" on="0"/>
        <pt x="471" y="67" on="0"/>
        <pt x="398" y="17" on="0"/>
        <pt x="297" y="-10" on="0"/>
        <pt x="237" y="-10" on="1"/>
        <pt x="170" y="-10" on="0"/>
        <pt x="62" y="17" on="0"/>
        <pt x="26" y="38" on="1"/>
        <pt x="62" y="116" on="1"/>
        <pt x="90" y="102" on="0"/>
        <pt x="177" y="75" on="0"/>
        <pt x="236" y="75" on="1"/>
        <pt x="317" y="75" on="0"/>
        <pt x="403" y="143" on="0"/>
        <pt x="403" y="193" on="1"/>
        <pt x="403" y="211" on="0"/>
        <pt x="394" y="240" on="0"/>
        <pt x="386" y="252" on="1"/>
        <pt x="357" y="222" on="0"/>
        <pt x="264" y="184" on="0"/>
        <pt x="209" y="184" on="1"/>
        <pt x="172" y="184" on="0"/>
        <pt x="111" y="200" on="0"/>
        <pt x="66" y="231" on="0"/>
        <pt x="41" y="276" on="0"/>
        <pt x="41" y="305" on="1"/>
        <pt x="41" y="332" on="0"/>
        <pt x="66" y="378" on="0"/>
        <pt x="111" y="410" on="0"/>
        <pt x="173" y="428" on="0"/>
        <pt x="211" y="428" on="1"/>
        <pt x="265" y="428" on="0"/>
        <pt x="350" y="394" on="0"/>
        <pt x="376" y="374" on="1"/>
        <pt x="390" y="403" on="0"/>
        <pt x="407" y="471" on="0"/>
        <pt x="409" y="504" on="1"/>
        <pt x="-20" y="504" on="1"/>
      </contour>
      <contour>
        <pt x="217" y="262" on="1"/>
        <pt x="287" y="262" on="0"/>
        <pt x="333" y="311" on="1"/>
        <pt x="311" y="327" on="0"/>
        <pt x="255" y="350" on="0"/>
        <pt x="221" y="350" on="1"/>
        <pt x="185" y="350" on="0"/>
        <pt x="145" y="325" on="0"/>
        <pt x="145" y="305" on="1"/>
        <pt x="145" y="284" on="0"/>
        <pt x="183" y="262" on="0"/>
      </contour>
    </TTGlyph>
    <TTGlyph name="BhaVirama.gm" xMin="-22" yMin="-300" xMax="587" yMax="588">
      <contour>
        <pt x="-22" y="588" on="1"/>
        <pt x="587" y="588" on="1"/>
        <pt x="587" y="504" on="1"/>
        <pt x="513" y="504" on="1"/>
        <pt x="510" y="448" on="0"/>
        <pt x="477" y="353" on="0"/>
        <pt x="452" y="318" on="1"/>
        <pt x="477" y="293" on="0"/>
        <pt x="511" y="226" on="0"/>
        <pt x="511" y="187" on="1"/>
        <pt x="511" y="140" on="0"/>
        <pt x="469" y="67" on="0"/>
        <pt x="396" y="17" on="0"/>
        <pt x="295" y="-10" on="0"/>
        <pt x="235" y="-10" on="1"/>
        <pt x="168" y="-10" on="0"/>
        <pt x="60" y="17" on="0"/>
        <pt x="24" y="38" on="1"/>
        <pt x="60" y="116" on="1"/>
        <pt x="88" y="102" on="0"/>
        <pt x="175" y="75" on="0"/>
        <pt x="234" y="75" on="1"/>
        <pt x="315" y="75" on="0"/>
        <pt x="401" y="143" on="0"/>
        <pt x="401" y="193" on="1"/>
        <pt x="401" y="211" on="0"/>
        <pt x="392" y="240" on="0"/>
        <pt x="384" y="252" on="1"/>
        <pt x="355" y="222" on="0"/>
        <pt x="262" y="184" on="0"/>
        <pt x="207" y="184" on="1"/>
        <pt x="170" y="184" on="0"/>
        <pt x="109" y="200" on="0"/>
        <pt x="64" y="231" on="0"/>
        <pt x="39" y="276" on="0"/>
        <pt x="39" y="305" on="1"/>
        <pt x="39" y="332" on="0"/>
        <pt x="64" y="378" on="0"/>
        <pt x="109" y="410" on="0"/>
        <pt x="171" y="428" on="0"/>
        <pt x="209" y="428" on="1"/>
        <pt x="263" y="428" on="0"/>
        <pt x="348" y="394" on="0"/>
        <pt x="374" y="374" on="1"/>
        <pt x="388" y="403" on="0"/>
        <pt x="405" y="471" on="0"/>
        <pt x="407" y="504" on="1"/>
        <pt x="-22" y="504" on="1"/>
      </contour>
      <contour>
        <pt x="215" y="262" on="1"/>
        <pt x="285" y="262" on="0"/>
        <pt x="331" y="311" on="1"/>
        <pt x="309" y="327" on="0"/>
        <pt x="253" y="350" on="0"/>
        <pt x="219" y="350" on="1"/>
        <pt x="183" y="350" on="0"/>
        <pt x="143" y="325" on="0"/>
        <pt x="143" y="305" on="1"/>
        <pt x="143" y="284" on="0"/>
        <pt x="181" y="262" on="0"/>
      </contour>
      <contour>
        <pt x="547" y="-235" on="1"/>
        <pt x="493" y="-300" on="1"/>
        <pt x="264" y="-133" on="1"/>
        <pt x="327" y="-53" on="1"/>
      </contour>
    </TTGlyph>
    <TTGlyph name="Bindi.gm" xMin="-199" yMin="664" xMax="-58" yMax="802">
      <contour>
        <pt x="-199" y="733" on="1"/>
        <pt x="-199" y="762" on="0"/>
        <pt x="-160" y="802" on="0"/>
        <pt x="-129" y="802" on="1"/>
        <pt x="-98" y="802" on="0"/>
        <pt x="-58" y="762" on="0"/>
        <pt x="-58" y="733" on="1"/>
        <pt x="-58" y="704" on="0"/>
        <pt x="-98" y="664" on="0"/>
        <pt x="-129" y="664" on="1"/>
        <pt x="-160" y="664" on="0"/>
        <pt x="-199" y="704" on="0"/>
      </contour>
    </TTGlyph>
    <TTGlyph name="Bindi.gm.alt" xMin="-198" yMin="679" xMax="-86" yMax="791">
      <contour>
        <pt x="-198" y="735" on="1"/>
        <pt x="-198" y="758" on="0"/>
        <pt x="-167" y="791" on="0"/>
        <pt x="-142" y="791" on="1"/>
        <pt x="-118" y="791" on="0"/>
        <pt x="-86" y="758" on="0"/>
        <pt x="-86" y="734" on="1"/>
        <pt x="-86" y="711" on="0"/>
        <pt x="-118" y="679" on="0"/>
        <pt x="-142" y="679" on="1"/>
        <pt x="-167" y="679" on="0"/>
        <pt x="-198" y="712" on="0"/>
      </contour>
    </TTGlyph>
    <TTGlyph name="Bsmall" xMin="69" yMin="0" xMax="449" yMax="475">
      <contour>
        <pt x="263" y="475" on="1"/>
        <pt x="347" y="475" on="0"/>
        <pt x="428" y="407" on="0"/>
        <pt x="428" y="353" on="1"/>
        <pt x="428" y="315" on="0"/>
        <pt x="383" y="265" on="0"/>
        <pt x="346" y="253" on="1"/>
        <pt x="396" y="241" on="0"/>
        <pt x="449" y="182" on="0"/>
        <pt x="449" y="136" on="1"/>
        <pt x="449" y="78" on="0"/>
        <pt x="355" y="0" on="0"/>
        <pt x="262" y="0" on="1"/>
        <pt x="69" y="0" on="1"/>
        <pt x="69" y="475" on="1"/>
      </contour>
      <contour>
        <pt x="186" y="288" on="1"/>
        <pt x="239" y="288" on="1"/>
        <pt x="268" y="288" on="0"/>
        <pt x="308" y="311" on="0"/>
        <pt x="308" y="338" on="1"/>
        <pt x="308" y="361" on="0"/>
        <pt x="275" y="387" on="0"/>
        <pt x="237" y="387" on="1"/>
        <pt x="186" y="387" on="1"/>
      </contour>
      <contour>
        <pt x="186" y="88" on="1"/>
        <pt x="240" y="88" on="1"/>
        <pt x="283" y="88" on="0"/>
        <pt x="327" y="115" on="0"/>
        <pt x="327" y="147" on="1"/>
        <pt x="327" y="168" on="0"/>
        <pt x="294" y="202" on="0"/>
        <pt x="252" y="202" on="1"/>
        <pt x="186" y="202" on="1"/>
      </contour>
    </TTGlyph>
    <TTGlyph name="C" xMin="41" yMin="-10" xMax="537" yMax="640">
      <contour>
        <pt x="372" y="86" on="1"/>
        <pt x="419" y="86" on="0"/>
        <pt x="483" y="102" on="0"/>
        <pt x="509" y="116" on="1"/>
        <pt x="535" y="24" on="1"/>
        <pt x="507" y="10" on="0"/>
        <pt x="421" y="-10" on="0"/>
        <pt x="359" y="-10" on="1"/>
        <pt x="291" y="-10" on="0"/>
        <pt x="174" y="34" on="0"/>
        <pt x="89" y="117" on="0"/>
        <pt x="41" y="238" on="0"/>
        <pt x="41" y="315" on="1"/>
        <pt x="41" y="390" on="0"/>
        <pt x="87" y="511" on="0"/>
        <pt x="172" y="595" on="0"/>
        <pt x="290" y="640" on="0"/>
        <pt x="362" y="640" on="1"/>
        <pt x="426" y="640" on="0"/>
        <pt x="508" y="618" on="0"/>
        <pt x="537" y="603" on="1"/>
        <pt x="509" y="511" on="1"/>
        <pt x="479" y="526" on="0"/>
        <pt x="417" y="544" on="0"/>
        <pt x="376" y="544" on="1"/>
        <pt x="334" y="544" on="0"/>
        <pt x="259" y="519" on="0"/>
        <pt x="204" y="464" on="0"/>
        <pt x="171" y="377" on="0"/>
        <pt x="171" y="315" on="1"/>
        <pt x="171" y="255" on="0"/>
        <pt x="203" y="168" on="0"/>
        <pt x="257" y="112" on="0"/>
        <pt x="330" y="86" on="0"/>
      </contour>
    </TTGlyph>
    <TTGlyph name="Ca.gm" xMin="-20" yMin="-10" xMax="636" yMax="588">
      <contour>
        <pt x="-20" y="588" on="1"/>
        <pt x="636" y="588" on="1"/>
        <pt x="636" y="504" on="1"/>
        <pt x="537" y="504" on="1"/>
        <pt x="537" y="299" on="1"/>
        <pt x="551" y="274" on="0"/>
        <pt x="572" y="215" on="0"/>
        <pt x="572" y="182" on="1"/>
        <pt x="572" y="134" on="0"/>
        <pt x="537" y="62" on="0"/>
        <pt x="477" y="14" on="0"/>
        <pt x="397" y="-10" on="0"/>
        <pt x="352" y="-10" on="1"/>
        <pt x="301" y="-10" on="0"/>
        <pt x="207" y="22" on="0"/>
        <pt x="135" y="89" on="0"/>
        <pt x="89" y="192" on="0"/>
        <pt x="85" y="262" on="1"/>
        <pt x="59" y="267" on="0"/>
        <pt x="22" y="300" on="0"/>
        <pt x="22" y="330" on="1"/>
        <pt x="22" y="351" on="0"/>
        <pt x="39" y="387" on="0"/>
        <pt x="70" y="414" on="0"/>
        <pt x="112" y="429" on="0"/>
        <pt x="136" y="429" on="1"/>
        <pt x="153" y="429" on="0"/>
        <pt x="181" y="420" on="0"/>
        <pt x="190" y="413" on="1"/>
        <pt x="190" y="350" on="1"/>
        <pt x="433" y="350" on="1"/>
        <pt x="433" y="504" on="1"/>
        <pt x="-20" y="504" on="1"/>
      </contour>
      <contour>
        <pt x="467" y="183" on="1"/>
        <pt x="467" y="209" on="0"/>
        <pt x="453" y="250" on="0"/>
        <pt x="444" y="266" on="1"/>
        <pt x="189" y="266" on="1"/>
        <pt x="194" y="175" on="0"/>
        <pt x="284" y="76" on="0"/>
        <pt x="352" y="76" on="1"/>
        <pt x="404" y="76" on="0"/>
        <pt x="467" y="132" on="0"/>
      </contour>
    </TTGlyph>
    <TTGlyph name="CaVirama.gm" xMin="-20" yMin="-300" xMax="636" yMax="588">
      <contour>
        <pt x="-20" y="588" on="1"/>
        <pt x="636" y="588" on="1"/>
        <pt x="636" y="504" on="1"/>
        <pt x="537" y="504" on="1"/>
        <pt x="537" y="299" on="1"/>
        <pt x="551" y="274" on="0"/>
        <pt x="572" y="215" on="0"/>
        <pt x="572" y="182" on="1"/>
        <pt x="572" y="134" on="0"/>
        <pt x="537" y="62" on="0"/>
        <pt x="477" y="14" on="0"/>
        <pt x="397" y="-10" on="0"/>
        <pt x="352" y="-10" on="1"/>
        <pt x="301" y="-10" on="0"/>
        <pt x="207" y="22" on="0"/>
        <pt x="135" y="89" on="0"/>
        <pt x="89" y="192" on="0"/>
        <pt x="85" y="262" on="1"/>
        <pt x="59" y="267" on="0"/>
        <pt x="22" y="300" on="0"/>
        <pt x="22" y="330" on="1"/>
        <pt x="22" y="351" on="0"/>
        <pt x="39" y="387" on="0"/>
        <pt x="70" y="414" on="0"/>
        <pt x="112" y="429" on="0"/>
        <pt x="136" y="429" on="1"/>
        <pt x="153" y="429" on="0"/>
        <pt x="181" y="420" on="0"/>
        <pt x="190" y="413" on="1"/>
        <pt x="190" y="350" on="1"/>
        <pt x="433" y="350" on="1"/>
        <pt x="433" y="504" on="1"/>
        <pt x="-20" y="504" on="1"/>
      </contour>
      <contour>
        <pt x="467" y="183" on="1"/>
        <pt x="467" y="209" on="0"/>
        <pt x="453" y="250" on="0"/>
        <pt x="444" y="266" on="1"/>
        <pt x="189" y="266" on="1"/>
        <pt x="194" y="175" on="0"/>
        <pt x="284" y="76" on="0"/>
        <pt x="352" y="76" on="1"/>
        <pt x="404" y="76" on="0"/>
        <pt x="467" y="132" on="0"/>
      </contour>
      <contour>
        <pt x="571" y="-235" on="1"/>
        <pt x="517" y="-300" on="1"/>
        <pt x="288" y="-133" on="1"/>
        <pt x="351" y="-53" on="1"/>
      </contour>
    </TTGlyph>
    <TTGlyph name="Cacute" xMin="41" yMin="-10" xMax="537" yMax="824">
      <contour>
        <pt x="372" y="86" on="1"/>
        <pt x="419" y="86" on="0"/>
        <pt x="483" y="102" on="0"/>
        <pt x="509" y="116" on="1"/>
        <pt x="535" y="24" on="1"/>
        <pt x="507" y="10" on="0"/>
        <pt x="421" y="-10" on="0"/>
        <pt x="359" y="-10" on="1"/>
        <pt x="291" y="-10" on="0"/>
        <pt x="174" y="34" on="0"/>
        <pt x="89" y="117" on="0"/>
        <pt x="41" y="238" on="0"/>
        <pt x="41" y="315" on="1"/>
        <pt x="41" y="390" on="0"/>
        <pt x="87" y="511" on="0"/>
        <pt x="172" y="595" on="0"/>
        <pt x="290" y="640" on="0"/>
        <pt x="362" y="640" on="1"/>
        <pt x="426" y="640" on="0"/>
        <pt x="508" y="618" on="0"/>
        <pt x="537" y="603" on="1"/>
        <pt x="509" y="511" on="1"/>
        <pt x="479" y="526" on="0"/>
        <pt x="417" y="544" on="0"/>
        <pt x="376" y="544" on="1"/>
        <pt x="334" y="544" on="0"/>
        <pt x="259" y="519" on="0"/>
        <pt x="204" y="464" on="0"/>
        <pt x="171" y="377" on="0"/>
        <pt x="171" y="315" on="1"/>
        <pt x="171" y="255" on="0"/>
        <pt x="203" y="168" on="0"/>
        <pt x="257" y="112" on="0"/>
        <pt x="330" y="86" on="0"/>
      </contour>
      <contour>
        <pt x="344" y="700" on="1"/>
        <pt x="247" y="700" on="1"/>
        <pt x="327" y="824" on="1"/>
        <pt x="457" y="824" on="1"/>
      </contour>
    </TTGlyph>
    <TTGlyph name="Ccaron" xMin="41" yMin="-10" xMax="537" yMax="829">
      <contour>
        <pt x="372" y="86" on="1"/>
        <pt x="419" y="86" on="0"/>
        <pt x="483" y="102" on="0"/>
        <pt x="509" y="116" on="1"/>
        <pt x="535" y="24" on="1"/>
        <pt x="507" y="10" on="0"/>
        <pt x="421" y="-10" on="0"/>
        <pt x="359" y="-10" on="1"/>
        <pt x="291" y="-10" on="0"/>
        <pt x="174" y="34" on="0"/>
        <pt x="89" y="117" on="0"/>
        <pt x="41" y="238" on="0"/>
        <pt x="41" y="315" on="1"/>
        <pt x="41" y="390" on="0"/>
        <pt x="87" y="511" on="0"/>
        <pt x="172" y="595" on="0"/>
        <pt x="290" y="640" on="0"/>
        <pt x="362" y="640" on="1"/>
        <pt x="426" y="640" on="0"/>
        <pt x="508" y="618" on="0"/>
        <pt x="537" y="603" on="1"/>
        <pt x="509" y="511" on="1"/>
        <pt x="479" y="526" on="0"/>
        <pt x="417" y="544" on="0"/>
        <pt x="376" y="544" on="1"/>
        <pt x="334" y="544" on="0"/>
        <pt x="259" y="519" on="0"/>
        <pt x="204" y="464" on="0"/>
        <pt x="171" y="377" on="0"/>
        <pt x="171" y="315" on="1"/>
        <pt x="171" y="255" on="0"/>
        <pt x="203" y="168" on="0"/>
        <pt x="257" y="112" on="0"/>
        <pt x="330" y="86" on="0"/>
      </contour>
      <contour>
        <pt x="181" y="829" on="1"/>
        <pt x="276" y="829" on="1"/>
        <pt x="345" y="754" on="1"/>
        <pt x="415" y="829" on="1"/>
        <pt x="507" y="829" on="1"/>
        <pt x="389" y="700" on="1"/>
        <pt x="300" y="700" on="1"/>
      </contour>
    </TTGlyph>
    <TTGlyph name="Ccedilla" xMin="41" yMin="-215" xMax="537" yMax="640">
      <contour>
        <pt x="372" y="86" on="1"/>
        <pt x="419" y="86" on="0"/>
        <pt x="483" y="102" on="0"/>
        <pt x="509" y="116" on="1"/>
        <pt x="535" y="24" on="1"/>
        <pt x="508" y="10" on="0"/>
        <pt x="427" y="-9" on="0"/>
        <pt x="369" y="-10" on="1"/>
        <pt x="355" y="-47" on="1"/>
        <pt x="400" y="-50" on="0"/>
        <pt x="442" y="-96" on="0"/>
        <pt x="442" y="-125" on="1"/>
        <pt x="442" y="-169" on="0"/>
        <pt x="373" y="-215" on="0"/>
        <pt x="322" y="-215" on="1"/>
        <pt x="298" y="-215" on="0"/>
        <pt x="256" y="-206" on="0"/>
        <pt x="243" y="-201" on="1"/>
        <pt x="258" y="-151" on="1"/>
        <pt x="283" y="-160" on="0"/>
        <pt x="310" y="-160" on="1"/>
        <pt x="364" y="-160" on="0"/>
        <pt x="364" y="-122" on="1"/>
        <pt x="364" y="-113" on="0"/>
        <pt x="357" y="-97" on="0"/>
        <pt x="338" y="-85" on="0"/>
        <pt x="305" y="-78" on="0"/>
        <pt x="278" y="-78" on="1"/>
        <pt x="307" y="-7" on="1"/>
        <pt x="249" y="1" on="0"/>
        <pt x="151" y="51" on="0"/>
        <pt x="81" y="134" on="0"/>
        <pt x="41" y="246" on="0"/>
        <pt x="41" y="315" on="1"/>
        <pt x="41" y="390" on="0"/>
        <pt x="87" y="511" on="0"/>
        <pt x="172" y="595" on="0"/>
        <pt x="290" y="640" on="0"/>
        <pt x="362" y="640" on="1"/>
        <pt x="426" y="640" on="0"/>
        <pt x="508" y="618" on="0"/>
        <pt x="537" y="603" on="1"/>
        <pt x="509" y="511" on="1"/>
        <pt x="479" y="526" on="0"/>
        <pt x="417" y="544" on="0"/>
        <pt x="376" y="544" on="1"/>
        <pt x="334" y="544" on="0"/>
        <pt x="259" y="519" on="0"/>
        <pt x="204" y="464" on="0"/>
        <pt x="171" y="377" on="0"/>
        <pt x="171" y="315" on="1"/>
        <pt x="171" y="255" on="0"/>
        <pt x="203" y="168" on="0"/>
        <pt x="257" y="112" on="0"/>
        <pt x="330" y="86" on="0"/>
      </contour>
    </TTGlyph>
    <TTGlyph name="Ccircumflex" xMin="41" yMin="-10" xMax="537" yMax="829">
      <contour>
        <pt x="372" y="86" on="1"/>
        <pt x="419" y="86" on="0"/>
        <pt x="483" y="102" on="0"/>
        <pt x="509" y="116" on="1"/>
        <pt x="535" y="24" on="1"/>
        <pt x="507" y="10" on="0"/>
        <pt x="421" y="-10" on="0"/>
        <pt x="359" y="-10" on="1"/>
        <pt x="291" y="-10" on="0"/>
        <pt x="174" y="34" on="0"/>
        <pt x="89" y="117" on="0"/>
        <pt x="41" y="238" on="0"/>
        <pt x="41" y="315" on="1"/>
        <pt x="41" y="390" on="0"/>
        <pt x="87" y="511" on="0"/>
        <pt x="172" y="595" on="0"/>
        <pt x="290" y="640" on="0"/>
        <pt x="362" y="640" on="1"/>
        <pt x="426" y="640" on="0"/>
        <pt x="508" y="618" on="0"/>
        <pt x="537" y="603" on="1"/>
        <pt x="509" y="511" on="1"/>
        <pt x="479" y="526" on="0"/>
        <pt x="417" y="544" on="0"/>
        <pt x="376" y="544" on="1"/>
        <pt x="334" y="544" on="0"/>
        <pt x="259" y="519" on="0"/>
        <pt x="204" y="464" on="0"/>
        <pt x="171" y="377" on="0"/>
        <pt x="171" y="315" on="1"/>
        <pt x="171" y="255" on="0"/>
        <pt x="203" y="168" on="0"/>
        <pt x="257" y="112" on="0"/>
        <pt x="330" y="86" on="0"/>
      </contour>
      <contour>
        <pt x="295" y="829" on="1"/>
        <pt x="384" y="829" on="1"/>
        <pt x="504" y="700" on="1"/>
        <pt x="409" y="700" on="1"/>
        <pt x="339" y="774" on="1"/>
        <pt x="269" y="700" on="1"/>
        <pt x="178" y="700" on="1"/>
      </contour>
    </TTGlyph>
    <TTGlyph name="Cdotaccent" xMin="41" yMin="-10" xMax="537" yMax="818">
      <contour>
        <pt x="372" y="86" on="1"/>
        <pt x="419" y="86" on="0"/>
        <pt x="483" y="102" on="0"/>
        <pt x="509" y="116" on="1"/>
        <pt x="535" y="24" on="1"/>
        <pt x="507" y="10" on="0"/>
        <pt x="421" y="-10" on="0"/>
        <pt x="359" y="-10" on="1"/>
        <pt x="291" y="-10" on="0"/>
        <pt x="174" y="34" on="0"/>
        <pt x="89" y="117" on="0"/>
        <pt x="41" y="238" on="0"/>
        <pt x="41" y="315" on="1"/>
        <pt x="41" y="390" on="0"/>
        <pt x="87" y="511" on="0"/>
        <pt x="172" y="595" on="0"/>
        <pt x="290" y="640" on="0"/>
        <pt x="362" y="640" on="1"/>
        <pt x="426" y="640" on="0"/>
        <pt x="508" y="618" on="0"/>
        <pt x="537" y="603" on="1"/>
        <pt x="509" y="511" on="1"/>
        <pt x="479" y="526" on="0"/>
        <pt x="417" y="544" on="0"/>
        <pt x="376" y="544" on="1"/>
        <pt x="334" y="544" on="0"/>
        <pt x="259" y="519" on="0"/>
        <pt x="204" y="464" on="0"/>
        <pt x="171" y="377" on="0"/>
        <pt x="171" y="315" on="1"/>
        <pt x="171" y="255" on="0"/>
        <pt x="203" y="168" on="0"/>
        <pt x="257" y="112" on="0"/>
        <pt x="330" y="86" on="0"/>
      </contour>
      <contour>
        <pt x="298" y="757" on="1"/>
        <pt x="298" y="782" on="0"/>
        <pt x="334" y="818" on="0"/>
        <pt x="360" y="818" on="1"/>
        <pt x="386" y="818" on="0"/>
        <pt x="421" y="782" on="0"/>
        <pt x="421" y="757" on="1"/>
        <pt x="421" y="731" on="0"/>
        <pt x="386" y="694" on="0"/>
        <pt x="360" y="694" on="1"/>
        <pt x="334" y="694" on="0"/>
        <pt x="298" y="731" on="0"/>
      </contour>
    </TTGlyph>
    <TTGlyph name="Cha.gm" xMin="-20" yMin="0" xMax="610" yMax="588">
      <contour>
        <pt x="-20" y="588" on="1"/>
        <pt x="610" y="588" on="1"/>
        <pt x="610" y="504" on="1"/>
        <pt x="512" y="504" on="1"/>
        <pt x="512" y="347" on="1"/>
        <pt x="197" y="347" on="1"/>
        <pt x="174" y="347" on="0"/>
        <pt x="150" y="326" on="0"/>
        <pt x="150" y="308" on="1"/>
        <pt x="150" y="293" on="0"/>
        <pt x="171" y="268" on="0"/>
        <pt x="194" y="266" on="1"/>
        <pt x="389" y="266" on="1"/>
        <pt x="471" y="266" on="0"/>
        <pt x="553" y="196" on="0"/>
        <pt x="553" y="135" on="1"/>
        <pt x="553" y="74" on="0"/>
        <pt x="470" y="0" on="0"/>
        <pt x="376" y="0" on="1"/>
        <pt x="234" y="0" on="1"/>
        <pt x="137" y="0" on="0"/>
        <pt x="45" y="71" on="0"/>
        <pt x="45" y="134" on="1"/>
        <pt x="45" y="165" on="0"/>
        <pt x="75" y="213" on="0"/>
        <pt x="100" y="227" on="1"/>
        <pt x="79" y="237" on="0"/>
        <pt x="45" y="281" on="0"/>
        <pt x="45" y="315" on="1"/>
        <pt x="45" y="368" on="0"/>
        <pt x="119" y="430" on="0"/>
        <pt x="182" y="430" on="1"/>
        <pt x="408" y="430" on="1"/>
        <pt x="408" y="504" on="1"/>
        <pt x="-20" y="504" on="1"/>
      </contour>
      <contour>
        <pt x="284" y="78" on="1"/>
        <pt x="280" y="127" on="0"/>
        <pt x="238" y="192" on="0"/>
        <pt x="200" y="192" on="1"/>
        <pt x="177" y="192" on="0"/>
        <pt x="146" y="164" on="0"/>
        <pt x="146" y="139" on="1"/>
        <pt x="146" y="110" on="0"/>
        <pt x="189" y="78" on="0"/>
        <pt x="231" y="78" on="1"/>
      </contour>
      <contour>
        <pt x="310" y="190" on="1"/>
        <pt x="331" y="175" on="0"/>
        <pt x="355" y="117" on="0"/>
        <pt x="358" y="78" on="1"/>
        <pt x="381" y="78" on="1"/>
        <pt x="452" y="78" on="0"/>
        <pt x="452" y="135" on="1"/>
        <pt x="452" y="158" on="0"/>
        <pt x="417" y="190" on="0"/>
        <pt x="383" y="190" on="1"/>
      </contour>
    </TTGlyph>
    <TTGlyph name="ChaVirama.gm" xMin="-20" yMin="-300" xMax="610" yMax="588">
      <contour>
        <pt x="-20" y="588" on="1"/>
        <pt x="610" y="588" on="1"/>
        <pt x="610" y="504" on="1"/>
        <pt x="512" y="504" on="1"/>
        <pt x="512" y="347" on="1"/>
        <pt x="197" y="347" on="1"/>
        <pt x="174" y="347" on="0"/>
        <pt x="150" y="326" on="0"/>
        <pt x="150" y="308" on="1"/>
        <pt x="150" y="293" on="0"/>
        <pt x="171" y="268" on="0"/>
        <pt x="194" y="266" on="1"/>
        <pt x="389" y="266" on="1"/>
        <pt x="471" y="266" on="0"/>
        <pt x="553" y="196" on="0"/>
        <pt x="553" y="135" on="1"/>
        <pt x="553" y="74" on="0"/>
        <pt x="470" y="0" on="0"/>
        <pt x="376" y="0" on="1"/>
        <pt x="234" y="0" on="1"/>
        <pt x="137" y="0" on="0"/>
        <pt x="45" y="71" on="0"/>
        <pt x="45" y="134" on="1"/>
        <pt x="45" y="165" on="0"/>
        <pt x="75" y="213" on="0"/>
        <pt x="100" y="227" on="1"/>
        <pt x="79" y="237" on="0"/>
        <pt x="45" y="281" on="0"/>
        <pt x="45" y="315" on="1"/>
        <pt x="45" y="368" on="0"/>
        <pt x="119" y="430" on="0"/>
        <pt x="182" y="430" on="1"/>
        <pt x="408" y="430" on="1"/>
        <pt x="408" y="504" on="1"/>
        <pt x="-20" y="504" on="1"/>
      </contour>
      <contour>
        <pt x="284" y="78" on="1"/>
        <pt x="280" y="127" on="0"/>
        <pt x="238" y="192" on="0"/>
        <pt x="200" y="192" on="1"/>
        <pt x="177" y="192" on="0"/>
        <pt x="146" y="164" on="0"/>
        <pt x="146" y="139" on="1"/>
        <pt x="146" y="110" on="0"/>
        <pt x="189" y="78" on="0"/>
        <pt x="231" y="78" on="1"/>
      </contour>
      <contour>
        <pt x="310" y="190" on="1"/>
        <pt x="331" y="175" on="0"/>
        <pt x="355" y="117" on="0"/>
        <pt x="358" y="78" on="1"/>
        <pt x="381" y="78" on="1"/>
        <pt x="452" y="78" on="0"/>
        <pt x="452" y="135" on="1"/>
        <pt x="452" y="158" on="0"/>
        <pt x="417" y="190" on="0"/>
        <pt x="383" y="190" on="1"/>
      </contour>
      <contour>
        <pt x="573" y="-235" on="1"/>
        <pt x="519" y="-300" on="1"/>
        <pt x="290" y="-133" on="1"/>
        <pt x="353" y="-53" on="1"/>
      </contour>
    </TTGlyph>
    <TTGlyph name="Csmall" xMin="42" yMin="-10" xMax="434" yMax="484">
      <contour>
        <pt x="312" y="78" on="1"/>
        <pt x="344" y="78" on="0"/>
        <pt x="393" y="93" on="0"/>
        <pt x="411" y="102" on="1"/>
        <pt x="434" y="19" on="1"/>
        <pt x="412" y="8" on="0"/>
        <pt x="340" y="-10" on="0"/>
        <pt x="297" y="-10" on="1"/>
        <pt x="243" y="-10" on="0"/>
        <pt x="149" y="21" on="0"/>
        <pt x="81" y="83" on="0"/>
        <pt x="42" y="175" on="0"/>
        <pt x="42" y="236" on="1"/>
        <pt x="42" y="292" on="0"/>
        <pt x="79" y="384" on="0"/>
        <pt x="146" y="449" on="0"/>
        <pt x="241" y="484" on="0"/>
        <pt x="298" y="484" on="1"/>
        <pt x="329" y="484" on="0"/>
        <pt x="395" y="472" on="0"/>
        <pt x="433" y="454" on="1"/>
        <pt x="407" y="370" on="1"/>
        <pt x="385" y="383" on="0"/>
        <pt x="336" y="397" on="0"/>
        <pt x="311" y="397" on="1"/>
        <pt x="243" y="397" on="0"/>
        <pt x="162" y="316" on="0"/>
        <pt x="162" y="239" on="1"/>
        <pt x="162" y="194" on="0"/>
        <pt x="188" y="132" on="0"/>
        <pt x="230" y="94" on="0"/>
        <pt x="284" y="78" on="0"/>
      </contour>
    </TTGlyph>
    <TTGlyph name="D" xMin="73" yMin="0" xMax="609" yMax="630">
      <contour>
        <pt x="288" y="630" on="1"/>
        <pt x="359" y="630" on="0"/>
        <pt x="477" y="592" on="0"/>
        <pt x="562" y="516" on="0"/>
        <pt x="609" y="403" on="0"/>
        <pt x="609" y="328" on="1"/>
        <pt x="609" y="241" on="0"/>
        <pt x="553" y="116" on="0"/>
        <pt x="457" y="37" on="0"/>
        <pt x="330" y="0" on="0"/>
        <pt x="258" y="0" on="1"/>
        <pt x="73" y="0" on="1"/>
        <pt x="73" y="630" on="1"/>
      </contour>
      <contour>
        <pt x="195" y="96" on="1"/>
        <pt x="249" y="96" on="1"/>
        <pt x="293" y="96" on="0"/>
        <pt x="376" y="117" on="0"/>
        <pt x="440" y="169" on="0"/>
        <pt x="479" y="259" on="0"/>
        <pt x="479" y="328" on="1"/>
        <pt x="479" y="428" on="0"/>
        <pt x="366" y="534" on="0"/>
        <pt x="270" y="534" on="1"/>
        <pt x="195" y="534" on="1"/>
      </contour>
    </TTGlyph>
    <TTGlyph name="Da.gm" xMin="-20" yMin="-10" xMax="607" yMax="588">
      <contour>
        <pt x="-20" y="588" on="1"/>
        <pt x="607" y="588" on="1"/>
        <pt x="607" y="504" on="1"/>
        <pt x="517" y="504" on="1"/>
        <pt x="517" y="255" on="1"/>
        <pt x="189" y="255" on="1"/>
        <pt x="190" y="163" on="0"/>
        <pt x="290" y="76" on="0"/>
        <pt x="370" y="76" on="1"/>
        <pt x="418" y="76" on="0"/>
        <pt x="487" y="100" on="0"/>
        <pt x="510" y="113" on="1"/>
        <pt x="549" y="42" on="1"/>
        <pt x="520" y="19" on="0"/>
        <pt x="428" y="-10" on="0"/>
        <pt x="366" y="-10" on="1"/>
        <pt x="242" y="-10" on="0"/>
        <pt x="93" y="123" on="0"/>
        <pt x="85" y="250" on="1"/>
        <pt x="56" y="254" on="0"/>
        <pt x="18" y="290" on="0"/>
        <pt x="18" y="320" on="1"/>
        <pt x="18" y="341" on="0"/>
        <pt x="36" y="377" on="0"/>
        <pt x="67" y="404" on="0"/>
        <pt x="108" y="419" on="0"/>
        <pt x="131" y="419" on="1"/>
        <pt x="168" y="419" on="0"/>
        <pt x="189" y="403" on="1"/>
        <pt x="189" y="339" on="1"/>
        <pt x="412" y="339" on="1"/>
        <pt x="412" y="504" on="1"/>
        <pt x="-20" y="504" on="1"/>
      </contour>
    </TTGlyph>
    <TTGlyph name="DaVirama.gm" xMin="-20" yMin="-298" xMax="618" yMax="588">
      <contour>
        <pt x="-20" y="588" on="1"/>
        <pt x="607" y="588" on="1"/>
        <pt x="607" y="504" on="1"/>
        <pt x="517" y="504" on="1"/>
        <pt x="517" y="255" on="1"/>
        <pt x="189" y="255" on="1"/>
        <pt x="190" y="163" on="0"/>
        <pt x="290" y="76" on="0"/>
        <pt x="370" y="76" on="1"/>
        <pt x="418" y="76" on="0"/>
        <pt x="487" y="100" on="0"/>
        <pt x="510" y="113" on="1"/>
        <pt x="549" y="42" on="1"/>
        <pt x="520" y="19" on="0"/>
        <pt x="428" y="-10" on="0"/>
        <pt x="366" y="-10" on="1"/>
        <pt x="242" y="-10" on="0"/>
        <pt x="93" y="123" on="0"/>
        <pt x="85" y="250" on="1"/>
        <pt x="56" y="254" on="0"/>
        <pt x="18" y="290" on="0"/>
        <pt x="18" y="320" on="1"/>
        <pt x="18" y="341" on="0"/>
        <pt x="36" y="377" on="0"/>
        <pt x="67" y="404" on="0"/>
        <pt x="108" y="419" on="0"/>
        <pt x="131" y="419" on="1"/>
        <pt x="168" y="419" on="0"/>
        <pt x="189" y="403" on="1"/>
        <pt x="189" y="339" on="1"/>
        <pt x="412" y="339" on="1"/>
        <pt x="412" y="504" on="1"/>
        <pt x="-20" y="504" on="1"/>
      </contour>
      <contour>
        <pt x="618" y="-233" on="1"/>
        <pt x="564" y="-298" on="1"/>
        <pt x="335" y="-131" on="1"/>
        <pt x="398" y="-51" on="1"/>
      </contour>
    </TTGlyph>
    <TTGlyph name="Danda.gm" xMin="105" yMin="0" xMax="210" yMax="593">
      <contour>
        <pt x="105" y="593" on="1"/>
        <pt x="210" y="593" on="1"/>
        <pt x="210" y="0" on="1"/>
        <pt x="105" y="0" on="1"/>
      </contour>
    </TTGlyph>
    <TTGlyph name="Dcaron" xMin="73" yMin="0" xMax="609" yMax="829">
      <contour>
        <pt x="288" y="630" on="1"/>
        <pt x="359" y="630" on="0"/>
        <pt x="477" y="592" on="0"/>
        <pt x="562" y="516" on="0"/>
        <pt x="609" y="403" on="0"/>
        <pt x="609" y="328" on="1"/>
        <pt x="609" y="241" on="0"/>
        <pt x="553" y="116" on="0"/>
        <pt x="457" y="37" on="0"/>
        <pt x="330" y="0" on="0"/>
        <pt x="258" y="0" on="1"/>
        <pt x="73" y="0" on="1"/>
        <pt x="73" y="630" on="1"/>
      </contour>
      <contour>
        <pt x="195" y="96" on="1"/>
        <pt x="249" y="96" on="1"/>
        <pt x="293" y="96" on="0"/>
        <pt x="376" y="117" on="0"/>
        <pt x="440" y="169" on="0"/>
        <pt x="479" y="259" on="0"/>
        <pt x="479" y="328" on="1"/>
        <pt x="479" y="428" on="0"/>
        <pt x="366" y="534" on="0"/>
        <pt x="270" y="534" on="1"/>
        <pt x="195" y="534" on="1"/>
      </contour>
      <contour>
        <pt x="130" y="829" on="1"/>
        <pt x="223" y="829" on="1"/>
        <pt x="293" y="755" on="1"/>
        <pt x="363" y="829" on="1"/>
        <pt x="456" y="829" on="1"/>
        <pt x="338" y="700" on="1"/>
        <pt x="249" y="700" on="1"/>
      </contour>
    </TTGlyph>
    <TTGlyph name="Dcroat" xMin="25" yMin="0" xMax="644" yMax="630">
      <contour>
        <pt x="323" y="630" on="1"/>
        <pt x="394" y="630" on="0"/>
        <pt x="512" y="592" on="0"/>
        <pt x="597" y="516" on="0"/>
        <pt x="644" y="403" on="0"/>
        <pt x="644" y="328" on="1"/>
        <pt x="644" y="241" on="0"/>
        <pt x="588" y="116" on="0"/>
        <pt x="492" y="37" on="0"/>
        <pt x="365" y="0" on="0"/>
        <pt x="293" y="0" on="1"/>
        <pt x="108" y="0" on="1"/>
        <pt x="108" y="283" on="1"/>
        <pt x="25" y="283" on="1"/>
        <pt x="25" y="365" on="1"/>
        <pt x="108" y="365" on="1"/>
        <pt x="108" y="630" on="1"/>
      </contour>
      <contour>
        <pt x="350" y="365" on="1"/>
        <pt x="350" y="283" on="1"/>
        <pt x="230" y="283" on="1"/>
        <pt x="230" y="96" on="1"/>
        <pt x="284" y="96" on="1"/>
        <pt x="328" y="96" on="0"/>
        <pt x="411" y="117" on="0"/>
        <pt x="475" y="169" on="0"/>
        <pt x="514" y="259" on="0"/>
        <pt x="514" y="328" on="1"/>
        <pt x="514" y="428" on="0"/>
        <pt x="401" y="534" on="0"/>
        <pt x="305" y="534" on="1"/>
        <pt x="230" y="534" on="1"/>
        <pt x="230" y="365" on="1"/>
      </contour>
    </TTGlyph>
    <TTGlyph name="Dda.gm" xMin="-20" yMin="-12" xMax="583" yMax="588">
      <contour>
        <pt x="-20" y="588" on="1"/>
        <pt x="583" y="588" on="1"/>
        <pt x="583" y="504" on="1"/>
        <pt x="504" y="504" on="1"/>
        <pt x="498" y="452" on="0"/>
        <pt x="453" y="367" on="0"/>
        <pt x="424" y="341" on="1"/>
        <pt x="464" y="317" on="0"/>
        <pt x="512" y="239" on="0"/>
        <pt x="512" y="188" on="1"/>
        <pt x="512" y="140" on="0"/>
        <pt x="470" y="65" on="0"/>
        <pt x="400" y="14" on="0"/>
        <pt x="306" y="-12" on="0"/>
        <pt x="254" y="-12" on="1"/>
        <pt x="206" y="-12" on="0"/>
        <pt x="124" y="8" on="0"/>
        <pt x="64" y="44" on="0"/>
        <pt x="29" y="95" on="0"/>
        <pt x="29" y="126" on="1"/>
        <pt x="29" y="174" on="0"/>
        <pt x="98" y="236" on="0"/>
        <pt x="157" y="236" on="1"/>
        <pt x="196" y="236" on="0"/>
        <pt x="262" y="215" on="0"/>
        <pt x="316" y="181" on="0"/>
        <pt x="359" y="137" on="0"/>
        <pt x="374" y="114" on="1"/>
        <pt x="407" y="145" on="0"/>
        <pt x="407" y="194" on="1"/>
        <pt x="407" y="234" on="0"/>
        <pt x="361" y="289" on="0"/>
        <pt x="333" y="300" on="1"/>
        <pt x="307" y="294" on="0"/>
        <pt x="242" y="287" on="0"/>
        <pt x="200" y="287" on="1"/>
        <pt x="134" y="287" on="0"/>
        <pt x="76" y="317" on="0"/>
        <pt x="76" y="348" on="1"/>
        <pt x="76" y="359" on="0"/>
        <pt x="85" y="383" on="0"/>
        <pt x="90" y="391" on="1"/>
        <pt x="344" y="391" on="1"/>
        <pt x="363" y="408" on="0"/>
        <pt x="392" y="471" on="0"/>
        <pt x="397" y="504" on="1"/>
        <pt x="-20" y="504" on="1"/>
      </contour>
      <contour>
        <pt x="245" y="70" on="1"/>
        <pt x="277" y="70" on="0"/>
        <pt x="304" y="77" on="1"/>
        <pt x="277" y="115" on="0"/>
        <pt x="215" y="158" on="0"/>
        <pt x="176" y="158" on="1"/>
        <pt x="155" y="158" on="0"/>
        <pt x="134" y="138" on="0"/>
        <pt x="134" y="124" on="1"/>
        <pt x="134" y="101" on="0"/>
        <pt x="196" y="70" on="0"/>
      </contour>
    </TTGlyph>
    <TTGlyph name="DdaVirama.gm" xMin="-20" yMin="-300" xMax="583" yMax="588">
      <contour>
        <pt x="-20" y="588" on="1"/>
        <pt x="583" y="588" on="1"/>
        <pt x="583" y="504" on="1"/>
        <pt x="504" y="504" on="1"/>
        <pt x="498" y="452" on="0"/>
        <pt x="453" y="367" on="0"/>
        <pt x="424" y="341" on="1"/>
        <pt x="464" y="317" on="0"/>
        <pt x="512" y="239" on="0"/>
        <pt x="512" y="188" on="1"/>
        <pt x="512" y="140" on="0"/>
        <pt x="470" y="65" on="0"/>
        <pt x="400" y="14" on="0"/>
        <pt x="306" y="-12" on="0"/>
        <pt x="254" y="-12" on="1"/>
        <pt x="206" y="-12" on="0"/>
        <pt x="124" y="8" on="0"/>
        <pt x="64" y="44" on="0"/>
        <pt x="29" y="95" on="0"/>
        <pt x="29" y="126" on="1"/>
        <pt x="29" y="174" on="0"/>
        <pt x="98" y="236" on="0"/>
        <pt x="157" y="236" on="1"/>
        <pt x="196" y="236" on="0"/>
        <pt x="262" y="215" on="0"/>
        <pt x="316" y="181" on="0"/>
        <pt x="359" y="137" on="0"/>
        <pt x="374" y="114" on="1"/>
        <pt x="407" y="145" on="0"/>
        <pt x="407" y="194" on="1"/>
        <pt x="407" y="234" on="0"/>
        <pt x="361" y="289" on="0"/>
        <pt x="333" y="300" on="1"/>
        <pt x="307" y="294" on="0"/>
        <pt x="242" y="287" on="0"/>
        <pt x="200" y="287" on="1"/>
        <pt x="134" y="287" on="0"/>
        <pt x="76" y="317" on="0"/>
        <pt x="76" y="348" on="1"/>
        <pt x="76" y="359" on="0"/>
        <pt x="85" y="383" on="0"/>
        <pt x="90" y="391" on="1"/>
        <pt x="344" y="391" on="1"/>
        <pt x="363" y="408" on="0"/>
        <pt x="392" y="471" on="0"/>
        <pt x="397" y="504" on="1"/>
        <pt x="-20" y="504" on="1"/>
      </contour>
      <contour>
        <pt x="245" y="70" on="1"/>
        <pt x="277" y="70" on="0"/>
        <pt x="304" y="77" on="1"/>
        <pt x="277" y="115" on="0"/>
        <pt x="215" y="158" on="0"/>
        <pt x="176" y="158" on="1"/>
        <pt x="155" y="158" on="0"/>
        <pt x="134" y="138" on="0"/>
        <pt x="134" y="124" on="1"/>
        <pt x="134" y="101" on="0"/>
        <pt x="196" y="70" on="0"/>
      </contour>
      <contour>
        <pt x="562" y="-235" on="1"/>
        <pt x="508" y="-300" on="1"/>
        <pt x="279" y="-133" on="1"/>
        <pt x="342" y="-53" on="1"/>
      </contour>
    </TTGlyph>
    <TTGlyph name="Ddha.gm" xMin="-20" yMin="-12" xMax="625" yMax="588">
      <contour>
        <pt x="-20" y="588" on="1"/>
        <pt x="625" y="588" on="1"/>
        <pt x="625" y="504" on="1"/>
        <pt x="533" y="504" on="1"/>
        <pt x="533" y="289" on="1"/>
        <pt x="178" y="289" on="1"/>
        <pt x="181" y="233" on="0"/>
        <pt x="214" y="160" on="0"/>
        <pt x="237" y="137" on="1"/>
        <pt x="273" y="181" on="0"/>
        <pt x="371" y="227" on="0"/>
        <pt x="421" y="227" on="1"/>
        <pt x="493" y="227" on="0"/>
        <pt x="561" y="163" on="0"/>
        <pt x="561" y="115" on="1"/>
        <pt x="561" y="61" on="0"/>
        <pt x="472" y="-12" on="0"/>
        <pt x="388" y="-12" on="1"/>
        <pt x="332" y="-12" on="0"/>
        <pt x="224" y="24" on="0"/>
        <pt x="138" y="97" on="0"/>
        <pt x="82" y="209" on="0"/>
        <pt x="79" y="284" on="1"/>
        <pt x="51" y="286" on="0"/>
        <pt x="16" y="317" on="0"/>
        <pt x="16" y="348" on="1"/>
        <pt x="16" y="368" on="0"/>
        <pt x="33" y="403" on="0"/>
        <pt x="62" y="428" on="0"/>
        <pt x="100" y="443" on="0"/>
        <pt x="122" y="443" on="1"/>
        <pt x="158" y="443" on="0"/>
        <pt x="178" y="430" on="1"/>
        <pt x="178" y="374" on="1"/>
        <pt x="431" y="374" on="1"/>
        <pt x="431" y="504" on="1"/>
        <pt x="-20" y="504" on="1"/>
      </contour>
      <contour>
        <pt x="413" y="149" on="1"/>
        <pt x="385" y="149" on="0"/>
        <pt x="328" y="121" on="0"/>
        <pt x="302" y="90" on="1"/>
        <pt x="319" y="82" on="0"/>
        <pt x="359" y="70" on="0"/>
        <pt x="387" y="70" on="1"/>
        <pt x="422" y="70" on="0"/>
        <pt x="460" y="95" on="0"/>
        <pt x="460" y="115" on="1"/>
        <pt x="460" y="129" on="0"/>
        <pt x="437" y="149" on="0"/>
      </contour>
    </TTGlyph>
    <TTGlyph name="DdhaVirama.gm" xMin="-20" yMin="-300" xMax="625" yMax="588">
      <contour>
        <pt x="-20" y="588" on="1"/>
        <pt x="625" y="588" on="1"/>
        <pt x="625" y="504" on="1"/>
        <pt x="533" y="504" on="1"/>
        <pt x="533" y="289" on="1"/>
        <pt x="178" y="289" on="1"/>
        <pt x="181" y="233" on="0"/>
        <pt x="214" y="160" on="0"/>
        <pt x="237" y="137" on="1"/>
        <pt x="273" y="181" on="0"/>
        <pt x="371" y="227" on="0"/>
        <pt x="421" y="227" on="1"/>
        <pt x="493" y="227" on="0"/>
        <pt x="561" y="163" on="0"/>
        <pt x="561" y="115" on="1"/>
        <pt x="561" y="61" on="0"/>
        <pt x="472" y="-12" on="0"/>
        <pt x="388" y="-12" on="1"/>
        <pt x="332" y="-12" on="0"/>
        <pt x="224" y="24" on="0"/>
        <pt x="138" y="97" on="0"/>
        <pt x="82" y="209" on="0"/>
        <pt x="79" y="284" on="1"/>
        <pt x="51" y="286" on="0"/>
        <pt x="16" y="317" on="0"/>
        <pt x="16" y="348" on="1"/>
        <pt x="16" y="368" on="0"/>
        <pt x="33" y="403" on="0"/>
        <pt x="62" y="428" on="0"/>
        <pt x="100" y="443" on="0"/>
        <pt x="122" y="443" on="1"/>
        <pt x="158" y="443" on="0"/>
        <pt x="178" y="430" on="1"/>
        <pt x="178" y="374" on="1"/>
        <pt x="431" y="374" on="1"/>
        <pt x="431" y="504" on="1"/>
        <pt x="-20" y="504" on="1"/>
      </contour>
      <contour>
        <pt x="413" y="149" on="1"/>
        <pt x="385" y="149" on="0"/>
        <pt x="328" y="121" on="0"/>
        <pt x="302" y="90" on="1"/>
        <pt x="319" y="82" on="0"/>
        <pt x="359" y="70" on="0"/>
        <pt x="387" y="70" on="1"/>
        <pt x="422" y="70" on="0"/>
        <pt x="460" y="95" on="0"/>
        <pt x="460" y="115" on="1"/>
        <pt x="460" y="129" on="0"/>
        <pt x="437" y="149" on="0"/>
      </contour>
      <contour>
        <pt x="615" y="-235" on="1"/>
        <pt x="561" y="-300" on="1"/>
        <pt x="332" y="-133" on="1"/>
        <pt x="395" y="-53" on="1"/>
      </contour>
    </TTGlyph>
    <TTGlyph name="Dha.gm" xMin="-30" yMin="0" xMax="601" yMax="588">
      <contour>
        <pt x="-30" y="588" on="1"/>
        <pt x="601" y="588" on="1"/>
        <pt x="601" y="504" on="1"/>
        <pt x="507" y="504" on="1"/>
        <pt x="507" y="0" on="1"/>
        <pt x="401" y="0" on="1"/>
        <pt x="401" y="123" on="1"/>
        <pt x="378" y="111" on="0"/>
        <pt x="318" y="95" on="0"/>
        <pt x="276" y="95" on="1"/>
        <pt x="195" y="95" on="0"/>
        <pt x="74" y="166" on="0"/>
        <pt x="39" y="230" on="1"/>
        <pt x="65" y="275" on="0"/>
        <pt x="95" y="362" on="0"/>
        <pt x="95" y="412" on="1"/>
        <pt x="95" y="442" on="0"/>
        <pt x="88" y="487" on="0"/>
        <pt x="81" y="504" on="1"/>
        <pt x="-30" y="504" on="1"/>
      </contour>
      <contour>
        <pt x="280" y="180" on="1"/>
        <pt x="318" y="180" on="0"/>
        <pt x="378" y="201" on="0"/>
        <pt x="401" y="220" on="1"/>
        <pt x="401" y="504" on="1"/>
        <pt x="186" y="504" on="1"/>
        <pt x="192" y="481" on="0"/>
        <pt x="200" y="434" on="0"/>
        <pt x="200" y="411" on="1"/>
        <pt x="200" y="360" on="0"/>
        <pt x="176" y="276" on="0"/>
        <pt x="154" y="236" on="1"/>
        <pt x="171" y="210" on="0"/>
        <pt x="238" y="180" on="0"/>
      </contour>
    </TTGlyph>
    <TTGlyph name="DhaVirama.gm" xMin="-30" yMin="-300" xMax="681" yMax="588">
      <contour>
        <pt x="-30" y="588" on="1"/>
        <pt x="601" y="588" on="1"/>
        <pt x="601" y="504" on="1"/>
        <pt x="507" y="504" on="1"/>
        <pt x="507" y="0" on="1"/>
        <pt x="401" y="0" on="1"/>
        <pt x="401" y="123" on="1"/>
        <pt x="378" y="111" on="0"/>
        <pt x="318" y="95" on="0"/>
        <pt x="276" y="95" on="1"/>
        <pt x="195" y="95" on="0"/>
        <pt x="74" y="166" on="0"/>
        <pt x="39" y="230" on="1"/>
        <pt x="65" y="275" on="0"/>
        <pt x="95" y="362" on="0"/>
        <pt x="95" y="412" on="1"/>
        <pt x="95" y="442" on="0"/>
        <pt x="88" y="487" on="0"/>
        <pt x="81" y="504" on="1"/>
        <pt x="-30" y="504" on="1"/>
      </contour>
      <contour>
        <pt x="280" y="180" on="1"/>
        <pt x="318" y="180" on="0"/>
        <pt x="378" y="201" on="0"/>
        <pt x="401" y="220" on="1"/>
        <pt x="401" y="504" on="1"/>
        <pt x="186" y="504" on="1"/>
        <pt x="192" y="481" on="0"/>
        <pt x="200" y="434" on="0"/>
        <pt x="200" y="411" on="1"/>
        <pt x="200" y="360" on="0"/>
        <pt x="176" y="276" on="0"/>
        <pt x="154" y="236" on="1"/>
        <pt x="171" y="210" on="0"/>
        <pt x="238" y="180" on="0"/>
      </contour>
      <contour>
        <pt x="681" y="-235" on="1"/>
        <pt x="627" y="-300" on="1"/>
        <pt x="398" y="-133" on="1"/>
        <pt x="461" y="-53" on="1"/>
      </contour>
    </TTGlyph>
    <TTGlyph name="Dottedcircle" xMin="10" yMin="-30" xMax="667" yMax="627">
      <contour>
        <pt x="310" y="-2" on="1"/>
        <pt x="310" y="10" on="0"/>
        <pt x="326" y="27" on="0"/>
        <pt x="338" y="27" on="1"/>
        <pt x="350" y="27" on="0"/>
        <pt x="367" y="10" on="0"/>
        <pt x="367" y="-2" on="1"/>
        <pt x="367" y="-14" on="0"/>
        <pt x="350" y="-30" on="0"/>
        <pt x="338" y="-30" on="1"/>
        <pt x="326" y="-30" on="0"/>
        <pt x="310" y="-14" on="0"/>
      </contour>
      <contour>
        <pt x="310" y="598" on="1"/>
        <pt x="310" y="610" on="0"/>
        <pt x="326" y="627" on="0"/>
        <pt x="338" y="627" on="1"/>
        <pt x="350" y="627" on="0"/>
        <pt x="367" y="610" on="0"/>
        <pt x="367" y="598" on="1"/>
        <pt x="367" y="586" on="0"/>
        <pt x="350" y="570" on="0"/>
        <pt x="338" y="570" on="1"/>
        <pt x="326" y="570" on="0"/>
        <pt x="310" y="586" on="0"/>
      </contour>
      <contour>
        <pt x="10" y="298" on="1"/>
        <pt x="10" y="310" on="0"/>
        <pt x="26" y="327" on="0"/>
        <pt x="38" y="327" on="1"/>
        <pt x="50" y="327" on="0"/>
        <pt x="67" y="310" on="0"/>
        <pt x="67" y="298" on="1"/>
        <pt x="67" y="286" on="0"/>
        <pt x="50" y="270" on="0"/>
        <pt x="38" y="270" on="1"/>
        <pt x="26" y="270" on="0"/>
        <pt x="10" y="286" on="0"/>
      </contour>
      <contour>
        <pt x="610" y="298" on="1"/>
        <pt x="610" y="310" on="0"/>
        <pt x="626" y="327" on="0"/>
        <pt x="638" y="327" on="1"/>
        <pt x="650" y="327" on="0"/>
        <pt x="667" y="310" on="0"/>
        <pt x="667" y="298" on="1"/>
        <pt x="667" y="286" on="0"/>
        <pt x="650" y="270" on="0"/>
        <pt x="638" y="270" on="1"/>
        <pt x="626" y="270" on="0"/>
        <pt x="610" y="286" on="0"/>
      </contour>
      <contour>
        <pt x="110" y="498" on="1"/>
        <pt x="110" y="510" on="0"/>
        <pt x="126" y="527" on="0"/>
        <pt x="138" y="527" on="1"/>
        <pt x="150" y="527" on="0"/>
        <pt x="167" y="510" on="0"/>
        <pt x="167" y="498" on="1"/>
        <pt x="167" y="486" on="0"/>
        <pt x="150" y="470" on="0"/>
        <pt x="138" y="470" on="1"/>
        <pt x="126" y="470" on="0"/>
        <pt x="110" y="486" on="0"/>
      </contour>
      <contour>
        <pt x="110" y="98" on="1"/>
        <pt x="110" y="110" on="0"/>
        <pt x="126" y="127" on="0"/>
        <pt x="138" y="127" on="1"/>
        <pt x="150" y="127" on="0"/>
        <pt x="167" y="110" on="0"/>
        <pt x="167" y="98" on="1"/>
        <pt x="167" y="86" on="0"/>
        <pt x="150" y="70" on="0"/>
        <pt x="138" y="70" on="1"/>
        <pt x="126" y="70" on="0"/>
        <pt x="110" y="86" on="0"/>
      </contour>
      <contour>
        <pt x="510" y="98" on="1"/>
        <pt x="510" y="110" on="0"/>
        <pt x="526" y="127" on="0"/>
        <pt x="538" y="127" on="1"/>
        <pt x="550" y="127" on="0"/>
        <pt x="567" y="110" on="0"/>
        <pt x="567" y="98" on="1"/>
        <pt x="567" y="86" on="0"/>
        <pt x="550" y="70" on="0"/>
        <pt x="538" y="70" on="1"/>
        <pt x="526" y="70" on="0"/>
        <pt x="510" y="86" on="0"/>
      </contour>
      <contour>
        <pt x="510" y="498" on="1"/>
        <pt x="510" y="510" on="0"/>
        <pt x="526" y="527" on="0"/>
        <pt x="538" y="527" on="1"/>
        <pt x="550" y="527" on="0"/>
        <pt x="567" y="510" on="0"/>
        <pt x="567" y="498" on="1"/>
        <pt x="567" y="486" on="0"/>
        <pt x="550" y="470" on="0"/>
        <pt x="538" y="470" on="1"/>
        <pt x="526" y="470" on="0"/>
        <pt x="510" y="486" on="0"/>
      </contour>
    </TTGlyph>
    <TTGlyph name="Doubledanda.gm" xMin="110" yMin="0" xMax="435" yMax="593">
      <contour>
        <pt x="110" y="593" on="1"/>
        <pt x="216" y="593" on="1"/>
        <pt x="216" y="0" on="1"/>
        <pt x="110" y="0" on="1"/>
      </contour>
      <contour>
        <pt x="329" y="593" on="1"/>
        <pt x="435" y="593" on="1"/>
        <pt x="435" y="0" on="1"/>
        <pt x="329" y="0" on="1"/>
      </contour>
    </TTGlyph>
    <TTGlyph name="Dsmall" xMin="69" yMin="0" xMax="504" yMax="475">
      <contour>
        <pt x="252" y="475" on="1"/>
        <pt x="302" y="475" on="0"/>
        <pt x="394" y="450" on="0"/>
        <pt x="463" y="395" on="0"/>
        <pt x="504" y="309" on="0"/>
        <pt x="504" y="248" on="1"/>
        <pt x="504" y="182" on="0"/>
        <pt x="463" y="88" on="0"/>
        <pt x="393" y="28" on="0"/>
        <pt x="296" y="0" on="0"/>
        <pt x="241" y="0" on="1"/>
        <pt x="69" y="0" on="1"/>
        <pt x="69" y="475" on="1"/>
      </contour>
      <contour>
        <pt x="187" y="89" on="1"/>
        <pt x="226" y="89" on="1"/>
        <pt x="251" y="89" on="0"/>
        <pt x="306" y="100" on="0"/>
        <pt x="353" y="134" on="0"/>
        <pt x="384" y="195" on="0"/>
        <pt x="384" y="245" on="1"/>
        <pt x="384" y="314" on="0"/>
        <pt x="304" y="386" on="0"/>
        <pt x="226" y="386" on="1"/>
        <pt x="187" y="386" on="1"/>
      </contour>
    </TTGlyph>
    <TTGlyph name="E" xMin="73" yMin="0" xMax="476" yMax="630">
      <contour>
        <pt x="73" y="630" on="1"/>
        <pt x="473" y="630" on="1"/>
        <pt x="473" y="534" on="1"/>
        <pt x="195" y="534" on="1"/>
        <pt x="195" y="375" on="1"/>
        <pt x="447" y="375" on="1"/>
        <pt x="447" y="280" on="1"/>
        <pt x="195" y="280" on="1"/>
        <pt x="195" y="96" on="1"/>
        <pt x="476" y="96" on="1"/>
        <pt x="476" y="0" on="1"/>
        <pt x="73" y="0" on="1"/>
      </contour>
    </TTGlyph>
    <TTGlyph name="Eacute" xMin="73" yMin="0" xMax="476" yMax="824">
      <contour>
        <pt x="73" y="630" on="1"/>
        <pt x="473" y="630" on="1"/>
        <pt x="473" y="534" on="1"/>
        <pt x="195" y="534" on="1"/>
        <pt x="195" y="375" on="1"/>
        <pt x="447" y="375" on="1"/>
        <pt x="447" y="280" on="1"/>
        <pt x="195" y="280" on="1"/>
        <pt x="195" y="96" on="1"/>
        <pt x="476" y="96" on="1"/>
        <pt x="476" y="0" on="1"/>
        <pt x="73" y="0" on="1"/>
      </contour>
      <contour>
        <pt x="278" y="700" on="1"/>
        <pt x="181" y="700" on="1"/>
        <pt x="261" y="824" on="1"/>
        <pt x="391" y="824" on="1"/>
      </contour>
    </TTGlyph>
    <TTGlyph name="Ebreve" xMin="73" yMin="0" xMax="476" yMax="830">
      <contour>
        <pt x="73" y="630" on="1"/>
        <pt x="473" y="630" on="1"/>
        <pt x="473" y="534" on="1"/>
        <pt x="195" y="534" on="1"/>
        <pt x="195" y="375" on="1"/>
        <pt x="447" y="375" on="1"/>
        <pt x="447" y="280" on="1"/>
        <pt x="195" y="280" on="1"/>
        <pt x="195" y="96" on="1"/>
        <pt x="476" y="96" on="1"/>
        <pt x="476" y="0" on="1"/>
        <pt x="73" y="0" on="1"/>
      </contour>
      <contour>
        <pt x="218" y="830" on="1"/>
        <pt x="220" y="802" on="0"/>
        <pt x="246" y="770" on="0"/>
        <pt x="280" y="770" on="1"/>
        <pt x="337" y="770" on="0"/>
        <pt x="342" y="830" on="1"/>
        <pt x="414" y="830" on="1"/>
        <pt x="414" y="772" on="0"/>
        <pt x="345" y="703" on="0"/>
        <pt x="280" y="703" on="1"/>
        <pt x="244" y="703" on="0"/>
        <pt x="193" y="724" on="0"/>
        <pt x="160" y="759" on="0"/>
        <pt x="145" y="805" on="0"/>
        <pt x="145" y="830" on="1"/>
      </contour>
    </TTGlyph>
    <TTGlyph name="Ecaron" xMin="73" yMin="0" xMax="476" yMax="829">
      <contour>
        <pt x="73" y="630" on="1"/>
        <pt x="473" y="630" on="1"/>
        <pt x="473" y="534" on="1"/>
        <pt x="195" y="534" on="1"/>
        <pt x="195" y="375" on="1"/>
        <pt x="447" y="375" on="1"/>
        <pt x="447" y="280" on="1"/>
        <pt x="195" y="280" on="1"/>
        <pt x="195" y="96" on="1"/>
        <pt x="476" y="96" on="1"/>
        <pt x="476" y="0" on="1"/>
        <pt x="73" y="0" on="1"/>
      </contour>
      <contour>
        <pt x="324" y="700" on="1"/>
        <pt x="235" y="700" on="1"/>
        <pt x="117" y="829" on="1"/>
        <pt x="212" y="829" on="1"/>
        <pt x="281" y="754" on="1"/>
        <pt x="350" y="829" on="1"/>
        <pt x="443" y="829" on="1"/>
      </contour>
    </TTGlyph>
    <TTGlyph name="Ecircumflex" xMin="73" yMin="0" xMax="476" yMax="829">
      <contour>
        <pt x="73" y="630" on="1"/>
        <pt x="473" y="630" on="1"/>
        <pt x="473" y="534" on="1"/>
        <pt x="195" y="534" on="1"/>
        <pt x="195" y="375" on="1"/>
        <pt x="447" y="375" on="1"/>
        <pt x="447" y="280" on="1"/>
        <pt x="195" y="280" on="1"/>
        <pt x="195" y="96" on="1"/>
        <pt x="476" y="96" on="1"/>
        <pt x="476" y="0" on="1"/>
        <pt x="73" y="0" on="1"/>
      </contour>
      <contour>
        <pt x="221" y="829" on="1"/>
        <pt x="310" y="829" on="1"/>
        <pt x="430" y="700" on="1"/>
        <pt x="335" y="700" on="1"/>
        <pt x="265" y="774" on="1"/>
        <pt x="195" y="700" on="1"/>
        <pt x="104" y="700" on="1"/>
      </contour>
    </TTGlyph>
    <TTGlyph name="Edieresis" xMin="73" yMin="0" xMax="476" yMax="812">
      <contour>
        <pt x="73" y="630" on="1"/>
        <pt x="473" y="630" on="1"/>
        <pt x="473" y="534" on="1"/>
        <pt x="195" y="534" on="1"/>
        <pt x="195" y="375" on="1"/>
        <pt x="447" y="375" on="1"/>
        <pt x="447" y="280" on="1"/>
        <pt x="195" y="280" on="1"/>
        <pt x="195" y="96" on="1"/>
        <pt x="476" y="96" on="1"/>
        <pt x="476" y="0" on="1"/>
        <pt x="73" y="0" on="1"/>
      </contour>
      <contour>
        <pt x="121" y="754" on="1"/>
        <pt x="121" y="777" on="0"/>
        <pt x="156" y="812" on="0"/>
        <pt x="180" y="812" on="1"/>
        <pt x="205" y="812" on="0"/>
        <pt x="239" y="777" on="0"/>
        <pt x="239" y="754" on="1"/>
        <pt x="239" y="729" on="0"/>
        <pt x="205" y="694" on="0"/>
        <pt x="180" y="694" on="1"/>
        <pt x="156" y="694" on="0"/>
        <pt x="121" y="729" on="0"/>
      </contour>
      <contour>
        <pt x="307" y="754" on="1"/>
        <pt x="307" y="777" on="0"/>
        <pt x="341" y="812" on="0"/>
        <pt x="366" y="812" on="1"/>
        <pt x="390" y="812" on="0"/>
        <pt x="424" y="777" on="0"/>
        <pt x="424" y="754" on="1"/>
        <pt x="424" y="729" on="0"/>
        <pt x="390" y="694" on="0"/>
        <pt x="366" y="694" on="1"/>
        <pt x="341" y="694" on="0"/>
        <pt x="307" y="729" on="0"/>
      </contour>
    </TTGlyph>
    <TTGlyph name="Edotaccent" xMin="73" yMin="0" xMax="476" yMax="818">
      <contour>
        <pt x="73" y="630" on="1"/>
        <pt x="473" y="630" on="1"/>
        <pt x="473" y="534" on="1"/>
        <pt x="195" y="534" on="1"/>
        <pt x="195" y="375" on="1"/>
        <pt x="447" y="375" on="1"/>
        <pt x="447" y="280" on="1"/>
        <pt x="195" y="280" on="1"/>
        <pt x="195" y="96" on="1"/>
        <pt x="476" y="96" on="1"/>
        <pt x="476" y="0" on="1"/>
        <pt x="73" y="0" on="1"/>
      </contour>
      <contour>
        <pt x="221" y="757" on="1"/>
        <pt x="221" y="782" on="0"/>
        <pt x="258" y="818" on="0"/>
        <pt x="283" y="818" on="1"/>
        <pt x="309" y="818" on="0"/>
        <pt x="345" y="782" on="0"/>
        <pt x="345" y="757" on="1"/>
        <pt x="345" y="731" on="0"/>
        <pt x="309" y="694" on="0"/>
        <pt x="283" y="694" on="1"/>
        <pt x="258" y="694" on="0"/>
        <pt x="221" y="731" on="0"/>
      </contour>
    </TTGlyph>
    <TTGlyph name="Egrave" xMin="73" yMin="0" xMax="476" yMax="824">
      <contour>
        <pt x="73" y="630" on="1"/>
        <pt x="473" y="630" on="1"/>
        <pt x="473" y="534" on="1"/>
        <pt x="195" y="534" on="1"/>
        <pt x="195" y="375" on="1"/>
        <pt x="447" y="375" on="1"/>
        <pt x="447" y="280" on="1"/>
        <pt x="195" y="280" on="1"/>
        <pt x="195" y="96" on="1"/>
        <pt x="476" y="96" on="1"/>
        <pt x="476" y="0" on="1"/>
        <pt x="73" y="0" on="1"/>
      </contour>
      <contour>
        <pt x="165" y="824" on="1"/>
        <pt x="295" y="824" on="1"/>
        <pt x="375" y="700" on="1"/>
        <pt x="278" y="700" on="1"/>
      </contour>
    </TTGlyph>
    <TTGlyph name="Eight.gm" xMin="17" yMin="-3" xMax="554" yMax="549">
      <contour>
        <pt x="554" y="43" on="1"/>
        <pt x="527" y="23" on="0"/>
        <pt x="453" y="-3" on="0"/>
        <pt x="393" y="-3" on="1"/>
        <pt x="324" y="-3" on="0"/>
        <pt x="210" y="40" on="0"/>
        <pt x="128" y="130" on="0"/>
        <pt x="83" y="268" on="0"/>
        <pt x="83" y="363" on="1"/>
        <pt x="83" y="381" on="1"/>
        <pt x="53" y="385" on="0"/>
        <pt x="17" y="420" on="0"/>
        <pt x="17" y="449" on="1"/>
        <pt x="17" y="470" on="0"/>
        <pt x="35" y="507" on="0"/>
        <pt x="66" y="534" on="0"/>
        <pt x="107" y="549" on="0"/>
        <pt x="130" y="549" on="1"/>
        <pt x="151" y="549" on="0"/>
        <pt x="181" y="539" on="0"/>
        <pt x="189" y="533" on="1"/>
        <pt x="189" y="466" on="1"/>
        <pt x="525" y="466" on="1"/>
        <pt x="525" y="379" on="1"/>
        <pt x="188" y="379" on="1"/>
        <pt x="188" y="363" on="1"/>
        <pt x="188" y="282" on="0"/>
        <pt x="223" y="175" on="0"/>
        <pt x="281" y="110" on="0"/>
        <pt x="356" y="84" on="0"/>
        <pt x="397" y="84" on="1"/>
        <pt x="439" y="84" on="0"/>
        <pt x="493" y="104" on="0"/>
        <pt x="511" y="115" on="1"/>
      </contour>
    </TTGlyph>
    <TTGlyph name="EkOnkar.gm" xMin="34" yMin="-6" xMax="1353" yMax="885">
      <contour>
        <pt x="932" y="631" on="1"/>
        <pt x="917" y="674" on="0"/>
        <pt x="848" y="726" on="0"/>
        <pt x="797" y="726" on="1"/>
        <pt x="765" y="726" on="0"/>
        <pt x="713" y="704" on="0"/>
        <pt x="675" y="666" on="0"/>
        <pt x="649" y="616" on="0"/>
        <pt x="643" y="588" on="1"/>
        <pt x="1123" y="588" on="1"/>
        <pt x="1123" y="504" on="1"/>
        <pt x="1044" y="504" on="1"/>
        <pt x="1043" y="468" on="0"/>
        <pt x="1022" y="406" on="0"/>
        <pt x="988" y="356" on="0"/>
        <pt x="944" y="318" on="0"/>
        <pt x="921" y="307" on="1"/>
        <pt x="954" y="293" on="0"/>
        <pt x="1006" y="220" on="0"/>
        <pt x="1006" y="165" on="1"/>
        <pt x="1006" y="124" on="0"/>
        <pt x="975" y="61" on="0"/>
        <pt x="919" y="17" on="0"/>
        <pt x="842" y="-6" on="0"/>
        <pt x="796" y="-6" on="1"/>
        <pt x="740" y="-6" on="0"/>
        <pt x="639" y="34" on="0"/>
        <pt x="563" y="127" on="0"/>
        <pt x="518" y="282" on="0"/>
        <pt x="518" y="398" on="1"/>
        <pt x="518" y="510" on="0"/>
        <pt x="561" y="667" on="0"/>
        <pt x="636" y="765" on="0"/>
        <pt x="738" y="810" on="0"/>
        <pt x="797" y="810" on="1"/>
        <pt x="857" y="810" on="0"/>
        <pt x="951" y="759" on="0"/>
        <pt x="981" y="712" on="1"/>
        <pt x="999" y="761" on="0"/>
        <pt x="1075" y="797" on="0"/>
        <pt x="1134" y="804" on="1"/>
        <pt x="1192" y="810" on="1"/>
        <pt x="1208" y="811" on="0"/>
        <pt x="1237" y="819" on="0"/>
        <pt x="1259" y="835" on="0"/>
        <pt x="1273" y="863" on="0"/>
        <pt x="1276" y="885" on="1"/>
        <pt x="1353" y="885" on="1"/>
        <pt x="1353" y="875" on="1"/>
        <pt x="1353" y="800" on="0"/>
        <pt x="1277" y="731" on="0"/>
        <pt x="1205" y="723" on="1"/>
        <pt x="1138" y="716" on="1"/>
        <pt x="1091" y="711" on="0"/>
        <pt x="1047" y="678" on="0"/>
        <pt x="1040" y="642" on="1"/>
        <pt x="1038" y="631" on="1"/>
      </contour>
      <contour>
        <pt x="34" y="418" on="1"/>
        <pt x="34" y="458" on="0"/>
        <pt x="63" y="524" on="0"/>
        <pt x="114" y="570" on="0"/>
        <pt x="183" y="595" on="0"/>
        <pt x="223" y="595" on="1"/>
        <pt x="268" y="595" on="0"/>
        <pt x="338" y="567" on="0"/>
        <pt x="386" y="519" on="0"/>
        <pt x="411" y="455" on="0"/>
        <pt x="411" y="419" on="1"/>
        <pt x="411" y="135" on="1"/>
        <pt x="411" y="107" on="0"/>
        <pt x="438" y="83" on="0"/>
        <pt x="464" y="83" on="1"/>
        <pt x="475" y="83" on="1"/>
        <pt x="472" y="-1" on="1"/>
        <pt x="464" y="-3" on="0"/>
        <pt x="450" y="-3" on="0"/>
        <pt x="442" y="-3" on="1"/>
        <pt x="379" y="-3" on="0"/>
        <pt x="311" y="67" on="0"/>
        <pt x="311" y="128" on="1"/>
        <pt x="311" y="270" on="1"/>
        <pt x="297" y="259" on="0"/>
        <pt x="251" y="247" on="0"/>
        <pt x="220" y="247" on="1"/>
        <pt x="183" y="247" on="0"/>
        <pt x="115" y="268" on="0"/>
        <pt x="64" y="311" on="0"/>
        <pt x="34" y="375" on="0"/>
      </contour>
      <contour>
        <pt x="782" y="352" on="1"/>
        <pt x="850" y="352" on="0"/>
        <pt x="932" y="435" on="0"/>
        <pt x="937" y="504" on="1"/>
        <pt x="629" y="504" on="1"/>
        <pt x="625" y="476" on="0"/>
        <pt x="622" y="419" on="0"/>
        <pt x="622" y="394" on="1"/>
        <pt x="622" y="352" on="1"/>
      </contour>
      <contour>
        <pt x="900" y="170" on="1"/>
        <pt x="900" y="208" on="0"/>
        <pt x="848" y="267" on="0"/>
        <pt x="802" y="270" on="1"/>
        <pt x="630" y="270" on="1"/>
        <pt x="640" y="183" on="0"/>
        <pt x="722" y="78" on="0"/>
        <pt x="796" y="78" on="1"/>
        <pt x="843" y="78" on="0"/>
        <pt x="900" y="127" on="0"/>
      </contour>
      <contour>
        <pt x="137" y="418" on="1"/>
        <pt x="137" y="373" on="0"/>
        <pt x="191" y="330" on="0"/>
        <pt x="227" y="330" on="1"/>
        <pt x="256" y="330" on="0"/>
        <pt x="297" y="347" on="0"/>
        <pt x="310" y="359" on="1"/>
        <pt x="310" y="423" on="1"/>
        <pt x="310" y="465" on="0"/>
        <pt x="261" y="508" on="0"/>
        <pt x="224" y="508" on="1"/>
        <pt x="187" y="508" on="0"/>
        <pt x="137" y="460" on="0"/>
      </contour>
    </TTGlyph>
    <TTGlyph name="Ek_Type" xMin="100" yMin="-312" xMax="1089" yMax="636">
      <contour>
        <pt x="800" y="531" on="1"/>
        <pt x="800" y="403" on="1"/>
        <pt x="814" y="421" on="0"/>
        <pt x="867" y="447" on="0"/>
        <pt x="902" y="447" on="1"/>
        <pt x="977" y="447" on="0"/>
        <pt x="1062" y="351" on="0"/>
        <pt x="1062" y="266" on="1"/>
        <pt x="1062" y="224" on="0"/>
        <pt x="1037" y="156" on="0"/>
        <pt x="991" y="107" on="0"/>
        <pt x="925" y="81" on="0"/>
        <pt x="885" y="81" on="1"/>
        <pt x="876" y="81" on="0"/>
        <pt x="852" y="84" on="0"/>
        <pt x="841" y="87" on="1"/>
        <pt x="854" y="184" on="1"/>
        <pt x="869" y="184" on="1"/>
        <pt x="927" y="184" on="0"/>
        <pt x="927" y="266" on="1"/>
        <pt x="927" y="301" on="0"/>
        <pt x="894" y="340" on="0"/>
        <pt x="865" y="340" on="1"/>
        <pt x="836" y="340" on="0"/>
        <pt x="807" y="299" on="0"/>
        <pt x="803" y="276" on="1"/>
        <pt x="803" y="0" on="1"/>
        <pt x="672" y="0" on="1"/>
        <pt x="672" y="113" on="1"/>
        <pt x="657" y="95" on="0"/>
        <pt x="603" y="74" on="0"/>
        <pt x="579" y="74" on="1"/>
        <pt x="549" y="74" on="0"/>
        <pt x="489" y="94" on="0"/>
        <pt x="441" y="139" on="0"/>
        <pt x="411" y="211" on="0"/>
        <pt x="411" y="263" on="1"/>
        <pt x="411" y="352" on="0"/>
        <pt x="493" y="447" on="0"/>
        <pt x="568" y="447" on="1"/>
        <pt x="600" y="447" on="0"/>
        <pt x="654" y="428" on="0"/>
        <pt x="672" y="411" on="1"/>
        <pt x="672" y="531" on="1"/>
        <pt x="330" y="531" on="1"/>
        <pt x="330" y="50" on="1"/>
        <pt x="549" y="-40" on="0"/>
        <pt x="818" y="-164" on="0"/>
        <pt x="883" y="-197" on="1"/>
        <pt x="822" y="-312" on="1"/>
        <pt x="778" y="-291" on="0"/>
        <pt x="661" y="-235" on="0"/>
        <pt x="507" y="-163" on="0"/>
        <pt x="314" y="-73" on="0"/>
        <pt x="195" y="-18" on="1"/>
        <pt x="195" y="531" on="1"/>
        <pt x="100" y="531" on="1"/>
        <pt x="100" y="636" on="1"/>
        <pt x="1089" y="636" on="1"/>
        <pt x="1089" y="531" on="1"/>
      </contour>
      <contour>
        <pt x="675" y="309" on="1"/>
        <pt x="665" y="320" on="0"/>
        <pt x="633" y="338" on="0"/>
        <pt x="613" y="338" on="1"/>
        <pt x="584" y="338" on="0"/>
        <pt x="548" y="297" on="0"/>
        <pt x="548" y="262" on="1"/>
        <pt x="548" y="225" on="0"/>
        <pt x="582" y="182" on="0"/>
        <pt x="611" y="182" on="1"/>
        <pt x="667" y="182" on="0"/>
        <pt x="675" y="236" on="1"/>
      </contour>
    </TTGlyph>
    <TTGlyph name="Emacron" xMin="73" yMin="0" xMax="476" yMax="772">
      <contour>
        <pt x="73" y="630" on="1"/>
        <pt x="473" y="630" on="1"/>
        <pt x="473" y="534" on="1"/>
        <pt x="195" y="534" on="1"/>
        <pt x="195" y="375" on="1"/>
        <pt x="447" y="375" on="1"/>
        <pt x="447" y="280" on="1"/>
        <pt x="195" y="280" on="1"/>
        <pt x="195" y="96" on="1"/>
        <pt x="476" y="96" on="1"/>
        <pt x="476" y="0" on="1"/>
        <pt x="73" y="0" on="1"/>
      </contour>
      <contour>
        <pt x="396" y="772" on="1"/>
        <pt x="396" y="700" on="1"/>
        <pt x="144" y="700" on="1"/>
        <pt x="144" y="772" on="1"/>
      </contour>
    </TTGlyph>
    <TTGlyph name="Eng" xMin="73" yMin="-245" xMax="598" yMax="630">
      <contour>
        <pt x="73" y="630" on="1"/>
        <pt x="183" y="630" on="1"/>
        <pt x="423" y="266" on="1"/>
        <pt x="443" y="236" on="0"/>
        <pt x="477" y="177" on="0"/>
        <pt x="487" y="158" on="1"/>
        <pt x="489" y="158" on="1"/>
        <pt x="483" y="227" on="0"/>
        <pt x="483" y="366" on="0"/>
        <pt x="483" y="435" on="1"/>
        <pt x="483" y="630" on="1"/>
        <pt x="598" y="630" on="1"/>
        <pt x="598" y="81" on="1"/>
        <pt x="598" y="23" on="0"/>
        <pt x="582" y="-76" on="0"/>
        <pt x="541" y="-157" on="0"/>
        <pt x="472" y="-221" on="0"/>
        <pt x="419" y="-245" on="1"/>
        <pt x="367" y="-162" on="1"/>
        <pt x="413" y="-137" on="0"/>
        <pt x="472" y="-63" on="0"/>
        <pt x="481" y="0" on="1"/>
        <pt x="259" y="335" on="1"/>
        <pt x="236" y="369" on="0"/>
        <pt x="195" y="443" on="0"/>
        <pt x="184" y="466" on="1"/>
        <pt x="182" y="466" on="1"/>
        <pt x="187" y="392" on="0"/>
        <pt x="188" y="253" on="0"/>
        <pt x="188" y="181" on="1"/>
        <pt x="188" y="0" on="1"/>
        <pt x="73" y="0" on="1"/>
      </contour>
    </TTGlyph>
    <TTGlyph name="Eogonek" xMin="73" yMin="-206" xMax="514" yMax="630">
      <contour>
        <pt x="73" y="630" on="1"/>
        <pt x="473" y="630" on="1"/>
        <pt x="473" y="534" on="1"/>
        <pt x="195" y="534" on="1"/>
        <pt x="195" y="375" on="1"/>
        <pt x="447" y="375" on="1"/>
        <pt x="447" y="280" on="1"/>
        <pt x="195" y="280" on="1"/>
        <pt x="195" y="96" on="1"/>
        <pt x="476" y="96" on="1"/>
        <pt x="476" y="0" on="1"/>
        <pt x="444" y="-19" on="0"/>
        <pt x="405" y="-59" on="0"/>
        <pt x="405" y="-85" on="1"/>
        <pt x="405" y="-107" on="0"/>
        <pt x="431" y="-131" on="0"/>
        <pt x="453" y="-131" on="1"/>
        <pt x="478" y="-131" on="0"/>
        <pt x="497" y="-123" on="1"/>
        <pt x="514" y="-185" on="1"/>
        <pt x="497" y="-195" on="0"/>
        <pt x="454" y="-206" on="0"/>
        <pt x="430" y="-206" on="1"/>
        <pt x="384" y="-206" on="0"/>
        <pt x="323" y="-154" on="0"/>
        <pt x="323" y="-107" on="1"/>
        <pt x="323" y="-70" on="0"/>
        <pt x="361" y="-18" on="0"/>
        <pt x="385" y="-3" on="1"/>
        <pt x="385" y="0" on="1"/>
        <pt x="73" y="0" on="1"/>
      </contour>
    </TTGlyph>
    <TTGlyph name="Esmall" xMin="69" yMin="0" xMax="403" yMax="475">
      <contour>
        <pt x="69" y="475" on="1"/>
        <pt x="401" y="475" on="1"/>
        <pt x="401" y="387" on="1"/>
        <pt x="185" y="387" on="1"/>
        <pt x="185" y="286" on="1"/>
        <pt x="379" y="286" on="1"/>
        <pt x="379" y="199" on="1"/>
        <pt x="185" y="199" on="1"/>
        <pt x="185" y="88" on="1"/>
        <pt x="403" y="88" on="1"/>
        <pt x="403" y="0" on="1"/>
        <pt x="69" y="0" on="1"/>
      </contour>
    </TTGlyph>
    <TTGlyph name="Eth" xMin="25" yMin="0" xMax="644" yMax="630">
      <contour>
        <pt x="323" y="630" on="1"/>
        <pt x="394" y="630" on="0"/>
        <pt x="512" y="592" on="0"/>
        <pt x="597" y="516" on="0"/>
        <pt x="644" y="403" on="0"/>
        <pt x="644" y="328" on="1"/>
        <pt x="644" y="241" on="0"/>
        <pt x="588" y="116" on="0"/>
        <pt x="492" y="37" on="0"/>
        <pt x="365" y="0" on="0"/>
        <pt x="293" y="0" on="1"/>
        <pt x="108" y="0" on="1"/>
        <pt x="108" y="283" on="1"/>
        <pt x="25" y="283" on="1"/>
        <pt x="25" y="365" on="1"/>
        <pt x="108" y="365" on="1"/>
        <pt x="108" y="630" on="1"/>
      </contour>
      <contour>
        <pt x="350" y="365" on="1"/>
        <pt x="350" y="283" on="1"/>
        <pt x="230" y="283" on="1"/>
        <pt x="230" y="96" on="1"/>
        <pt x="284" y="96" on="1"/>
        <pt x="328" y="96" on="0"/>
        <pt x="411" y="117" on="0"/>
        <pt x="475" y="169" on="0"/>
        <pt x="514" y="259" on="0"/>
        <pt x="514" y="328" on="1"/>
        <pt x="514" y="428" on="0"/>
        <pt x="401" y="534" on="0"/>
        <pt x="305" y="534" on="1"/>
        <pt x="230" y="534" on="1"/>
        <pt x="230" y="365" on="1"/>
      </contour>
    </TTGlyph>
    <TTGlyph name="Euro" xMin="5" yMin="-9" xMax="500" yMax="602">
      <contour>
        <pt x="350" y="81" on="1"/>
        <pt x="390" y="81" on="0"/>
        <pt x="449" y="95" on="0"/>
        <pt x="474" y="109" on="1"/>
        <pt x="498" y="23" on="1"/>
        <pt x="472" y="9" on="0"/>
        <pt x="396" y="-9" on="0"/>
        <pt x="337" y="-9" on="1"/>
        <pt x="237" y="-9" on="0"/>
        <pt x="94" y="97" on="0"/>
        <pt x="71" y="202" on="1"/>
        <pt x="5" y="202" on="1"/>
        <pt x="5" y="259" on="1"/>
        <pt x="63" y="259" on="1"/>
        <pt x="62" y="273" on="0"/>
        <pt x="62" y="289" on="0"/>
        <pt x="62" y="297" on="1"/>
        <pt x="62" y="311" on="1"/>
        <pt x="5" y="311" on="1"/>
        <pt x="5" y="368" on="1"/>
        <pt x="70" y="368" on="1"/>
        <pt x="88" y="479" on="0"/>
        <pt x="228" y="602" on="0"/>
        <pt x="340" y="602" on="1"/>
        <pt x="400" y="602" on="0"/>
        <pt x="472" y="581" on="0"/>
        <pt x="500" y="567" on="1"/>
        <pt x="474" y="480" on="1"/>
        <pt x="445" y="494" on="0"/>
        <pt x="388" y="511" on="0"/>
        <pt x="353" y="511" on="1"/>
        <pt x="324" y="511" on="0"/>
        <pt x="270" y="494" on="0"/>
        <pt x="226" y="460" on="0"/>
        <pt x="196" y="405" on="0"/>
        <pt x="190" y="368" on="1"/>
        <pt x="426" y="368" on="1"/>
        <pt x="426" y="311" on="1"/>
        <pt x="182" y="311" on="1"/>
        <pt x="182" y="300" on="1"/>
        <pt x="182" y="291" on="0"/>
        <pt x="182" y="273" on="0"/>
        <pt x="183" y="259" on="1"/>
        <pt x="426" y="259" on="1"/>
        <pt x="426" y="202" on="1"/>
        <pt x="195" y="202" on="1"/>
        <pt x="210" y="137" on="0"/>
        <pt x="296" y="81" on="0"/>
      </contour>
    </TTGlyph>
    <TTGlyph name="Euro.lat" xMin="5" yMin="-10" xMax="532" yMax="640">
      <contour>
        <pt x="372" y="86" on="1"/>
        <pt x="415" y="86" on="0"/>
        <pt x="478" y="102" on="0"/>
        <pt x="504" y="116" on="1"/>
        <pt x="530" y="24" on="1"/>
        <pt x="502" y="10" on="0"/>
        <pt x="421" y="-10" on="0"/>
        <pt x="359" y="-10" on="1"/>
        <pt x="306" y="-10" on="0"/>
        <pt x="213" y="19" on="0"/>
        <pt x="139" y="75" on="0"/>
        <pt x="88" y="159" on="0"/>
        <pt x="76" y="215" on="1"/>
        <pt x="5" y="215" on="1"/>
        <pt x="5" y="276" on="1"/>
        <pt x="67" y="276" on="1"/>
        <pt x="66" y="290" on="0"/>
        <pt x="66" y="307" on="0"/>
        <pt x="66" y="316" on="1"/>
        <pt x="66" y="331" on="1"/>
        <pt x="5" y="331" on="1"/>
        <pt x="5" y="392" on="1"/>
        <pt x="74" y="392" on="1"/>
        <pt x="94" y="510" on="0"/>
        <pt x="242" y="640" on="0"/>
        <pt x="362" y="640" on="1"/>
        <pt x="426" y="640" on="0"/>
        <pt x="503" y="618" on="0"/>
        <pt x="532" y="603" on="1"/>
        <pt x="504" y="511" on="1"/>
        <pt x="474" y="526" on="0"/>
        <pt x="413" y="544" on="0"/>
        <pt x="376" y="544" on="1"/>
        <pt x="345" y="544" on="0"/>
        <pt x="288" y="526" on="0"/>
        <pt x="241" y="489" on="0"/>
        <pt x="208" y="432" on="0"/>
        <pt x="202" y="392" on="1"/>
        <pt x="453" y="392" on="1"/>
        <pt x="453" y="331" on="1"/>
        <pt x="194" y="331" on="1"/>
        <pt x="194" y="319" on="1"/>
        <pt x="194" y="309" on="0"/>
        <pt x="194" y="291" on="0"/>
        <pt x="195" y="276" on="1"/>
        <pt x="453" y="276" on="1"/>
        <pt x="453" y="215" on="1"/>
        <pt x="207" y="215" on="1"/>
        <pt x="224" y="145" on="0"/>
        <pt x="315" y="86" on="0"/>
      </contour>
    </TTGlyph>
    <TTGlyph name="F" xMin="73" yMin="0" xMax="463" yMax="630">
      <contour>
        <pt x="463" y="630" on="1"/>
        <pt x="463" y="534" on="1"/>
        <pt x="195" y="534" on="1"/>
        <pt x="195" y="355" on="1"/>
        <pt x="441" y="355" on="1"/>
        <pt x="441" y="260" on="1"/>
        <pt x="195" y="260" on="1"/>
        <pt x="195" y="0" on="1"/>
        <pt x="73" y="0" on="1"/>
        <pt x="73" y="630" on="1"/>
      </contour>
    </TTGlyph>
    <TTGlyph name="Fa.gm" xMin="-20" yMin="-83" xMax="581" yMax="588">
      <contour>
        <pt x="-20" y="588" on="1"/>
        <pt x="581" y="588" on="1"/>
        <pt x="581" y="504" on="1"/>
        <pt x="488" y="504" on="1"/>
        <pt x="488" y="325" on="1"/>
        <pt x="250" y="325" on="1"/>
        <pt x="199" y="325" on="0"/>
        <pt x="143" y="276" on="0"/>
        <pt x="143" y="231" on="1"/>
        <pt x="143" y="199" on="0"/>
        <pt x="167" y="150" on="0"/>
        <pt x="184" y="133" on="1"/>
        <pt x="226" y="189" on="0"/>
        <pt x="325" y="243" on="0"/>
        <pt x="379" y="243" on="1"/>
        <pt x="441" y="243" on="0"/>
        <pt x="522" y="181" on="0"/>
        <pt x="522" y="126" on="1"/>
        <pt x="522" y="98" on="0"/>
        <pt x="499" y="48" on="0"/>
        <pt x="452" y="10" on="0"/>
        <pt x="379" y="-12" on="0"/>
        <pt x="330" y="-12" on="1"/>
        <pt x="275" y="-12" on="0"/>
        <pt x="170" y="23" on="0"/>
        <pt x="88" y="88" on="0"/>
        <pt x="38" y="178" on="0"/>
        <pt x="38" y="233" on="1"/>
        <pt x="38" y="320" on="0"/>
        <pt x="142" y="411" on="0"/>
        <pt x="229" y="411" on="1"/>
        <pt x="385" y="411" on="1"/>
        <pt x="385" y="504" on="1"/>
        <pt x="-20" y="504" on="1"/>
      </contour>
      <contour>
        <pt x="374" y="168" on="1"/>
        <pt x="342" y="168" on="0"/>
        <pt x="280" y="125" on="0"/>
        <pt x="251" y="85" on="1"/>
        <pt x="268" y="78" on="0"/>
        <pt x="308" y="70" on="0"/>
        <pt x="331" y="70" on="1"/>
        <pt x="378" y="70" on="0"/>
        <pt x="421" y="102" on="0"/>
        <pt x="421" y="126" on="1"/>
        <pt x="421" y="146" on="0"/>
        <pt x="394" y="168" on="0"/>
      </contour>
      <contour>
        <pt x="-8" y="-28" on="1"/>
        <pt x="-8" y="-4" on="0"/>
        <pt x="24" y="30" on="0"/>
        <pt x="49" y="30" on="1"/>
        <pt x="74" y="30" on="0"/>
        <pt x="105" y="-5" on="0"/>
        <pt x="105" y="-28" on="1"/>
        <pt x="105" y="-51" on="0"/>
        <pt x="74" y="-83" on="0"/>
        <pt x="49" y="-83" on="1"/>
        <pt x="24" y="-83" on="0"/>
        <pt x="-8" y="-52" on="0"/>
      </contour>
    </TTGlyph>
    <TTGlyph name="FaVirama.gm" xMin="-20" yMin="-300" xMax="612" yMax="588">
      <contour>
        <pt x="-20" y="588" on="1"/>
        <pt x="581" y="588" on="1"/>
        <pt x="581" y="504" on="1"/>
        <pt x="488" y="504" on="1"/>
        <pt x="488" y="325" on="1"/>
        <pt x="250" y="325" on="1"/>
        <pt x="199" y="325" on="0"/>
        <pt x="143" y="276" on="0"/>
        <pt x="143" y="231" on="1"/>
        <pt x="143" y="199" on="0"/>
        <pt x="167" y="150" on="0"/>
        <pt x="184" y="133" on="1"/>
        <pt x="226" y="189" on="0"/>
        <pt x="325" y="243" on="0"/>
        <pt x="379" y="243" on="1"/>
        <pt x="441" y="243" on="0"/>
        <pt x="522" y="181" on="0"/>
        <pt x="522" y="126" on="1"/>
        <pt x="522" y="98" on="0"/>
        <pt x="499" y="48" on="0"/>
        <pt x="452" y="10" on="0"/>
        <pt x="379" y="-12" on="0"/>
        <pt x="330" y="-12" on="1"/>
        <pt x="275" y="-12" on="0"/>
        <pt x="170" y="23" on="0"/>
        <pt x="88" y="88" on="0"/>
        <pt x="38" y="178" on="0"/>
        <pt x="38" y="233" on="1"/>
        <pt x="38" y="320" on="0"/>
        <pt x="142" y="411" on="0"/>
        <pt x="229" y="411" on="1"/>
        <pt x="385" y="411" on="1"/>
        <pt x="385" y="504" on="1"/>
        <pt x="-20" y="504" on="1"/>
      </contour>
      <contour>
        <pt x="374" y="168" on="1"/>
        <pt x="342" y="168" on="0"/>
        <pt x="280" y="125" on="0"/>
        <pt x="251" y="85" on="1"/>
        <pt x="268" y="78" on="0"/>
        <pt x="308" y="70" on="0"/>
        <pt x="331" y="70" on="1"/>
        <pt x="378" y="70" on="0"/>
        <pt x="421" y="102" on="0"/>
        <pt x="421" y="126" on="1"/>
        <pt x="421" y="146" on="0"/>
        <pt x="394" y="168" on="0"/>
      </contour>
      <contour>
        <pt x="-6" y="-25" on="1"/>
        <pt x="-6" y="-1" on="0"/>
        <pt x="26" y="33" on="0"/>
        <pt x="51" y="33" on="1"/>
        <pt x="76" y="33" on="0"/>
        <pt x="107" y="-2" on="0"/>
        <pt x="107" y="-25" on="1"/>
        <pt x="107" y="-48" on="0"/>
        <pt x="76" y="-80" on="0"/>
        <pt x="51" y="-80" on="1"/>
        <pt x="26" y="-80" on="0"/>
        <pt x="-6" y="-49" on="0"/>
      </contour>
      <contour>
        <pt x="612" y="-235" on="1"/>
        <pt x="558" y="-300" on="1"/>
        <pt x="329" y="-133" on="1"/>
        <pt x="392" y="-53" on="1"/>
      </contour>
    </TTGlyph>
    <TTGlyph name="Five.gm" xMin="35" yMin="0" xMax="506" yMax="594">
      <contour>
        <pt x="401" y="135" on="1"/>
        <pt x="378" y="121" on="0"/>
        <pt x="316" y="105" on="0"/>
        <pt x="273" y="105" on="1"/>
        <pt x="192" y="105" on="0"/>
        <pt x="70" y="176" on="0"/>
        <pt x="35" y="240" on="1"/>
        <pt x="61" y="283" on="0"/>
        <pt x="91" y="373" on="0"/>
        <pt x="91" y="420" on="1"/>
        <pt x="91" y="465" on="0"/>
        <pt x="70" y="534" on="0"/>
        <pt x="60" y="557" on="1"/>
        <pt x="147" y="594" on="1"/>
        <pt x="166" y="562" on="0"/>
        <pt x="196" y="470" on="0"/>
        <pt x="196" y="419" on="1"/>
        <pt x="196" y="365" on="0"/>
        <pt x="170" y="283" on="0"/>
        <pt x="150" y="246" on="1"/>
        <pt x="167" y="220" on="0"/>
        <pt x="235" y="190" on="0"/>
        <pt x="277" y="190" on="1"/>
        <pt x="317" y="190" on="0"/>
        <pt x="378" y="213" on="0"/>
        <pt x="401" y="233" on="1"/>
        <pt x="401" y="589" on="1"/>
        <pt x="506" y="589" on="1"/>
        <pt x="506" y="0" on="1"/>
        <pt x="401" y="0" on="1"/>
      </contour>
    </TTGlyph>
    <TTGlyph name="Four.gm" xMin="52" yMin="-9" xMax="517" yMax="595">
      <contour>
        <pt x="287" y="340" on="1"/>
        <pt x="314" y="344" on="0"/>
        <pt x="361" y="361" on="0"/>
        <pt x="396" y="386" on="0"/>
        <pt x="417" y="420" on="0"/>
        <pt x="417" y="440" on="1"/>
        <pt x="417" y="458" on="0"/>
        <pt x="405" y="483" on="0"/>
        <pt x="385" y="501" on="0"/>
        <pt x="362" y="513" on="0"/>
        <pt x="352" y="517" on="1"/>
        <pt x="382" y="595" on="1"/>
        <pt x="409" y="588" on="0"/>
        <pt x="458" y="562" on="0"/>
        <pt x="495" y="523" on="0"/>
        <pt x="517" y="472" on="0"/>
        <pt x="517" y="441" on="1"/>
        <pt x="517" y="412" on="0"/>
        <pt x="498" y="366" on="0"/>
        <pt x="468" y="332" on="0"/>
        <pt x="432" y="307" on="0"/>
        <pt x="414" y="300" on="1"/>
        <pt x="459" y="278" on="0"/>
        <pt x="508" y="205" on="0"/>
        <pt x="508" y="160" on="1"/>
        <pt x="508" y="121" on="0"/>
        <pt x="476" y="58" on="0"/>
        <pt x="418" y="15" on="0"/>
        <pt x="336" y="-9" on="0"/>
        <pt x="285" y="-9" on="1"/>
        <pt x="236" y="-9" on="0"/>
        <pt x="154" y="14" on="0"/>
        <pt x="95" y="57" on="0"/>
        <pt x="62" y="120" on="0"/>
        <pt x="62" y="161" on="1"/>
        <pt x="62" y="215" on="0"/>
        <pt x="117" y="283" on="0"/>
        <pt x="157" y="301" on="1"/>
        <pt x="115" y="316" on="0"/>
        <pt x="52" y="386" on="0"/>
        <pt x="52" y="446" on="1"/>
        <pt x="52" y="478" on="0"/>
        <pt x="74" y="528" on="0"/>
        <pt x="110" y="565" on="0"/>
        <pt x="156" y="589" on="0"/>
        <pt x="180" y="595" on="1"/>
        <pt x="210" y="517" on="1"/>
        <pt x="190" y="507" on="0"/>
        <pt x="154" y="475" on="0"/>
        <pt x="154" y="440" on="1"/>
        <pt x="154" y="401" on="0"/>
        <pt x="226" y="348" on="0"/>
      </contour>
      <contour>
        <pt x="286" y="267" on="1"/>
        <pt x="236" y="259" on="0"/>
        <pt x="170" y="207" on="0"/>
        <pt x="170" y="166" on="1"/>
        <pt x="170" y="124" on="0"/>
        <pt x="235" y="79" on="0"/>
        <pt x="286" y="79" on="1"/>
        <pt x="339" y="79" on="0"/>
        <pt x="401" y="125" on="0"/>
        <pt x="401" y="167" on="1"/>
        <pt x="401" y="204" on="0"/>
        <pt x="337" y="259" on="0"/>
      </contour>
    </TTGlyph>
    <TTGlyph name="Fsmall" xMin="69" yMin="0" xMax="392" yMax="475">
      <contour>
        <pt x="392" y="475" on="1"/>
        <pt x="392" y="387" on="1"/>
        <pt x="187" y="387" on="1"/>
        <pt x="187" y="270" on="1"/>
        <pt x="374" y="270" on="1"/>
        <pt x="374" y="182" on="1"/>
        <pt x="187" y="182" on="1"/>
        <pt x="187" y="0" on="1"/>
        <pt x="69" y="0" on="1"/>
        <pt x="69" y="475" on="1"/>
      </contour>
    </TTGlyph>
    <TTGlyph name="G" xMin="41" yMin="-10" xMax="574" yMax="640">
      <contour>
        <pt x="366" y="640" on="1"/>
        <pt x="423" y="640" on="0"/>
        <pt x="514" y="622" on="0"/>
        <pt x="551" y="604" on="1"/>
        <pt x="525" y="518" on="1"/>
        <pt x="490" y="535" on="0"/>
        <pt x="416" y="550" on="0"/>
        <pt x="378" y="550" on="1"/>
        <pt x="336" y="550" on="0"/>
        <pt x="261" y="524" on="0"/>
        <pt x="204" y="467" on="0"/>
        <pt x="171" y="378" on="0"/>
        <pt x="171" y="314" on="1"/>
        <pt x="171" y="201" on="0"/>
        <pt x="272" y="81" on="0"/>
        <pt x="366" y="81" on="1"/>
        <pt x="425" y="81" on="0"/>
        <pt x="458" y="94" on="1"/>
        <pt x="458" y="250" on="1"/>
        <pt x="349" y="250" on="1"/>
        <pt x="349" y="342" on="1"/>
        <pt x="574" y="342" on="1"/>
        <pt x="574" y="28" on="1"/>
        <pt x="534" y="11" on="0"/>
        <pt x="432" y="-10" on="0"/>
        <pt x="366" y="-10" on="1"/>
        <pt x="298" y="-10" on="0"/>
        <pt x="179" y="32" on="0"/>
        <pt x="91" y="114" on="0"/>
        <pt x="41" y="235" on="0"/>
        <pt x="41" y="314" on="1"/>
        <pt x="41" y="393" on="0"/>
        <pt x="91" y="515" on="0"/>
        <pt x="178" y="598" on="0"/>
        <pt x="297" y="640" on="0"/>
      </contour>
    </TTGlyph>
    <TTGlyph name="Ga.gm" xMin="-20" yMin="-10" xMax="781" yMax="588">
      <contour>
        <pt x="-20" y="588" on="1"/>
        <pt x="781" y="588" on="1"/>
        <pt x="781" y="504" on="1"/>
        <pt x="686" y="504" on="1"/>
        <pt x="686" y="0" on="1"/>
        <pt x="581" y="0" on="1"/>
        <pt x="581" y="504" on="1"/>
        <pt x="443" y="504" on="1"/>
        <pt x="443" y="140" on="1"/>
        <pt x="443" y="68" on="0"/>
        <pt x="347" y="-10" on="0"/>
        <pt x="266" y="-10" on="1"/>
        <pt x="218" y="-10" on="0"/>
        <pt x="133" y="24" on="0"/>
        <pt x="70" y="85" on="0"/>
        <pt x="34" y="168" on="0"/>
        <pt x="34" y="218" on="1"/>
        <pt x="34" y="260" on="0"/>
        <pt x="60" y="320" on="0"/>
        <pt x="107" y="359" on="0"/>
        <pt x="169" y="377" on="0"/>
        <pt x="205" y="377" on="1"/>
        <pt x="338" y="377" on="1"/>
        <pt x="338" y="504" on="1"/>
        <pt x="-20" y="504" on="1"/>
      </contour>
      <contour>
        <pt x="266" y="76" on="1"/>
        <pt x="300" y="76" on="0"/>
        <pt x="338" y="111" on="0"/>
        <pt x="338" y="147" on="1"/>
        <pt x="338" y="292" on="1"/>
        <pt x="217" y="292" on="1"/>
        <pt x="178" y="292" on="0"/>
        <pt x="139" y="251" on="0"/>
        <pt x="139" y="217" on="1"/>
        <pt x="139" y="185" on="0"/>
        <pt x="162" y="133" on="0"/>
        <pt x="198" y="96" on="0"/>
        <pt x="243" y="76" on="0"/>
      </contour>
    </TTGlyph>
    <TTGlyph name="GaVirama.gm" xMin="-20" yMin="-300" xMax="860" yMax="588">
      <contour>
        <pt x="-20" y="588" on="1"/>
        <pt x="781" y="588" on="1"/>
        <pt x="781" y="504" on="1"/>
        <pt x="686" y="504" on="1"/>
        <pt x="686" y="0" on="1"/>
        <pt x="581" y="0" on="1"/>
        <pt x="581" y="504" on="1"/>
        <pt x="443" y="504" on="1"/>
        <pt x="443" y="140" on="1"/>
        <pt x="443" y="68" on="0"/>
        <pt x="347" y="-10" on="0"/>
        <pt x="266" y="-10" on="1"/>
        <pt x="218" y="-10" on="0"/>
        <pt x="133" y="24" on="0"/>
        <pt x="70" y="85" on="0"/>
        <pt x="34" y="168" on="0"/>
        <pt x="34" y="218" on="1"/>
        <pt x="34" y="260" on="0"/>
        <pt x="60" y="320" on="0"/>
        <pt x="107" y="359" on="0"/>
        <pt x="169" y="377" on="0"/>
        <pt x="205" y="377" on="1"/>
        <pt x="338" y="377" on="1"/>
        <pt x="338" y="504" on="1"/>
        <pt x="-20" y="504" on="1"/>
      </contour>
      <contour>
        <pt x="266" y="76" on="1"/>
        <pt x="300" y="76" on="0"/>
        <pt x="338" y="111" on="0"/>
        <pt x="338" y="147" on="1"/>
        <pt x="338" y="292" on="1"/>
        <pt x="217" y="292" on="1"/>
        <pt x="178" y="292" on="0"/>
        <pt x="139" y="251" on="0"/>
        <pt x="139" y="217" on="1"/>
        <pt x="139" y="185" on="0"/>
        <pt x="162" y="133" on="0"/>
        <pt x="198" y="96" on="0"/>
        <pt x="243" y="76" on="0"/>
      </contour>
      <contour>
        <pt x="860" y="-235" on="1"/>
        <pt x="806" y="-300" on="1"/>
        <pt x="577" y="-133" on="1"/>
        <pt x="640" y="-53" on="1"/>
      </contour>
    </TTGlyph>
    <TTGlyph name="Gbreve" xMin="41" yMin="-10" xMax="574" yMax="830">
      <contour>
        <pt x="366" y="640" on="1"/>
        <pt x="423" y="640" on="0"/>
        <pt x="514" y="622" on="0"/>
        <pt x="551" y="604" on="1"/>
        <pt x="525" y="518" on="1"/>
        <pt x="490" y="535" on="0"/>
        <pt x="416" y="550" on="0"/>
        <pt x="378" y="550" on="1"/>
        <pt x="336" y="550" on="0"/>
        <pt x="261" y="524" on="0"/>
        <pt x="204" y="467" on="0"/>
        <pt x="171" y="378" on="0"/>
        <pt x="171" y="314" on="1"/>
        <pt x="171" y="201" on="0"/>
        <pt x="272" y="81" on="0"/>
        <pt x="366" y="81" on="1"/>
        <pt x="425" y="81" on="0"/>
        <pt x="458" y="94" on="1"/>
        <pt x="458" y="250" on="1"/>
        <pt x="349" y="250" on="1"/>
        <pt x="349" y="342" on="1"/>
        <pt x="574" y="342" on="1"/>
        <pt x="574" y="28" on="1"/>
        <pt x="534" y="11" on="0"/>
        <pt x="432" y="-10" on="0"/>
        <pt x="366" y="-10" on="1"/>
        <pt x="298" y="-10" on="0"/>
        <pt x="179" y="32" on="0"/>
        <pt x="91" y="114" on="0"/>
        <pt x="41" y="235" on="0"/>
        <pt x="41" y="314" on="1"/>
        <pt x="41" y="393" on="0"/>
        <pt x="91" y="515" on="0"/>
        <pt x="178" y="598" on="0"/>
        <pt x="297" y="640" on="0"/>
      </contour>
      <contour>
        <pt x="305" y="830" on="1"/>
        <pt x="307" y="802" on="0"/>
        <pt x="334" y="770" on="0"/>
        <pt x="368" y="770" on="1"/>
        <pt x="424" y="770" on="0"/>
        <pt x="429" y="830" on="1"/>
        <pt x="501" y="830" on="1"/>
        <pt x="501" y="772" on="0"/>
        <pt x="432" y="703" on="0"/>
        <pt x="367" y="703" on="1"/>
        <pt x="331" y="703" on="0"/>
        <pt x="280" y="724" on="0"/>
        <pt x="247" y="759" on="0"/>
        <pt x="232" y="805" on="0"/>
        <pt x="232" y="830" on="1"/>
      </contour>
    </TTGlyph>
    <TTGlyph name="Gcircumflex" xMin="41" yMin="-10" xMax="574" yMax="829">
      <contour>
        <pt x="366" y="640" on="1"/>
        <pt x="423" y="640" on="0"/>
        <pt x="514" y="622" on="0"/>
        <pt x="551" y="604" on="1"/>
        <pt x="525" y="518" on="1"/>
        <pt x="490" y="535" on="0"/>
        <pt x="416" y="550" on="0"/>
        <pt x="378" y="550" on="1"/>
        <pt x="336" y="550" on="0"/>
        <pt x="261" y="524" on="0"/>
        <pt x="204" y="467" on="0"/>
        <pt x="171" y="378" on="0"/>
        <pt x="171" y="314" on="1"/>
        <pt x="171" y="201" on="0"/>
        <pt x="272" y="81" on="0"/>
        <pt x="366" y="81" on="1"/>
        <pt x="425" y="81" on="0"/>
        <pt x="458" y="94" on="1"/>
        <pt x="458" y="250" on="1"/>
        <pt x="349" y="250" on="1"/>
        <pt x="349" y="342" on="1"/>
        <pt x="574" y="342" on="1"/>
        <pt x="574" y="28" on="1"/>
        <pt x="534" y="11" on="0"/>
        <pt x="432" y="-10" on="0"/>
        <pt x="366" y="-10" on="1"/>
        <pt x="298" y="-10" on="0"/>
        <pt x="179" y="32" on="0"/>
        <pt x="91" y="114" on="0"/>
        <pt x="41" y="235" on="0"/>
        <pt x="41" y="314" on="1"/>
        <pt x="41" y="393" on="0"/>
        <pt x="91" y="515" on="0"/>
        <pt x="178" y="598" on="0"/>
        <pt x="297" y="640" on="0"/>
      </contour>
      <contour>
        <pt x="299" y="829" on="1"/>
        <pt x="388" y="829" on="1"/>
        <pt x="508" y="700" on="1"/>
        <pt x="413" y="700" on="1"/>
        <pt x="343" y="774" on="1"/>
        <pt x="273" y="700" on="1"/>
        <pt x="182" y="700" on="1"/>
      </contour>
    </TTGlyph>
    <TTGlyph name="Gcommaaccent" xMin="41" yMin="-329" xMax="574" yMax="640">
      <contour>
        <pt x="366" y="640" on="1"/>
        <pt x="423" y="640" on="0"/>
        <pt x="514" y="622" on="0"/>
        <pt x="551" y="604" on="1"/>
        <pt x="525" y="518" on="1"/>
        <pt x="490" y="535" on="0"/>
        <pt x="416" y="550" on="0"/>
        <pt x="378" y="550" on="1"/>
        <pt x="336" y="550" on="0"/>
        <pt x="261" y="524" on="0"/>
        <pt x="204" y="467" on="0"/>
        <pt x="171" y="378" on="0"/>
        <pt x="171" y="314" on="1"/>
        <pt x="171" y="201" on="0"/>
        <pt x="272" y="81" on="0"/>
        <pt x="366" y="81" on="1"/>
        <pt x="425" y="81" on="0"/>
        <pt x="458" y="94" on="1"/>
        <pt x="458" y="250" on="1"/>
        <pt x="349" y="250" on="1"/>
        <pt x="349" y="342" on="1"/>
        <pt x="574" y="342" on="1"/>
        <pt x="574" y="28" on="1"/>
        <pt x="534" y="11" on="0"/>
        <pt x="432" y="-10" on="0"/>
        <pt x="366" y="-10" on="1"/>
        <pt x="298" y="-10" on="0"/>
        <pt x="179" y="32" on="0"/>
        <pt x="91" y="114" on="0"/>
        <pt x="41" y="235" on="0"/>
        <pt x="41" y="314" on="1"/>
        <pt x="41" y="393" on="0"/>
        <pt x="91" y="515" on="0"/>
        <pt x="178" y="598" on="0"/>
        <pt x="297" y="640" on="0"/>
      </contour>
      <contour>
        <pt x="353" y="-193" on="1"/>
        <pt x="331" y="-188" on="0"/>
        <pt x="297" y="-156" on="0"/>
        <pt x="297" y="-129" on="1"/>
        <pt x="297" y="-103" on="0"/>
        <pt x="331" y="-65" on="0"/>
        <pt x="362" y="-65" on="1"/>
        <pt x="374" y="-65" on="0"/>
        <pt x="401" y="-75" on="0"/>
        <pt x="424" y="-98" on="0"/>
        <pt x="438" y="-134" on="0"/>
        <pt x="438" y="-160" on="1"/>
        <pt x="438" y="-186" on="0"/>
        <pt x="420" y="-236" on="0"/>
        <pt x="389" y="-281" on="0"/>
        <pt x="348" y="-317" on="0"/>
        <pt x="326" y="-329" on="1"/>
        <pt x="297" y="-289" on="1"/>
        <pt x="324" y="-274" on="0"/>
        <pt x="366" y="-223" on="0"/>
        <pt x="370" y="-196" on="1"/>
      </contour>
    </TTGlyph>
    <TTGlyph name="Gdotaccent" xMin="41" yMin="-10" xMax="574" yMax="818">
      <contour>
        <pt x="366" y="640" on="1"/>
        <pt x="423" y="640" on="0"/>
        <pt x="514" y="622" on="0"/>
        <pt x="551" y="604" on="1"/>
        <pt x="525" y="518" on="1"/>
        <pt x="490" y="535" on="0"/>
        <pt x="416" y="550" on="0"/>
        <pt x="378" y="550" on="1"/>
        <pt x="336" y="550" on="0"/>
        <pt x="261" y="524" on="0"/>
        <pt x="204" y="467" on="0"/>
        <pt x="171" y="378" on="0"/>
        <pt x="171" y="314" on="1"/>
        <pt x="171" y="201" on="0"/>
        <pt x="272" y="81" on="0"/>
        <pt x="366" y="81" on="1"/>
        <pt x="425" y="81" on="0"/>
        <pt x="458" y="94" on="1"/>
        <pt x="458" y="250" on="1"/>
        <pt x="349" y="250" on="1"/>
        <pt x="349" y="342" on="1"/>
        <pt x="574" y="342" on="1"/>
        <pt x="574" y="28" on="1"/>
        <pt x="534" y="11" on="0"/>
        <pt x="432" y="-10" on="0"/>
        <pt x="366" y="-10" on="1"/>
        <pt x="298" y="-10" on="0"/>
        <pt x="179" y="32" on="0"/>
        <pt x="91" y="114" on="0"/>
        <pt x="41" y="235" on="0"/>
        <pt x="41" y="314" on="1"/>
        <pt x="41" y="393" on="0"/>
        <pt x="91" y="515" on="0"/>
        <pt x="178" y="598" on="0"/>
        <pt x="297" y="640" on="0"/>
      </contour>
      <contour>
        <pt x="304" y="757" on="1"/>
        <pt x="304" y="782" on="0"/>
        <pt x="340" y="818" on="0"/>
        <pt x="366" y="818" on="1"/>
        <pt x="392" y="818" on="0"/>
        <pt x="427" y="782" on="0"/>
        <pt x="427" y="757" on="1"/>
        <pt x="427" y="731" on="0"/>
        <pt x="392" y="694" on="0"/>
        <pt x="366" y="694" on="1"/>
        <pt x="340" y="694" on="0"/>
        <pt x="304" y="731" on="0"/>
      </contour>
    </TTGlyph>
    <TTGlyph name="Gha.gm" xMin="-30" yMin="0" xMax="768" yMax="593">
      <contour>
        <pt x="155" y="588" on="1"/>
        <pt x="171" y="557" on="0"/>
        <pt x="200" y="462" on="0"/>
        <pt x="200" y="411" on="1"/>
        <pt x="200" y="360" on="0"/>
        <pt x="175" y="273" on="0"/>
        <pt x="154" y="236" on="1"/>
        <pt x="163" y="212" on="0"/>
        <pt x="210" y="181" on="0"/>
        <pt x="239" y="181" on="1"/>
        <pt x="271" y="181" on="0"/>
        <pt x="323" y="211" on="0"/>
        <pt x="327" y="238" on="1"/>
        <pt x="322" y="580" on="1"/>
        <pt x="332" y="585" on="0"/>
        <pt x="362" y="593" on="0"/>
        <pt x="376" y="593" on="1"/>
        <pt x="399" y="593" on="0"/>
        <pt x="431" y="567" on="0"/>
        <pt x="431" y="536" on="1"/>
        <pt x="431" y="530" on="0"/>
        <pt x="430" y="491" on="0"/>
        <pt x="429" y="436" on="0"/>
        <pt x="428" y="372" on="0"/>
        <pt x="427" y="309" on="0"/>
        <pt x="426" y="254" on="0"/>
        <pt x="426" y="236" on="1"/>
        <pt x="430" y="213" on="0"/>
        <pt x="472" y="185" on="0"/>
        <pt x="502" y="185" on="1"/>
        <pt x="527" y="185" on="0"/>
        <pt x="560" y="202" on="0"/>
        <pt x="568" y="213" on="1"/>
        <pt x="568" y="588" on="1"/>
        <pt x="768" y="588" on="1"/>
        <pt x="768" y="504" on="1"/>
        <pt x="673" y="504" on="1"/>
        <pt x="673" y="0" on="1"/>
        <pt x="568" y="0" on="1"/>
        <pt x="568" y="118" on="1"/>
        <pt x="555" y="110" on="0"/>
        <pt x="522" y="100" on="0"/>
        <pt x="499" y="100" on="1"/>
        <pt x="462" y="100" on="0"/>
        <pt x="399" y="128" on="0"/>
        <pt x="378" y="158" on="1"/>
        <pt x="357" y="129" on="0"/>
        <pt x="283" y="96" on="0"/>
        <pt x="232" y="96" on="1"/>
        <pt x="160" y="96" on="0"/>
        <pt x="62" y="168" on="0"/>
        <pt x="39" y="230" on="1"/>
        <pt x="68" y="281" on="0"/>
        <pt x="95" y="367" on="0"/>
        <pt x="95" y="419" on="1"/>
        <pt x="95" y="466" on="0"/>
        <pt x="82" y="504" on="1"/>
        <pt x="-30" y="504" on="1"/>
        <pt x="-30" y="588" on="1"/>
        <pt x="155" y="588" on="1"/>
      </contour>
    </TTGlyph>
    <TTGlyph name="GhaVirama.gm" xMin="-30" yMin="-300" xMax="848" yMax="593">
      <contour>
        <pt x="155" y="588" on="1"/>
        <pt x="171" y="557" on="0"/>
        <pt x="200" y="462" on="0"/>
        <pt x="200" y="411" on="1"/>
        <pt x="200" y="360" on="0"/>
        <pt x="175" y="273" on="0"/>
        <pt x="154" y="236" on="1"/>
        <pt x="163" y="212" on="0"/>
        <pt x="210" y="181" on="0"/>
        <pt x="239" y="181" on="1"/>
        <pt x="271" y="181" on="0"/>
        <pt x="323" y="211" on="0"/>
        <pt x="327" y="238" on="1"/>
        <pt x="322" y="580" on="1"/>
        <pt x="332" y="585" on="0"/>
        <pt x="362" y="593" on="0"/>
        <pt x="376" y="593" on="1"/>
        <pt x="399" y="593" on="0"/>
        <pt x="431" y="567" on="0"/>
        <pt x="431" y="536" on="1"/>
        <pt x="431" y="530" on="0"/>
        <pt x="430" y="491" on="0"/>
        <pt x="429" y="436" on="0"/>
        <pt x="428" y="372" on="0"/>
        <pt x="427" y="309" on="0"/>
        <pt x="426" y="254" on="0"/>
        <pt x="426" y="236" on="1"/>
        <pt x="430" y="213" on="0"/>
        <pt x="472" y="185" on="0"/>
        <pt x="502" y="185" on="1"/>
        <pt x="527" y="185" on="0"/>
        <pt x="560" y="202" on="0"/>
        <pt x="568" y="213" on="1"/>
        <pt x="568" y="588" on="1"/>
        <pt x="768" y="588" on="1"/>
        <pt x="768" y="504" on="1"/>
        <pt x="673" y="504" on="1"/>
        <pt x="673" y="0" on="1"/>
        <pt x="568" y="0" on="1"/>
        <pt x="568" y="118" on="1"/>
        <pt x="555" y="110" on="0"/>
        <pt x="522" y="100" on="0"/>
        <pt x="499" y="100" on="1"/>
        <pt x="462" y="100" on="0"/>
        <pt x="399" y="128" on="0"/>
        <pt x="378" y="158" on="1"/>
        <pt x="357" y="129" on="0"/>
        <pt x="283" y="96" on="0"/>
        <pt x="232" y="96" on="1"/>
        <pt x="160" y="96" on="0"/>
        <pt x="62" y="168" on="0"/>
        <pt x="39" y="230" on="1"/>
        <pt x="68" y="281" on="0"/>
        <pt x="95" y="367" on="0"/>
        <pt x="95" y="419" on="1"/>
        <pt x="95" y="466" on="0"/>
        <pt x="82" y="504" on="1"/>
        <pt x="-30" y="504" on="1"/>
        <pt x="-30" y="588" on="1"/>
      </contour>
      <contour>
        <pt x="848" y="-235" on="1"/>
        <pt x="794" y="-300" on="1"/>
        <pt x="565" y="-133" on="1"/>
        <pt x="628" y="-53" on="1"/>
      </contour>
    </TTGlyph>
    <TTGlyph name="Ghha.gm" xMin="-35" yMin="-83" xMax="781" yMax="588">
      <contour>
        <pt x="-35" y="588" on="1"/>
        <pt x="781" y="588" on="1"/>
        <pt x="781" y="504" on="1"/>
        <pt x="686" y="504" on="1"/>
        <pt x="686" y="0" on="1"/>
        <pt x="581" y="0" on="1"/>
        <pt x="581" y="504" on="1"/>
        <pt x="443" y="504" on="1"/>
        <pt x="443" y="140" on="1"/>
        <pt x="443" y="68" on="0"/>
        <pt x="347" y="-10" on="0"/>
        <pt x="266" y="-10" on="1"/>
        <pt x="218" y="-10" on="0"/>
        <pt x="133" y="24" on="0"/>
        <pt x="70" y="85" on="0"/>
        <pt x="34" y="168" on="0"/>
        <pt x="34" y="218" on="1"/>
        <pt x="34" y="260" on="0"/>
        <pt x="60" y="320" on="0"/>
        <pt x="107" y="359" on="0"/>
        <pt x="169" y="377" on="0"/>
        <pt x="205" y="377" on="1"/>
        <pt x="338" y="377" on="1"/>
        <pt x="338" y="504" on="1"/>
        <pt x="-35" y="504" on="1"/>
      </contour>
      <contour>
        <pt x="266" y="76" on="1"/>
        <pt x="300" y="76" on="0"/>
        <pt x="338" y="111" on="0"/>
        <pt x="338" y="147" on="1"/>
        <pt x="338" y="292" on="1"/>
        <pt x="217" y="292" on="1"/>
        <pt x="178" y="292" on="0"/>
        <pt x="139" y="251" on="0"/>
        <pt x="139" y="217" on="1"/>
        <pt x="139" y="185" on="0"/>
        <pt x="162" y="133" on="0"/>
        <pt x="198" y="96" on="0"/>
        <pt x="243" y="76" on="0"/>
      </contour>
      <contour>
        <pt x="-22" y="-28" on="1"/>
        <pt x="-22" y="-4" on="0"/>
        <pt x="10" y="30" on="0"/>
        <pt x="35" y="30" on="1"/>
        <pt x="60" y="30" on="0"/>
        <pt x="91" y="-5" on="0"/>
        <pt x="91" y="-28" on="1"/>
        <pt x="91" y="-51" on="0"/>
        <pt x="60" y="-83" on="0"/>
        <pt x="35" y="-83" on="1"/>
        <pt x="10" y="-83" on="0"/>
        <pt x="-22" y="-52" on="0"/>
      </contour>
    </TTGlyph>
    <TTGlyph name="GhhaVirama.gm" xMin="-35" yMin="-300" xMax="859" yMax="588">
      <contour>
        <pt x="-35" y="588" on="1"/>
        <pt x="781" y="588" on="1"/>
        <pt x="781" y="504" on="1"/>
        <pt x="686" y="504" on="1"/>
        <pt x="686" y="0" on="1"/>
        <pt x="581" y="0" on="1"/>
        <pt x="581" y="504" on="1"/>
        <pt x="443" y="504" on="1"/>
        <pt x="443" y="140" on="1"/>
        <pt x="443" y="68" on="0"/>
        <pt x="347" y="-10" on="0"/>
        <pt x="266" y="-10" on="1"/>
        <pt x="218" y="-10" on="0"/>
        <pt x="133" y="24" on="0"/>
        <pt x="70" y="85" on="0"/>
        <pt x="34" y="168" on="0"/>
        <pt x="34" y="218" on="1"/>
        <pt x="34" y="260" on="0"/>
        <pt x="60" y="320" on="0"/>
        <pt x="107" y="359" on="0"/>
        <pt x="169" y="377" on="0"/>
        <pt x="205" y="377" on="1"/>
        <pt x="338" y="377" on="1"/>
        <pt x="338" y="504" on="1"/>
        <pt x="-35" y="504" on="1"/>
      </contour>
      <contour>
        <pt x="266" y="76" on="1"/>
        <pt x="300" y="76" on="0"/>
        <pt x="338" y="111" on="0"/>
        <pt x="338" y="147" on="1"/>
        <pt x="338" y="292" on="1"/>
        <pt x="217" y="292" on="1"/>
        <pt x="178" y="292" on="0"/>
        <pt x="139" y="251" on="0"/>
        <pt x="139" y="217" on="1"/>
        <pt x="139" y="185" on="0"/>
        <pt x="162" y="133" on="0"/>
        <pt x="198" y="96" on="0"/>
        <pt x="243" y="76" on="0"/>
      </contour>
      <contour>
        <pt x="859" y="-235" on="1"/>
        <pt x="805" y="-300" on="1"/>
        <pt x="576" y="-133" on="1"/>
        <pt x="639" y="-53" on="1"/>
      </contour>
      <contour>
        <pt x="-22" y="-28" on="1"/>
        <pt x="-22" y="-4" on="0"/>
        <pt x="10" y="30" on="0"/>
        <pt x="35" y="30" on="1"/>
        <pt x="60" y="30" on="0"/>
        <pt x="91" y="-5" on="0"/>
        <pt x="91" y="-28" on="1"/>
        <pt x="91" y="-51" on="0"/>
        <pt x="60" y="-83" on="0"/>
        <pt x="35" y="-83" on="1"/>
        <pt x="10" y="-83" on="0"/>
        <pt x="-22" y="-52" on="0"/>
      </contour>
    </TTGlyph>
    <TTGlyph name="Gsmall" xMin="42" yMin="-10" xMax="462" yMax="484">
      <contour>
        <pt x="304" y="78" on="1"/>
        <pt x="318" y="78" on="0"/>
        <pt x="348" y="81" on="0"/>
        <pt x="359" y="86" on="1"/>
        <pt x="359" y="177" on="1"/>
        <pt x="277" y="177" on="1"/>
        <pt x="277" y="262" on="1"/>
        <pt x="462" y="262" on="1"/>
        <pt x="462" y="18" on="1"/>
        <pt x="429" y="4" on="0"/>
        <pt x="342" y="-10" on="0"/>
        <pt x="297" y="-10" on="1"/>
        <pt x="243" y="-10" on="0"/>
        <pt x="150" y="21" on="0"/>
        <pt x="81" y="82" on="0"/>
        <pt x="42" y="173" on="0"/>
        <pt x="42" y="234" on="1"/>
        <pt x="42" y="291" on="0"/>
        <pt x="79" y="384" on="0"/>
        <pt x="146" y="449" on="0"/>
        <pt x="240" y="484" on="0"/>
        <pt x="297" y="484" on="1"/>
        <pt x="334" y="484" on="0"/>
        <pt x="410" y="472" on="0"/>
        <pt x="448" y="455" on="1"/>
        <pt x="424" y="371" on="1"/>
        <pt x="399" y="385" on="0"/>
        <pt x="340" y="397" on="0"/>
        <pt x="311" y="397" on="1"/>
        <pt x="240" y="397" on="0"/>
        <pt x="162" y="312" on="0"/>
        <pt x="162" y="237" on="1"/>
        <pt x="162" y="192" on="0"/>
        <pt x="186" y="131" on="0"/>
        <pt x="225" y="94" on="0"/>
        <pt x="277" y="78" on="0"/>
      </contour>
    </TTGlyph>
    <TTGlyph name="H" xMin="73" yMin="0" xMax="576" yMax="630">
      <contour>
        <pt x="73" y="0" on="1"/>
        <pt x="73" y="630" on="1"/>
        <pt x="195" y="630" on="1"/>
        <pt x="195" y="375" on="1"/>
        <pt x="454" y="375" on="1"/>
        <pt x="454" y="630" on="1"/>
        <pt x="576" y="630" on="1"/>
        <pt x="576" y="0" on="1"/>
        <pt x="454" y="0" on="1"/>
        <pt x="454" y="277" on="1"/>
        <pt x="195" y="277" on="1"/>
        <pt x="195" y="0" on="1"/>
      </contour>
    </TTGlyph>
    <TTGlyph name="Ha.gm" xMin="-20" yMin="-10" xMax="574" yMax="588">
      <contour>
        <pt x="-20" y="588" on="1"/>
        <pt x="574" y="588" on="1"/>
        <pt x="574" y="504" on="1"/>
        <pt x="485" y="504" on="1"/>
        <pt x="485" y="162" on="1"/>
        <pt x="485" y="74" on="0"/>
        <pt x="379" y="-10" on="0"/>
        <pt x="287" y="-10" on="1"/>
        <pt x="238" y="-10" on="0"/>
        <pt x="147" y="25" on="0"/>
        <pt x="77" y="86" on="0"/>
        <pt x="35" y="171" on="0"/>
        <pt x="35" y="221" on="1"/>
        <pt x="35" y="258" on="0"/>
        <pt x="59" y="313" on="0"/>
        <pt x="101" y="349" on="0"/>
        <pt x="156" y="367" on="0"/>
        <pt x="186" y="367" on="1"/>
        <pt x="270" y="367" on="1"/>
        <pt x="270" y="281" on="1"/>
        <pt x="209" y="281" on="1"/>
        <pt x="139" y="281" on="0"/>
        <pt x="139" y="217" on="1"/>
        <pt x="139" y="186" on="0"/>
        <pt x="166" y="134" on="0"/>
        <pt x="209" y="97" on="0"/>
        <pt x="263" y="76" on="0"/>
        <pt x="289" y="76" on="1"/>
        <pt x="332" y="76" on="0"/>
        <pt x="379" y="116" on="0"/>
        <pt x="379" y="165" on="1"/>
        <pt x="379" y="504" on="1"/>
        <pt x="-20" y="504" on="1"/>
      </contour>
    </TTGlyph>
    <TTGlyph name="HaVirama.gm" xMin="-20" yMin="-300" xMax="604" yMax="588">
      <contour>
        <pt x="-20" y="588" on="1"/>
        <pt x="574" y="588" on="1"/>
        <pt x="574" y="504" on="1"/>
        <pt x="485" y="504" on="1"/>
        <pt x="485" y="162" on="1"/>
        <pt x="485" y="74" on="0"/>
        <pt x="379" y="-10" on="0"/>
        <pt x="287" y="-10" on="1"/>
        <pt x="238" y="-10" on="0"/>
        <pt x="147" y="25" on="0"/>
        <pt x="77" y="86" on="0"/>
        <pt x="35" y="171" on="0"/>
        <pt x="35" y="221" on="1"/>
        <pt x="35" y="258" on="0"/>
        <pt x="59" y="313" on="0"/>
        <pt x="101" y="349" on="0"/>
        <pt x="156" y="367" on="0"/>
        <pt x="186" y="367" on="1"/>
        <pt x="270" y="367" on="1"/>
        <pt x="270" y="281" on="1"/>
        <pt x="209" y="281" on="1"/>
        <pt x="139" y="281" on="0"/>
        <pt x="139" y="217" on="1"/>
        <pt x="139" y="186" on="0"/>
        <pt x="166" y="134" on="0"/>
        <pt x="209" y="97" on="0"/>
        <pt x="263" y="76" on="0"/>
        <pt x="289" y="76" on="1"/>
        <pt x="332" y="76" on="0"/>
        <pt x="379" y="116" on="0"/>
        <pt x="379" y="165" on="1"/>
        <pt x="379" y="504" on="1"/>
        <pt x="-20" y="504" on="1"/>
      </contour>
      <contour>
        <pt x="604" y="-235" on="1"/>
        <pt x="550" y="-300" on="1"/>
        <pt x="321" y="-133" on="1"/>
        <pt x="384" y="-53" on="1"/>
      </contour>
    </TTGlyph>
    <TTGlyph name="Hbar" xMin="20" yMin="0" xMax="643" yMax="630">
      <contour>
        <pt x="80" y="0" on="1"/>
        <pt x="80" y="478" on="1"/>
        <pt x="20" y="478" on="1"/>
        <pt x="20" y="555" on="1"/>
        <pt x="80" y="555" on="1"/>
        <pt x="80" y="630" on="1"/>
        <pt x="202" y="630" on="1"/>
        <pt x="202" y="555" on="1"/>
        <pt x="461" y="555" on="1"/>
        <pt x="461" y="630" on="1"/>
        <pt x="583" y="630" on="1"/>
        <pt x="583" y="555" on="1"/>
        <pt x="643" y="555" on="1"/>
        <pt x="643" y="478" on="1"/>
        <pt x="583" y="478" on="1"/>
        <pt x="583" y="0" on="1"/>
        <pt x="461" y="0" on="1"/>
        <pt x="461" y="277" on="1"/>
        <pt x="202" y="277" on="1"/>
        <pt x="202" y="0" on="1"/>
      </contour>
      <contour>
        <pt x="461" y="375" on="1"/>
        <pt x="461" y="478" on="1"/>
        <pt x="202" y="478" on="1"/>
        <pt x="202" y="375" on="1"/>
      </contour>
    </TTGlyph>
    <TTGlyph name="Hcircumflex" xMin="73" yMin="0" xMax="576" yMax="829">
      <contour>
        <pt x="73" y="0" on="1"/>
        <pt x="73" y="630" on="1"/>
        <pt x="195" y="630" on="1"/>
        <pt x="195" y="375" on="1"/>
        <pt x="454" y="375" on="1"/>
        <pt x="454" y="630" on="1"/>
        <pt x="576" y="630" on="1"/>
        <pt x="576" y="0" on="1"/>
        <pt x="454" y="0" on="1"/>
        <pt x="454" y="277" on="1"/>
        <pt x="195" y="277" on="1"/>
        <pt x="195" y="0" on="1"/>
      </contour>
      <contour>
        <pt x="283" y="829" on="1"/>
        <pt x="372" y="829" on="1"/>
        <pt x="492" y="700" on="1"/>
        <pt x="397" y="700" on="1"/>
        <pt x="327" y="774" on="1"/>
        <pt x="257" y="700" on="1"/>
        <pt x="166" y="700" on="1"/>
      </contour>
    </TTGlyph>
    <TTGlyph name="Hsmall" xMin="69" yMin="0" xMax="490" yMax="475">
      <contour>
        <pt x="69" y="0" on="1"/>
        <pt x="69" y="475" on="1"/>
        <pt x="184" y="475" on="1"/>
        <pt x="184" y="293" on="1"/>
        <pt x="374" y="293" on="1"/>
        <pt x="374" y="475" on="1"/>
        <pt x="490" y="475" on="1"/>
        <pt x="490" y="0" on="1"/>
        <pt x="374" y="0" on="1"/>
        <pt x="374" y="203" on="1"/>
        <pt x="184" y="203" on="1"/>
        <pt x="184" y="0" on="1"/>
      </contour>
    </TTGlyph>
    <TTGlyph name="I" xMin="73" yMin="0" xMax="195" yMax="630">
      <contour>
        <pt x="195" y="630" on="1"/>
        <pt x="195" y="0" on="1"/>
        <pt x="73" y="0" on="1"/>
        <pt x="73" y="630" on="1"/>
      </contour>
    </TTGlyph>
    <TTGlyph name="IJ" xMin="73" yMin="-165" xMax="458" yMax="630">
      <contour>
        <pt x="195" y="630" on="1"/>
        <pt x="195" y="0" on="1"/>
        <pt x="73" y="0" on="1"/>
        <pt x="73" y="630" on="1"/>
      </contour>
      <contour>
        <pt x="458" y="630" on="1"/>
        <pt x="458" y="115" on="1"/>
        <pt x="458" y="39" on="0"/>
        <pt x="439" y="-56" on="0"/>
        <pt x="410" y="-93" on="1"/>
        <pt x="378" y="-133" on="0"/>
        <pt x="279" y="-165" on="0"/>
        <pt x="226" y="-165" on="1"/>
        <pt x="226" y="-70" on="1"/>
        <pt x="254" y="-70" on="0"/>
        <pt x="293" y="-53" on="0"/>
        <pt x="307" y="-39" on="1"/>
        <pt x="325" y="-22" on="0"/>
        <pt x="336" y="32" on="0"/>
        <pt x="336" y="64" on="1"/>
        <pt x="336" y="630" on="1"/>
      </contour>
    </TTGlyph>
    <TTGlyph name="Iacute" xMin="73" yMin="0" xMax="298" yMax="824">
      <contour>
        <pt x="195" y="630" on="1"/>
        <pt x="195" y="0" on="1"/>
        <pt x="73" y="0" on="1"/>
        <pt x="73" y="630" on="1"/>
      </contour>
      <contour>
        <pt x="184" y="700" on="1"/>
        <pt x="87" y="700" on="1"/>
        <pt x="167" y="824" on="1"/>
        <pt x="298" y="824" on="1"/>
      </contour>
    </TTGlyph>
    <TTGlyph name="Ibreve" xMin="0" yMin="0" xMax="269" yMax="824">
      <contour>
        <pt x="195" y="630" on="1"/>
        <pt x="195" y="0" on="1"/>
        <pt x="73" y="0" on="1"/>
        <pt x="73" y="630" on="1"/>
      </contour>
      <contour>
        <pt x="73" y="824" on="1"/>
        <pt x="75" y="796" on="0"/>
        <pt x="101" y="764" on="0"/>
        <pt x="135" y="764" on="1"/>
        <pt x="192" y="764" on="0"/>
        <pt x="197" y="824" on="1"/>
        <pt x="269" y="824" on="1"/>
        <pt x="269" y="766" on="0"/>
        <pt x="200" y="697" on="0"/>
        <pt x="135" y="697" on="1"/>
        <pt x="99" y="697" on="0"/>
        <pt x="48" y="718" on="0"/>
        <pt x="15" y="753" on="0"/>
        <pt x="0" y="799" on="0"/>
        <pt x="0" y="824" on="1"/>
      </contour>
    </TTGlyph>
    <TTGlyph name="Icircumflex" xMin="-27" yMin="0" xMax="299" yMax="829">
      <contour>
        <pt x="195" y="630" on="1"/>
        <pt x="195" y="0" on="1"/>
        <pt x="73" y="0" on="1"/>
        <pt x="73" y="630" on="1"/>
      </contour>
      <contour>
        <pt x="90" y="829" on="1"/>
        <pt x="179" y="829" on="1"/>
        <pt x="299" y="700" on="1"/>
        <pt x="204" y="700" on="1"/>
        <pt x="134" y="774" on="1"/>
        <pt x="64" y="700" on="1"/>
        <pt x="-27" y="700" on="1"/>
      </contour>
    </TTGlyph>
    <TTGlyph name="Idieresis" xMin="-19" yMin="0" xMax="284" yMax="812">
      <contour>
        <pt x="195" y="630" on="1"/>
        <pt x="195" y="0" on="1"/>
        <pt x="73" y="0" on="1"/>
        <pt x="73" y="630" on="1"/>
      </contour>
      <contour>
        <pt x="-19" y="754" on="1"/>
        <pt x="-19" y="777" on="0"/>
        <pt x="15" y="812" on="0"/>
        <pt x="40" y="812" on="1"/>
        <pt x="64" y="812" on="0"/>
        <pt x="98" y="777" on="0"/>
        <pt x="98" y="754" on="1"/>
        <pt x="98" y="729" on="0"/>
        <pt x="64" y="694" on="0"/>
        <pt x="40" y="694" on="1"/>
        <pt x="15" y="694" on="0"/>
        <pt x="-19" y="729" on="0"/>
      </contour>
      <contour>
        <pt x="166" y="754" on="1"/>
        <pt x="166" y="777" on="0"/>
        <pt x="201" y="812" on="0"/>
        <pt x="225" y="812" on="1"/>
        <pt x="250" y="812" on="0"/>
        <pt x="284" y="777" on="0"/>
        <pt x="284" y="754" on="1"/>
        <pt x="284" y="729" on="0"/>
        <pt x="250" y="694" on="0"/>
        <pt x="225" y="694" on="1"/>
        <pt x="201" y="694" on="0"/>
        <pt x="166" y="729" on="0"/>
      </contour>
    </TTGlyph>
    <TTGlyph name="Idotaccent" xMin="71" yMin="0" xMax="195" yMax="818">
      <contour>
        <pt x="195" y="630" on="1"/>
        <pt x="195" y="0" on="1"/>
        <pt x="73" y="0" on="1"/>
        <pt x="73" y="630" on="1"/>
      </contour>
      <contour>
        <pt x="71" y="757" on="1"/>
        <pt x="71" y="782" on="0"/>
        <pt x="107" y="818" on="0"/>
        <pt x="133" y="818" on="1"/>
        <pt x="159" y="818" on="0"/>
        <pt x="194" y="782" on="0"/>
        <pt x="194" y="757" on="1"/>
        <pt x="194" y="731" on="0"/>
        <pt x="159" y="694" on="0"/>
        <pt x="133" y="694" on="1"/>
        <pt x="107" y="694" on="0"/>
        <pt x="71" y="731" on="0"/>
      </contour>
    </TTGlyph>
    <TTGlyph name="Igrave" xMin="-31" yMin="0" xMax="195" yMax="824">
      <contour>
        <pt x="195" y="630" on="1"/>
        <pt x="195" y="0" on="1"/>
        <pt x="73" y="0" on="1"/>
        <pt x="73" y="630" on="1"/>
      </contour>
      <contour>
        <pt x="-31" y="824" on="1"/>
        <pt x="100" y="824" on="1"/>
        <pt x="180" y="700" on="1"/>
        <pt x="83" y="700" on="1"/>
      </contour>
    </TTGlyph>
    <TTGlyph name="Imacron" xMin="9" yMin="0" xMax="261" yMax="772">
      <contour>
        <pt x="195" y="630" on="1"/>
        <pt x="195" y="0" on="1"/>
        <pt x="73" y="0" on="1"/>
        <pt x="73" y="630" on="1"/>
      </contour>
      <contour>
        <pt x="261" y="772" on="1"/>
        <pt x="261" y="700" on="1"/>
        <pt x="9" y="700" on="1"/>
        <pt x="9" y="772" on="1"/>
      </contour>
    </TTGlyph>
    <TTGlyph name="Iogonek" xMin="14" yMin="-206" xMax="205" yMax="630">
      <contour>
        <pt x="195" y="630" on="1"/>
        <pt x="195" y="0" on="1"/>
        <pt x="162" y="0" on="1"/>
        <pt x="133" y="-19" on="0"/>
        <pt x="96" y="-61" on="0"/>
        <pt x="96" y="-85" on="1"/>
        <pt x="96" y="-107" on="0"/>
        <pt x="122" y="-131" on="0"/>
        <pt x="144" y="-131" on="1"/>
        <pt x="169" y="-131" on="0"/>
        <pt x="188" y="-123" on="1"/>
        <pt x="205" y="-185" on="1"/>
        <pt x="188" y="-195" on="0"/>
        <pt x="145" y="-206" on="0"/>
        <pt x="121" y="-206" on="1"/>
        <pt x="75" y="-206" on="0"/>
        <pt x="14" y="-152" on="0"/>
        <pt x="14" y="-105" on="1"/>
        <pt x="14" y="-67" on="0"/>
        <pt x="52" y="-16" on="0"/>
        <pt x="73" y="0" on="1"/>
        <pt x="73" y="630" on="1"/>
      </contour>
    </TTGlyph>
    <TTGlyph name="Iri.gm" xMin="-30" yMin="-9" xMax="592" yMax="588">
      <contour>
        <pt x="-30" y="588" on="1"/>
        <pt x="592" y="588" on="1"/>
        <pt x="592" y="504" on="1"/>
        <pt x="498" y="504" on="1"/>
        <pt x="498" y="266" on="1"/>
        <pt x="314" y="266" on="1"/>
        <pt x="260" y="266" on="0"/>
        <pt x="170" y="228" on="0"/>
        <pt x="140" y="180" on="1"/>
        <pt x="166" y="135" on="0"/>
        <pt x="272" y="76" on="0"/>
        <pt x="344" y="76" on="1"/>
        <pt x="395" y="76" on="0"/>
        <pt x="469" y="106" on="0"/>
        <pt x="489" y="119" on="1"/>
        <pt x="532" y="50" on="1"/>
        <pt x="506" y="26" on="0"/>
        <pt x="404" y="-9" on="0"/>
        <pt x="341" y="-9" on="1"/>
        <pt x="230" y="-9" on="0"/>
        <pt x="68" y="92" on="0"/>
        <pt x="32" y="178" on="1"/>
        <pt x="60" y="237" on="0"/>
        <pt x="135" y="302" on="0"/>
        <pt x="170" y="317" on="1"/>
        <pt x="124" y="343" on="0"/>
        <pt x="66" y="443" on="0"/>
        <pt x="60" y="504" on="1"/>
        <pt x="-30" y="504" on="1"/>
      </contour>
      <contour>
        <pt x="393" y="351" on="1"/>
        <pt x="393" y="504" on="1"/>
        <pt x="165" y="504" on="1"/>
        <pt x="168" y="474" on="0"/>
        <pt x="191" y="420" on="0"/>
        <pt x="228" y="378" on="0"/>
        <pt x="278" y="352" on="0"/>
        <pt x="308" y="351" on="1"/>
      </contour>
    </TTGlyph>
    <TTGlyph name="Ismall" xMin="69" yMin="0" xMax="187" yMax="475">
      <contour>
        <pt x="187" y="475" on="1"/>
        <pt x="187" y="0" on="1"/>
        <pt x="69" y="0" on="1"/>
        <pt x="69" y="475" on="1"/>
      </contour>
    </TTGlyph>
    <TTGlyph name="Itilde" xMin="-22" yMin="0" xMax="281" yMax="819">
      <contour>
        <pt x="195" y="630" on="1"/>
        <pt x="195" y="0" on="1"/>
        <pt x="73" y="0" on="1"/>
        <pt x="73" y="630" on="1"/>
      </contour>
      <contour>
        <pt x="-22" y="700" on="1"/>
        <pt x="-22" y="748" on="0"/>
        <pt x="23" y="816" on="0"/>
        <pt x="68" y="816" on="1"/>
        <pt x="87" y="816" on="0"/>
        <pt x="118" y="804" on="0"/>
        <pt x="146" y="789" on="0"/>
        <pt x="172" y="777" on="0"/>
        <pt x="187" y="777" on="1"/>
        <pt x="204" y="777" on="0"/>
        <pt x="220" y="802" on="0"/>
        <pt x="221" y="819" on="1"/>
        <pt x="281" y="819" on="1"/>
        <pt x="281" y="771" on="0"/>
        <pt x="237" y="704" on="0"/>
        <pt x="196" y="704" on="1"/>
        <pt x="176" y="704" on="0"/>
        <pt x="140" y="716" on="0"/>
        <pt x="110" y="730" on="0"/>
        <pt x="84" y="742" on="0"/>
        <pt x="73" y="742" on="1"/>
        <pt x="54" y="742" on="0"/>
        <pt x="40" y="717" on="0"/>
        <pt x="38" y="700" on="1"/>
      </contour>
    </TTGlyph>
    <TTGlyph name="J" xMin="-18" yMin="-165" xMax="214" yMax="630">
      <contour>
        <pt x="214" y="630" on="1"/>
        <pt x="214" y="115" on="1"/>
        <pt x="214" y="39" on="0"/>
        <pt x="196" y="-56" on="0"/>
        <pt x="166" y="-93" on="1"/>
        <pt x="134" y="-133" on="0"/>
        <pt x="36" y="-165" on="0"/>
        <pt x="-18" y="-165" on="1"/>
        <pt x="-18" y="-70" on="1"/>
        <pt x="10" y="-70" on="0"/>
        <pt x="49" y="-53" on="0"/>
        <pt x="63" y="-39" on="1"/>
        <pt x="81" y="-22" on="0"/>
        <pt x="92" y="32" on="0"/>
        <pt x="92" y="64" on="1"/>
        <pt x="92" y="630" on="1"/>
      </contour>
    </TTGlyph>
    <TTGlyph name="Ja.gm" xMin="-20" yMin="0" xMax="627" yMax="588">
      <contour>
        <pt x="-20" y="588" on="1"/>
        <pt x="627" y="588" on="1"/>
        <pt x="627" y="504" on="1"/>
        <pt x="532" y="504" on="1"/>
        <pt x="532" y="0" on="1"/>
        <pt x="427" y="0" on="1"/>
        <pt x="427" y="246" on="1"/>
        <pt x="206" y="246" on="1"/>
        <pt x="206" y="0" on="1"/>
        <pt x="100" y="0" on="1"/>
        <pt x="100" y="243" on="1"/>
        <pt x="76" y="246" on="0"/>
        <pt x="34" y="277" on="0"/>
        <pt x="34" y="311" on="1"/>
        <pt x="34" y="333" on="0"/>
        <pt x="53" y="369" on="0"/>
        <pt x="84" y="396" on="0"/>
        <pt x="124" y="411" on="0"/>
        <pt x="145" y="411" on="1"/>
        <pt x="168" y="411" on="0"/>
        <pt x="197" y="402" on="0"/>
        <pt x="206" y="395" on="1"/>
        <pt x="206" y="331" on="1"/>
        <pt x="427" y="331" on="1"/>
        <pt x="427" y="504" on="1"/>
        <pt x="-20" y="504" on="1"/>
      </contour>
    </TTGlyph>
    <TTGlyph name="JaVirama.gm" xMin="-25" yMin="-300" xMax="704" yMax="588">
      <contour>
        <pt x="-25" y="588" on="1"/>
        <pt x="622" y="588" on="1"/>
        <pt x="622" y="504" on="1"/>
        <pt x="527" y="504" on="1"/>
        <pt x="527" y="0" on="1"/>
        <pt x="422" y="0" on="1"/>
        <pt x="422" y="246" on="1"/>
        <pt x="201" y="246" on="1"/>
        <pt x="201" y="0" on="1"/>
        <pt x="95" y="0" on="1"/>
        <pt x="95" y="243" on="1"/>
        <pt x="71" y="246" on="0"/>
        <pt x="29" y="277" on="0"/>
        <pt x="29" y="311" on="1"/>
        <pt x="29" y="333" on="0"/>
        <pt x="48" y="369" on="0"/>
        <pt x="79" y="396" on="0"/>
        <pt x="119" y="411" on="0"/>
        <pt x="140" y="411" on="1"/>
        <pt x="163" y="411" on="0"/>
        <pt x="192" y="402" on="0"/>
        <pt x="201" y="395" on="1"/>
        <pt x="201" y="331" on="1"/>
        <pt x="422" y="331" on="1"/>
        <pt x="422" y="504" on="1"/>
        <pt x="-25" y="504" on="1"/>
      </contour>
      <contour>
        <pt x="704" y="-235" on="1"/>
        <pt x="650" y="-300" on="1"/>
        <pt x="421" y="-133" on="1"/>
        <pt x="484" y="-53" on="1"/>
      </contour>
    </TTGlyph>
    <TTGlyph name="Jcircumflex" xMin="-18" yMin="-165" xMax="319" yMax="829">
      <contour>
        <pt x="214" y="630" on="1"/>
        <pt x="214" y="115" on="1"/>
        <pt x="214" y="39" on="0"/>
        <pt x="196" y="-56" on="0"/>
        <pt x="166" y="-93" on="1"/>
        <pt x="134" y="-133" on="0"/>
        <pt x="36" y="-165" on="0"/>
        <pt x="-18" y="-165" on="1"/>
        <pt x="-18" y="-70" on="1"/>
        <pt x="10" y="-70" on="0"/>
        <pt x="49" y="-53" on="0"/>
        <pt x="63" y="-39" on="1"/>
        <pt x="81" y="-22" on="0"/>
        <pt x="92" y="32" on="0"/>
        <pt x="92" y="64" on="1"/>
        <pt x="92" y="630" on="1"/>
      </contour>
      <contour>
        <pt x="110" y="829" on="1"/>
        <pt x="199" y="829" on="1"/>
        <pt x="319" y="700" on="1"/>
        <pt x="224" y="700" on="1"/>
        <pt x="154" y="774" on="1"/>
        <pt x="84" y="700" on="1"/>
        <pt x="-7" y="700" on="1"/>
      </contour>
    </TTGlyph>
    <TTGlyph name="Jha.gm" xMin="-40" yMin="-113" xMax="585" yMax="588">
      <contour>
        <pt x="404" y="199" on="1"/>
        <pt x="404" y="244" on="0"/>
        <pt x="330" y="303" on="0"/>
        <pt x="254" y="303" on="1"/>
        <pt x="203" y="303" on="0"/>
        <pt x="106" y="284" on="0"/>
        <pt x="72" y="275" on="1"/>
        <pt x="51" y="355" on="1"/>
        <pt x="68" y="360" on="0"/>
        <pt x="108" y="368" on="0"/>
        <pt x="128" y="371" on="1"/>
        <pt x="105" y="390" on="0"/>
        <pt x="61" y="456" on="0"/>
        <pt x="50" y="504" on="1"/>
        <pt x="-40" y="504" on="1"/>
        <pt x="-40" y="588" on="1"/>
        <pt x="585" y="588" on="1"/>
        <pt x="585" y="504" on="1"/>
        <pt x="504" y="504" on="1"/>
        <pt x="494" y="447" on="0"/>
        <pt x="435" y="369" on="0"/>
        <pt x="400" y="348" on="1"/>
        <pt x="452" y="329" on="0"/>
        <pt x="510" y="245" on="0"/>
        <pt x="510" y="194" on="1"/>
        <pt x="510" y="152" on="0"/>
        <pt x="474" y="87" on="0"/>
        <pt x="412" y="43" on="0"/>
        <pt x="326" y="18" on="0"/>
        <pt x="277" y="17" on="1"/>
        <pt x="333" y="-78" on="1"/>
        <pt x="244" y="-113" on="1"/>
        <pt x="185" y="15" on="1"/>
        <pt x="125" y="21" on="0"/>
        <pt x="59" y="81" on="0"/>
        <pt x="59" y="121" on="1"/>
        <pt x="59" y="156" on="0"/>
        <pt x="106" y="195" on="0"/>
        <pt x="135" y="195" on="1"/>
        <pt x="143" y="195" on="0"/>
        <pt x="154" y="195" on="0"/>
        <pt x="162" y="193" on="1"/>
        <pt x="227" y="101" on="1"/>
        <pt x="235" y="100" on="0"/>
        <pt x="254" y="99" on="0"/>
        <pt x="256" y="99" on="1"/>
        <pt x="326" y="100" on="0"/>
        <pt x="404" y="154" on="0"/>
      </contour>
      <contour>
        <pt x="155" y="504" on="1"/>
        <pt x="166" y="449" on="0"/>
        <pt x="233" y="383" on="0"/>
        <pt x="278" y="383" on="1"/>
        <pt x="283" y="383" on="1"/>
        <pt x="324" y="385" on="0"/>
        <pt x="386" y="450" on="0"/>
        <pt x="397" y="504" on="1"/>
      </contour>
    </TTGlyph>
    <TTGlyph name="JhaVirama.gm" xMin="-40" yMin="-300" xMax="624" yMax="588">
      <contour>
        <pt x="404" y="199" on="1"/>
        <pt x="404" y="244" on="0"/>
        <pt x="330" y="303" on="0"/>
        <pt x="254" y="303" on="1"/>
        <pt x="203" y="303" on="0"/>
        <pt x="106" y="284" on="0"/>
        <pt x="72" y="275" on="1"/>
        <pt x="51" y="355" on="1"/>
        <pt x="68" y="360" on="0"/>
        <pt x="108" y="368" on="0"/>
        <pt x="128" y="371" on="1"/>
        <pt x="105" y="390" on="0"/>
        <pt x="61" y="456" on="0"/>
        <pt x="50" y="504" on="1"/>
        <pt x="-40" y="504" on="1"/>
        <pt x="-40" y="588" on="1"/>
        <pt x="585" y="588" on="1"/>
        <pt x="585" y="504" on="1"/>
        <pt x="504" y="504" on="1"/>
        <pt x="494" y="447" on="0"/>
        <pt x="435" y="369" on="0"/>
        <pt x="400" y="348" on="1"/>
        <pt x="452" y="329" on="0"/>
        <pt x="510" y="245" on="0"/>
        <pt x="510" y="194" on="1"/>
        <pt x="510" y="152" on="0"/>
        <pt x="474" y="87" on="0"/>
        <pt x="412" y="43" on="0"/>
        <pt x="326" y="18" on="0"/>
        <pt x="277" y="17" on="1"/>
        <pt x="333" y="-78" on="1"/>
        <pt x="244" y="-113" on="1"/>
        <pt x="185" y="15" on="1"/>
        <pt x="125" y="21" on="0"/>
        <pt x="59" y="81" on="0"/>
        <pt x="59" y="121" on="1"/>
        <pt x="59" y="156" on="0"/>
        <pt x="106" y="195" on="0"/>
        <pt x="135" y="195" on="1"/>
        <pt x="143" y="195" on="0"/>
        <pt x="154" y="195" on="0"/>
        <pt x="162" y="193" on="1"/>
        <pt x="227" y="101" on="1"/>
        <pt x="235" y="100" on="0"/>
        <pt x="254" y="99" on="0"/>
        <pt x="256" y="99" on="1"/>
        <pt x="326" y="100" on="0"/>
        <pt x="404" y="154" on="0"/>
      </contour>
      <contour>
        <pt x="155" y="504" on="1"/>
        <pt x="166" y="449" on="0"/>
        <pt x="233" y="383" on="0"/>
        <pt x="278" y="383" on="1"/>
        <pt x="283" y="383" on="1"/>
        <pt x="324" y="385" on="0"/>
        <pt x="386" y="450" on="0"/>
        <pt x="397" y="504" on="1"/>
      </contour>
      <contour>
        <pt x="624" y="-235" on="1"/>
        <pt x="570" y="-300" on="1"/>
        <pt x="341" y="-133" on="1"/>
        <pt x="404" y="-53" on="1"/>
      </contour>
    </TTGlyph>
    <TTGlyph name="Jsmall" xMin="-8" yMin="-173" xMax="190" yMax="475">
      <contour>
        <pt x="190" y="475" on="1"/>
        <pt x="190" y="73" on="1"/>
        <pt x="190" y="19" on="0"/>
        <pt x="179" y="-66" on="0"/>
        <pt x="156" y="-101" on="1"/>
        <pt x="129" y="-143" on="0"/>
        <pt x="46" y="-173" on="0"/>
        <pt x="-8" y="-173" on="1"/>
        <pt x="-8" y="-81" on="1"/>
        <pt x="9" y="-81" on="0"/>
        <pt x="46" y="-68" on="0"/>
        <pt x="57" y="-49" on="1"/>
        <pt x="67" y="-32" on="0"/>
        <pt x="72" y="21" on="0"/>
        <pt x="72" y="44" on="1"/>
        <pt x="72" y="475" on="1"/>
      </contour>
    </TTGlyph>
    <TTGlyph name="K" xMin="73" yMin="0" xMax="599" yMax="630">
      <contour>
        <pt x="73" y="0" on="1"/>
        <pt x="73" y="630" on="1"/>
        <pt x="195" y="630" on="1"/>
        <pt x="195" y="358" on="1"/>
        <pt x="427" y="630" on="1"/>
        <pt x="579" y="630" on="1"/>
        <pt x="335" y="354" on="1"/>
        <pt x="599" y="0" on="1"/>
        <pt x="448" y="0" on="1"/>
        <pt x="247" y="275" on="1"/>
        <pt x="195" y="219" on="1"/>
        <pt x="195" y="0" on="1"/>
      </contour>
    </TTGlyph>
    <TTGlyph name="Ka.gm" xMin="-30" yMin="0" xMax="620" yMax="588">
      <contour>
        <pt x="-30" y="588" on="1"/>
        <pt x="620" y="588" on="1"/>
        <pt x="620" y="504" on="1"/>
        <pt x="541" y="504" on="1"/>
        <pt x="539" y="429" on="0"/>
        <pt x="504" y="296" on="0"/>
        <pt x="472" y="242" on="1"/>
        <pt x="484" y="220" on="0"/>
        <pt x="507" y="165" on="0"/>
        <pt x="527" y="102" on="0"/>
        <pt x="541" y="34" on="0"/>
        <pt x="543" y="0" on="1"/>
        <pt x="438" y="0" on="1"/>
        <pt x="433" y="44" on="0"/>
        <pt x="415" y="131" on="0"/>
        <pt x="404" y="166" on="1"/>
        <pt x="375" y="135" on="0"/>
        <pt x="283" y="91" on="0"/>
        <pt x="223" y="91" on="1"/>
        <pt x="182" y="91" on="0"/>
        <pt x="112" y="112" on="0"/>
        <pt x="60" y="154" on="0"/>
        <pt x="30" y="215" on="0"/>
        <pt x="30" y="256" on="1"/>
        <pt x="30" y="294" on="0"/>
        <pt x="59" y="355" on="0"/>
        <pt x="110" y="398" on="0"/>
        <pt x="181" y="421" on="0"/>
        <pt x="223" y="421" on="1"/>
        <pt x="282" y="421" on="0"/>
        <pt x="375" y="370" on="0"/>
        <pt x="407" y="332" on="1"/>
        <pt x="418" y="365" on="0"/>
        <pt x="434" y="453" on="0"/>
        <pt x="436" y="504" on="1"/>
        <pt x="-30" y="504" on="1"/>
      </contour>
      <contour>
        <pt x="232" y="176" on="1"/>
        <pt x="278" y="176" on="0"/>
        <pt x="351" y="223" on="0"/>
        <pt x="372" y="253" on="1"/>
        <pt x="343" y="294" on="0"/>
        <pt x="269" y="335" on="0"/>
        <pt x="230" y="335" on="1"/>
        <pt x="180" y="335" on="0"/>
        <pt x="135" y="288" on="0"/>
        <pt x="135" y="256" on="1"/>
        <pt x="135" y="218" on="0"/>
        <pt x="189" y="176" on="0"/>
      </contour>
    </TTGlyph>
    <TTGlyph name="KaVirama.gm" xMin="-30" yMin="-300" xMax="767" yMax="588">
      <contour>
        <pt x="-30" y="588" on="1"/>
        <pt x="620" y="588" on="1"/>
        <pt x="620" y="504" on="1"/>
        <pt x="541" y="504" on="1"/>
        <pt x="539" y="429" on="0"/>
        <pt x="504" y="296" on="0"/>
        <pt x="472" y="242" on="1"/>
        <pt x="484" y="220" on="0"/>
        <pt x="507" y="165" on="0"/>
        <pt x="527" y="102" on="0"/>
        <pt x="541" y="34" on="0"/>
        <pt x="543" y="0" on="1"/>
        <pt x="438" y="0" on="1"/>
        <pt x="433" y="44" on="0"/>
        <pt x="415" y="131" on="0"/>
        <pt x="404" y="166" on="1"/>
        <pt x="375" y="135" on="0"/>
        <pt x="283" y="91" on="0"/>
        <pt x="223" y="91" on="1"/>
        <pt x="182" y="91" on="0"/>
        <pt x="112" y="112" on="0"/>
        <pt x="60" y="154" on="0"/>
        <pt x="30" y="215" on="0"/>
        <pt x="30" y="256" on="1"/>
        <pt x="30" y="294" on="0"/>
        <pt x="59" y="355" on="0"/>
        <pt x="110" y="398" on="0"/>
        <pt x="181" y="421" on="0"/>
        <pt x="223" y="421" on="1"/>
        <pt x="282" y="421" on="0"/>
        <pt x="375" y="370" on="0"/>
        <pt x="407" y="332" on="1"/>
        <pt x="418" y="365" on="0"/>
        <pt x="434" y="453" on="0"/>
        <pt x="436" y="504" on="1"/>
        <pt x="-30" y="504" on="1"/>
      </contour>
      <contour>
        <pt x="232" y="176" on="1"/>
        <pt x="278" y="176" on="0"/>
        <pt x="351" y="223" on="0"/>
        <pt x="372" y="253" on="1"/>
        <pt x="343" y="294" on="0"/>
        <pt x="269" y="335" on="0"/>
        <pt x="230" y="335" on="1"/>
        <pt x="180" y="335" on="0"/>
        <pt x="135" y="288" on="0"/>
        <pt x="135" y="256" on="1"/>
        <pt x="135" y="218" on="0"/>
        <pt x="189" y="176" on="0"/>
      </contour>
      <contour>
        <pt x="767" y="-235" on="1"/>
        <pt x="713" y="-300" on="1"/>
        <pt x="484" y="-133" on="1"/>
        <pt x="547" y="-53" on="1"/>
      </contour>
    </TTGlyph>
    <TTGlyph name="KaViramaRa.gm" xMin="-30" yMin="-252" xMax="717" yMax="588">
      <contour>
        <pt x="-30" y="588" on="1"/>
        <pt x="620" y="588" on="1"/>
        <pt x="620" y="504" on="1"/>
        <pt x="541" y="504" on="1"/>
        <pt x="539" y="430" on="0"/>
        <pt x="504" y="297" on="0"/>
        <pt x="472" y="243" on="1"/>
        <pt x="497" y="200" on="0"/>
        <pt x="536" y="67" on="0"/>
        <pt x="536" y="-31" on="1"/>
        <pt x="536" y="-112" on="1"/>
        <pt x="717" y="-175" on="1"/>
        <pt x="686" y="-252" on="1"/>
        <pt x="508" y="-170" on="1"/>
        <pt x="493" y="-176" on="0"/>
        <pt x="456" y="-185" on="0"/>
        <pt x="433" y="-185" on="1"/>
        <pt x="367" y="-185" on="0"/>
        <pt x="302" y="-134" on="0"/>
        <pt x="302" y="-99" on="1"/>
        <pt x="302" y="-77" on="0"/>
        <pt x="321" y="-49" on="0"/>
        <pt x="330" y="-43" on="1"/>
        <pt x="431" y="-74" on="1"/>
        <pt x="431" y="-31" on="1"/>
        <pt x="431" y="42" on="0"/>
        <pt x="417" y="133" on="0"/>
        <pt x="404" y="166" on="1"/>
        <pt x="375" y="135" on="0"/>
        <pt x="283" y="91" on="0"/>
        <pt x="223" y="91" on="1"/>
        <pt x="182" y="91" on="0"/>
        <pt x="112" y="112" on="0"/>
        <pt x="60" y="154" on="0"/>
        <pt x="30" y="215" on="0"/>
        <pt x="30" y="256" on="1"/>
        <pt x="30" y="294" on="0"/>
        <pt x="59" y="355" on="0"/>
        <pt x="110" y="398" on="0"/>
        <pt x="181" y="421" on="0"/>
        <pt x="223" y="421" on="1"/>
        <pt x="280" y="421" on="0"/>
        <pt x="375" y="371" on="0"/>
        <pt x="407" y="333" on="1"/>
        <pt x="418" y="365" on="0"/>
        <pt x="434" y="453" on="0"/>
        <pt x="436" y="504" on="1"/>
        <pt x="-30" y="504" on="1"/>
      </contour>
      <contour>
        <pt x="232" y="176" on="1"/>
        <pt x="278" y="176" on="0"/>
        <pt x="351" y="223" on="0"/>
        <pt x="372" y="253" on="1"/>
        <pt x="343" y="294" on="0"/>
        <pt x="269" y="335" on="0"/>
        <pt x="230" y="335" on="1"/>
        <pt x="180" y="335" on="0"/>
        <pt x="135" y="288" on="0"/>
        <pt x="135" y="256" on="1"/>
        <pt x="135" y="218" on="0"/>
        <pt x="189" y="176" on="0"/>
      </contour>
    </TTGlyph>
    <TTGlyph name="Kcommaaccent" xMin="73" yMin="-329" xMax="599" yMax="630">
      <contour>
        <pt x="73" y="0" on="1"/>
        <pt x="73" y="630" on="1"/>
        <pt x="195" y="630" on="1"/>
        <pt x="195" y="358" on="1"/>
        <pt x="427" y="630" on="1"/>
        <pt x="579" y="630" on="1"/>
        <pt x="335" y="354" on="1"/>
        <pt x="599" y="0" on="1"/>
        <pt x="448" y="0" on="1"/>
        <pt x="247" y="275" on="1"/>
        <pt x="195" y="219" on="1"/>
        <pt x="195" y="0" on="1"/>
      </contour>
      <contour>
        <pt x="302" y="-193" on="1"/>
        <pt x="280" y="-188" on="0"/>
        <pt x="246" y="-156" on="0"/>
        <pt x="246" y="-129" on="1"/>
        <pt x="246" y="-103" on="0"/>
        <pt x="280" y="-65" on="0"/>
        <pt x="311" y="-65" on="1"/>
        <pt x="323" y="-65" on="0"/>
        <pt x="350" y="-75" on="0"/>
        <pt x="373" y="-98" on="0"/>
        <pt x="387" y="-134" on="0"/>
        <pt x="387" y="-160" on="1"/>
        <pt x="387" y="-186" on="0"/>
        <pt x="369" y="-236" on="0"/>
        <pt x="338" y="-281" on="0"/>
        <pt x="297" y="-317" on="0"/>
        <pt x="275" y="-329" on="1"/>
        <pt x="246" y="-289" on="1"/>
        <pt x="273" y="-274" on="0"/>
        <pt x="315" y="-223" on="0"/>
        <pt x="319" y="-196" on="1"/>
      </contour>
    </TTGlyph>
    <TTGlyph name="Kha.gm" xMin="-30" yMin="0" xMax="614" yMax="588">
      <contour>
        <pt x="148" y="588" on="1"/>
        <pt x="157" y="573" on="0"/>
        <pt x="175" y="535" on="0"/>
        <pt x="191" y="489" on="0"/>
        <pt x="201" y="438" on="0"/>
        <pt x="201" y="411" on="1"/>
        <pt x="201" y="406" on="1"/>
        <pt x="414" y="406" on="1"/>
        <pt x="414" y="588" on="1"/>
        <pt x="614" y="588" on="1"/>
        <pt x="614" y="504" on="1"/>
        <pt x="519" y="504" on="1"/>
        <pt x="519" y="0" on="1"/>
        <pt x="414" y="0" on="1"/>
        <pt x="414" y="124" on="1"/>
        <pt x="391" y="111" on="0"/>
        <pt x="328" y="95" on="0"/>
        <pt x="286" y="95" on="1"/>
        <pt x="203" y="95" on="0"/>
        <pt x="74" y="166" on="0"/>
        <pt x="39" y="230" on="1"/>
        <pt x="65" y="275" on="0"/>
        <pt x="96" y="366" on="0"/>
        <pt x="96" y="416" on="1"/>
        <pt x="96" y="442" on="0"/>
        <pt x="88" y="486" on="0"/>
        <pt x="81" y="504" on="1"/>
        <pt x="-30" y="504" on="1"/>
        <pt x="-30" y="588" on="1"/>
      </contour>
      <contour>
        <pt x="290" y="180" on="1"/>
        <pt x="332" y="180" on="0"/>
        <pt x="392" y="202" on="0"/>
        <pt x="414" y="220" on="1"/>
        <pt x="414" y="328" on="1"/>
        <pt x="191" y="328" on="1"/>
        <pt x="185" y="303" on="0"/>
        <pt x="166" y="258" on="0"/>
        <pt x="154" y="236" on="1"/>
        <pt x="173" y="210" on="0"/>
        <pt x="246" y="180" on="0"/>
      </contour>
    </TTGlyph>
    <TTGlyph name="KhaVirama.gm" xMin="-30" yMin="-300" xMax="694" yMax="588">
      <contour>
        <pt x="148" y="588" on="1"/>
        <pt x="157" y="573" on="0"/>
        <pt x="175" y="535" on="0"/>
        <pt x="191" y="489" on="0"/>
        <pt x="201" y="438" on="0"/>
        <pt x="201" y="411" on="1"/>
        <pt x="201" y="406" on="1"/>
        <pt x="414" y="406" on="1"/>
        <pt x="414" y="588" on="1"/>
        <pt x="614" y="588" on="1"/>
        <pt x="614" y="504" on="1"/>
        <pt x="519" y="504" on="1"/>
        <pt x="519" y="0" on="1"/>
        <pt x="414" y="0" on="1"/>
        <pt x="414" y="124" on="1"/>
        <pt x="391" y="111" on="0"/>
        <pt x="328" y="95" on="0"/>
        <pt x="286" y="95" on="1"/>
        <pt x="203" y="95" on="0"/>
        <pt x="74" y="166" on="0"/>
        <pt x="39" y="230" on="1"/>
        <pt x="65" y="275" on="0"/>
        <pt x="96" y="366" on="0"/>
        <pt x="96" y="416" on="1"/>
        <pt x="96" y="442" on="0"/>
        <pt x="88" y="486" on="0"/>
        <pt x="81" y="504" on="1"/>
        <pt x="-30" y="504" on="1"/>
        <pt x="-30" y="588" on="1"/>
      </contour>
      <contour>
        <pt x="290" y="180" on="1"/>
        <pt x="332" y="180" on="0"/>
        <pt x="392" y="202" on="0"/>
        <pt x="414" y="220" on="1"/>
        <pt x="414" y="328" on="1"/>
        <pt x="191" y="328" on="1"/>
        <pt x="185" y="303" on="0"/>
        <pt x="166" y="258" on="0"/>
        <pt x="154" y="236" on="1"/>
        <pt x="173" y="210" on="0"/>
        <pt x="246" y="180" on="0"/>
      </contour>
      <contour>
        <pt x="694" y="-235" on="1"/>
        <pt x="640" y="-300" on="1"/>
        <pt x="411" y="-133" on="1"/>
        <pt x="474" y="-53" on="1"/>
      </contour>
    </TTGlyph>
    <TTGlyph name="Khanda.gm" xMin="84" yMin="-39" xMax="711" yMax="696">
      <contour>
        <pt x="361" y="-1" on="1"/>
        <pt x="361" y="18" on="0"/>
        <pt x="376" y="30" on="1"/>
        <pt x="376" y="82" on="1"/>
        <pt x="360" y="74" on="0"/>
        <pt x="332" y="59" on="0"/>
        <pt x="321" y="54" on="1"/>
        <pt x="323" y="52" on="0"/>
        <pt x="327" y="42" on="0"/>
        <pt x="327" y="38" on="1"/>
        <pt x="327" y="24" on="0"/>
        <pt x="308" y="7" on="0"/>
        <pt x="293" y="7" on="1"/>
        <pt x="278" y="7" on="0"/>
        <pt x="259" y="26" on="0"/>
        <pt x="259" y="40" on="1"/>
        <pt x="259" y="62" on="0"/>
        <pt x="284" y="75" on="1"/>
        <pt x="301" y="83" on="0"/>
        <pt x="337" y="101" on="0"/>
        <pt x="358" y="110" on="1"/>
        <pt x="336" y="121" on="0"/>
        <pt x="289" y="148" on="0"/>
        <pt x="269" y="160" on="1"/>
        <pt x="220" y="96" on="1"/>
        <pt x="196" y="129" on="0"/>
        <pt x="148" y="195" on="0"/>
        <pt x="109" y="266" on="0"/>
        <pt x="84" y="344" on="0"/>
        <pt x="84" y="389" on="1"/>
        <pt x="84" y="445" on="0"/>
        <pt x="140" y="542" on="0"/>
        <pt x="199" y="579" on="1"/>
        <pt x="188" y="565" on="0"/>
        <pt x="170" y="538" on="0"/>
        <pt x="157" y="505" on="0"/>
        <pt x="149" y="463" on="0"/>
        <pt x="149" y="435" on="1"/>
        <pt x="149" y="396" on="0"/>
        <pt x="171" y="321" on="0"/>
        <pt x="224" y="249" on="0"/>
        <pt x="312" y="178" on="0"/>
        <pt x="377" y="143" on="1"/>
        <pt x="377" y="194" on="1"/>
        <pt x="363" y="202" on="0"/>
        <pt x="337" y="218" on="0"/>
        <pt x="327" y="226" on="1"/>
        <pt x="334" y="242" on="0"/>
        <pt x="338" y="259" on="1"/>
        <pt x="312" y="266" on="0"/>
        <pt x="266" y="296" on="0"/>
        <pt x="231" y="339" on="0"/>
        <pt x="210" y="396" on="0"/>
        <pt x="210" y="431" on="1"/>
        <pt x="210" y="494" on="0"/>
        <pt x="283" y="575" on="0"/>
        <pt x="334" y="592" on="1"/>
        <pt x="331" y="601" on="0"/>
        <pt x="324" y="616" on="0"/>
        <pt x="321" y="623" on="1"/>
        <pt x="347" y="636" on="0"/>
        <pt x="387" y="679" on="0"/>
        <pt x="399" y="696" on="1"/>
        <pt x="411" y="679" on="0"/>
        <pt x="451" y="636" on="0"/>
        <pt x="477" y="623" on="1"/>
        <pt x="473" y="616" on="0"/>
        <pt x="467" y="600" on="0"/>
        <pt x="463" y="591" on="1"/>
        <pt x="515" y="574" on="0"/>
        <pt x="585" y="491" on="0"/>
        <pt x="585" y="431" on="1"/>
        <pt x="585" y="397" on="0"/>
        <pt x="564" y="341" on="0"/>
        <pt x="530" y="299" on="0"/>
        <pt x="483" y="269" on="0"/>
        <pt x="458" y="261" on="1"/>
        <pt x="461" y="251" on="0"/>
        <pt x="468" y="234" on="0"/>
        <pt x="471" y="226" on="1"/>
        <pt x="460" y="218" on="0"/>
        <pt x="429" y="199" on="0"/>
        <pt x="415" y="191" on="1"/>
        <pt x="415" y="142" on="1"/>
        <pt x="481" y="177" on="0"/>
        <pt x="570" y="248" on="0"/>
        <pt x="623" y="321" on="0"/>
        <pt x="646" y="396" on="0"/>
        <pt x="646" y="435" on="1"/>
        <pt x="646" y="463" on="0"/>
        <pt x="638" y="505" on="0"/>
        <pt x="625" y="538" on="0"/>
        <pt x="606" y="565" on="0"/>
        <pt x="596" y="579" on="1"/>
        <pt x="655" y="542" on="0"/>
        <pt x="711" y="445" on="0"/>
        <pt x="711" y="389" on="1"/>
        <pt x="711" y="344" on="0"/>
        <pt x="686" y="266" on="0"/>
        <pt x="647" y="195" on="0"/>
        <pt x="599" y="129" on="0"/>
        <pt x="575" y="96" on="1"/>
        <pt x="526" y="160" on="1"/>
        <pt x="506" y="148" on="0"/>
        <pt x="458" y="121" on="0"/>
        <pt x="436" y="110" on="1"/>
        <pt x="509" y="75" on="1"/>
        <pt x="534" y="62" on="0"/>
        <pt x="534" y="40" on="1"/>
        <pt x="534" y="26" on="0"/>
        <pt x="515" y="7" on="0"/>
        <pt x="500" y="7" on="1"/>
        <pt x="485" y="7" on="0"/>
        <pt x="466" y="24" on="0"/>
        <pt x="466" y="38" on="1"/>
        <pt x="466" y="42" on="0"/>
        <pt x="469" y="52" on="0"/>
        <pt x="471" y="54" on="1"/>
        <pt x="460" y="59" on="0"/>
        <pt x="432" y="74" on="0"/>
        <pt x="416" y="82" on="1"/>
        <pt x="416" y="33" on="1"/>
        <pt x="436" y="21" on="0"/>
        <pt x="436" y="-1" on="1"/>
        <pt x="436" y="-17" on="0"/>
        <pt x="414" y="-39" on="0"/>
        <pt x="399" y="-39" on="1"/>
        <pt x="383" y="-39" on="0"/>
        <pt x="361" y="-17" on="0"/>
      </contour>
      <contour>
        <pt x="274" y="431" on="1"/>
        <pt x="274" y="385" on="0"/>
        <pt x="316" y="325" on="0"/>
        <pt x="351" y="312" on="1"/>
        <pt x="356" y="339" on="0"/>
        <pt x="363" y="400" on="0"/>
        <pt x="363" y="432" on="1"/>
        <pt x="363" y="456" on="0"/>
        <pt x="355" y="513" on="0"/>
        <pt x="348" y="540" on="1"/>
        <pt x="316" y="528" on="0"/>
        <pt x="274" y="472" on="0"/>
      </contour>
      <contour>
        <pt x="522" y="431" on="1"/>
        <pt x="522" y="470" on="0"/>
        <pt x="480" y="526" on="0"/>
        <pt x="448" y="539" on="1"/>
        <pt x="442" y="512" on="0"/>
        <pt x="435" y="456" on="0"/>
        <pt x="435" y="432" on="1"/>
        <pt x="435" y="400" on="0"/>
        <pt x="441" y="339" on="0"/>
        <pt x="446" y="312" on="1"/>
        <pt x="481" y="324" on="0"/>
        <pt x="522" y="384" on="0"/>
      </contour>
    </TTGlyph>
    <TTGlyph name="Khha.gm" xMin="-30" yMin="-29" xMax="614" yMax="588">
      <contour>
        <pt x="148" y="588" on="1"/>
        <pt x="157" y="573" on="0"/>
        <pt x="175" y="535" on="0"/>
        <pt x="191" y="489" on="0"/>
        <pt x="201" y="438" on="0"/>
        <pt x="201" y="411" on="1"/>
        <pt x="201" y="406" on="1"/>
        <pt x="414" y="406" on="1"/>
        <pt x="414" y="588" on="1"/>
        <pt x="614" y="588" on="1"/>
        <pt x="614" y="504" on="1"/>
        <pt x="519" y="504" on="1"/>
        <pt x="519" y="0" on="1"/>
        <pt x="414" y="0" on="1"/>
        <pt x="414" y="124" on="1"/>
        <pt x="391" y="111" on="0"/>
        <pt x="328" y="95" on="0"/>
        <pt x="286" y="95" on="1"/>
        <pt x="203" y="95" on="0"/>
        <pt x="74" y="166" on="0"/>
        <pt x="39" y="230" on="1"/>
        <pt x="65" y="275" on="0"/>
        <pt x="96" y="366" on="0"/>
        <pt x="96" y="416" on="1"/>
        <pt x="96" y="442" on="0"/>
        <pt x="88" y="486" on="0"/>
        <pt x="81" y="504" on="1"/>
        <pt x="-30" y="504" on="1"/>
        <pt x="-30" y="588" on="1"/>
      </contour>
      <contour>
        <pt x="290" y="180" on="1"/>
        <pt x="332" y="180" on="0"/>
        <pt x="392" y="202" on="0"/>
        <pt x="414" y="220" on="1"/>
        <pt x="414" y="328" on="1"/>
        <pt x="191" y="328" on="1"/>
        <pt x="185" y="303" on="0"/>
        <pt x="166" y="258" on="0"/>
        <pt x="154" y="236" on="1"/>
        <pt x="173" y="210" on="0"/>
        <pt x="246" y="180" on="0"/>
      </contour>
      <contour>
        <pt x="32" y="26" on="1"/>
        <pt x="32" y="50" on="0"/>
        <pt x="64" y="84" on="0"/>
        <pt x="89" y="84" on="1"/>
        <pt x="114" y="84" on="0"/>
        <pt x="145" y="49" on="0"/>
        <pt x="145" y="26" on="1"/>
        <pt x="145" y="3" on="0"/>
        <pt x="114" y="-29" on="0"/>
        <pt x="89" y="-29" on="1"/>
        <pt x="64" y="-29" on="0"/>
        <pt x="32" y="2" on="0"/>
      </contour>
    </TTGlyph>
    <TTGlyph name="KhhaVirama.gm" xMin="-30" yMin="-300" xMax="694" yMax="588">
      <contour>
        <pt x="148" y="588" on="1"/>
        <pt x="157" y="573" on="0"/>
        <pt x="175" y="535" on="0"/>
        <pt x="191" y="489" on="0"/>
        <pt x="201" y="438" on="0"/>
        <pt x="201" y="411" on="1"/>
        <pt x="201" y="406" on="1"/>
        <pt x="414" y="406" on="1"/>
        <pt x="414" y="588" on="1"/>
        <pt x="614" y="588" on="1"/>
        <pt x="614" y="504" on="1"/>
        <pt x="519" y="504" on="1"/>
        <pt x="519" y="0" on="1"/>
        <pt x="414" y="0" on="1"/>
        <pt x="414" y="124" on="1"/>
        <pt x="391" y="111" on="0"/>
        <pt x="328" y="95" on="0"/>
        <pt x="286" y="95" on="1"/>
        <pt x="203" y="95" on="0"/>
        <pt x="74" y="166" on="0"/>
        <pt x="39" y="230" on="1"/>
        <pt x="65" y="275" on="0"/>
        <pt x="96" y="366" on="0"/>
        <pt x="96" y="416" on="1"/>
        <pt x="96" y="442" on="0"/>
        <pt x="88" y="486" on="0"/>
        <pt x="81" y="504" on="1"/>
        <pt x="-30" y="504" on="1"/>
        <pt x="-30" y="588" on="1"/>
      </contour>
      <contour>
        <pt x="290" y="180" on="1"/>
        <pt x="332" y="180" on="0"/>
        <pt x="392" y="202" on="0"/>
        <pt x="414" y="220" on="1"/>
        <pt x="414" y="328" on="1"/>
        <pt x="191" y="328" on="1"/>
        <pt x="185" y="303" on="0"/>
        <pt x="166" y="258" on="0"/>
        <pt x="154" y="236" on="1"/>
        <pt x="173" y="210" on="0"/>
        <pt x="246" y="180" on="0"/>
      </contour>
      <contour>
        <pt x="16" y="25" on="1"/>
        <pt x="16" y="49" on="0"/>
        <pt x="48" y="83" on="0"/>
        <pt x="73" y="83" on="1"/>
        <pt x="98" y="83" on="0"/>
        <pt x="129" y="48" on="0"/>
        <pt x="129" y="25" on="1"/>
        <pt x="129" y="2" on="0"/>
        <pt x="98" y="-30" on="0"/>
        <pt x="73" y="-30" on="1"/>
        <pt x="48" y="-30" on="0"/>
        <pt x="16" y="1" on="0"/>
      </contour>
      <contour>
        <pt x="694" y="-235" on="1"/>
        <pt x="640" y="-300" on="1"/>
        <pt x="411" y="-133" on="1"/>
        <pt x="474" y="-53" on="1"/>
      </contour>
    </TTGlyph>
    <TTGlyph name="Ksmall" xMin="69" yMin="0" xMax="501" yMax="475">
      <contour>
        <pt x="69" y="0" on="1"/>
        <pt x="69" y="475" on="1"/>
        <pt x="182" y="475" on="1"/>
        <pt x="182" y="282" on="1"/>
        <pt x="345" y="475" on="1"/>
        <pt x="484" y="475" on="1"/>
        <pt x="296" y="268" on="1"/>
        <pt x="501" y="0" on="1"/>
        <pt x="360" y="0" on="1"/>
        <pt x="220" y="199" on="1"/>
        <pt x="182" y="156" on="1"/>
        <pt x="182" y="0" on="1"/>
      </contour>
    </TTGlyph>
    <TTGlyph name="L" xMin="73" yMin="0" xMax="454" yMax="630">
      <contour>
        <pt x="73" y="630" on="1"/>
        <pt x="195" y="630" on="1"/>
        <pt x="195" y="98" on="1"/>
        <pt x="454" y="98" on="1"/>
        <pt x="454" y="0" on="1"/>
        <pt x="73" y="0" on="1"/>
      </contour>
    </TTGlyph>
    <TTGlyph name="La.gm" xMin="-20" yMin="-11" xMax="705" yMax="588">
      <contour>
        <pt x="-20" y="588" on="1"/>
        <pt x="705" y="588" on="1"/>
        <pt x="705" y="504" on="1"/>
        <pt x="544" y="504" on="1"/>
        <pt x="540" y="473" on="0"/>
        <pt x="523" y="410" on="0"/>
        <pt x="512" y="384" on="1"/>
        <pt x="571" y="355" on="0"/>
        <pt x="648" y="260" on="0"/>
        <pt x="648" y="188" on="1"/>
        <pt x="648" y="140" on="0"/>
        <pt x="613" y="69" on="0"/>
        <pt x="554" y="20" on="0"/>
        <pt x="479" y="-7" on="0"/>
        <pt x="440" y="-11" on="1"/>
        <pt x="418" y="70" on="1"/>
        <pt x="473" y="80" on="0"/>
        <pt x="543" y="141" on="0"/>
        <pt x="543" y="194" on="1"/>
        <pt x="543" y="230" on="0"/>
        <pt x="500" y="286" on="0"/>
        <pt x="468" y="303" on="1"/>
        <pt x="456" y="285" on="0"/>
        <pt x="427" y="251" on="0"/>
        <pt x="394" y="219" on="0"/>
        <pt x="358" y="193" on="0"/>
        <pt x="341" y="183" on="1"/>
        <pt x="303" y="203" on="0"/>
        <pt x="236" y="266" on="0"/>
        <pt x="212" y="301" on="1"/>
        <pt x="180" y="284" on="0"/>
        <pt x="141" y="229" on="0"/>
        <pt x="141" y="193" on="1"/>
        <pt x="141" y="141" on="0"/>
        <pt x="211" y="80" on="0"/>
        <pt x="268" y="70" on="1"/>
        <pt x="245" y="-11" on="1"/>
        <pt x="204" y="-8" on="0"/>
        <pt x="128" y="21" on="0"/>
        <pt x="71" y="70" on="0"/>
        <pt x="37" y="141" on="0"/>
        <pt x="37" y="188" on="1"/>
        <pt x="37" y="257" on="0"/>
        <pt x="109" y="352" on="0"/>
        <pt x="166" y="381" on="1"/>
        <pt x="155" y="407" on="0"/>
        <pt x="139" y="471" on="0"/>
        <pt x="134" y="504" on="1"/>
        <pt x="-20" y="504" on="1"/>
      </contour>
      <contour>
        <pt x="341" y="288" on="1"/>
        <pt x="381" y="326" on="0"/>
        <pt x="430" y="435" on="0"/>
        <pt x="437" y="504" on="1"/>
        <pt x="241" y="504" on="1"/>
        <pt x="257" y="364" on="0"/>
      </contour>
    </TTGlyph>
    <TTGlyph name="LaVirama.gm" xMin="-20" yMin="-300" xMax="709" yMax="588">
      <contour>
        <pt x="-20" y="588" on="1"/>
        <pt x="705" y="588" on="1"/>
        <pt x="705" y="504" on="1"/>
        <pt x="544" y="504" on="1"/>
        <pt x="540" y="473" on="0"/>
        <pt x="523" y="410" on="0"/>
        <pt x="512" y="384" on="1"/>
        <pt x="571" y="355" on="0"/>
        <pt x="648" y="260" on="0"/>
        <pt x="648" y="188" on="1"/>
        <pt x="648" y="140" on="0"/>
        <pt x="613" y="69" on="0"/>
        <pt x="554" y="20" on="0"/>
        <pt x="479" y="-7" on="0"/>
        <pt x="440" y="-11" on="1"/>
        <pt x="418" y="70" on="1"/>
        <pt x="473" y="80" on="0"/>
        <pt x="543" y="141" on="0"/>
        <pt x="543" y="194" on="1"/>
        <pt x="543" y="230" on="0"/>
        <pt x="500" y="286" on="0"/>
        <pt x="468" y="303" on="1"/>
        <pt x="456" y="285" on="0"/>
        <pt x="427" y="251" on="0"/>
        <pt x="394" y="219" on="0"/>
        <pt x="358" y="193" on="0"/>
        <pt x="341" y="183" on="1"/>
        <pt x="303" y="203" on="0"/>
        <pt x="236" y="266" on="0"/>
        <pt x="212" y="301" on="1"/>
        <pt x="180" y="284" on="0"/>
        <pt x="141" y="229" on="0"/>
        <pt x="141" y="193" on="1"/>
        <pt x="141" y="141" on="0"/>
        <pt x="211" y="80" on="0"/>
        <pt x="268" y="70" on="1"/>
        <pt x="245" y="-11" on="1"/>
        <pt x="204" y="-8" on="0"/>
        <pt x="128" y="21" on="0"/>
        <pt x="71" y="70" on="0"/>
        <pt x="37" y="141" on="0"/>
        <pt x="37" y="188" on="1"/>
        <pt x="37" y="257" on="0"/>
        <pt x="109" y="352" on="0"/>
        <pt x="166" y="381" on="1"/>
        <pt x="155" y="407" on="0"/>
        <pt x="139" y="471" on="0"/>
        <pt x="134" y="504" on="1"/>
        <pt x="-20" y="504" on="1"/>
      </contour>
      <contour>
        <pt x="341" y="288" on="1"/>
        <pt x="381" y="326" on="0"/>
        <pt x="430" y="435" on="0"/>
        <pt x="437" y="504" on="1"/>
        <pt x="241" y="504" on="1"/>
        <pt x="257" y="364" on="0"/>
      </contour>
      <contour>
        <pt x="709" y="-235" on="1"/>
        <pt x="655" y="-300" on="1"/>
        <pt x="426" y="-133" on="1"/>
        <pt x="489" y="-53" on="1"/>
      </contour>
    </TTGlyph>
    <TTGlyph name="Lacute" xMin="73" yMin="0" xMax="454" yMax="824">
      <contour>
        <pt x="73" y="630" on="1"/>
        <pt x="195" y="630" on="1"/>
        <pt x="195" y="98" on="1"/>
        <pt x="454" y="98" on="1"/>
        <pt x="454" y="0" on="1"/>
        <pt x="73" y="0" on="1"/>
      </contour>
      <contour>
        <pt x="180" y="700" on="1"/>
        <pt x="83" y="700" on="1"/>
        <pt x="163" y="824" on="1"/>
        <pt x="293" y="824" on="1"/>
      </contour>
    </TTGlyph>
    <TTGlyph name="Lcaron" xMin="73" yMin="0" xMax="454" yMax="741">
      <contour>
        <pt x="73" y="630" on="1"/>
        <pt x="195" y="630" on="1"/>
        <pt x="195" y="98" on="1"/>
        <pt x="454" y="98" on="1"/>
        <pt x="454" y="0" on="1"/>
        <pt x="73" y="0" on="1"/>
      </contour>
      <contour>
        <pt x="320" y="613" on="1"/>
        <pt x="299" y="618" on="0"/>
        <pt x="264" y="650" on="0"/>
        <pt x="264" y="677" on="1"/>
        <pt x="264" y="703" on="0"/>
        <pt x="298" y="741" on="0"/>
        <pt x="329" y="741" on="1"/>
        <pt x="341" y="741" on="0"/>
        <pt x="368" y="731" on="0"/>
        <pt x="391" y="708" on="0"/>
        <pt x="405" y="672" on="0"/>
        <pt x="405" y="646" on="1"/>
        <pt x="405" y="620" on="0"/>
        <pt x="387" y="570" on="0"/>
        <pt x="357" y="525" on="0"/>
        <pt x="316" y="489" on="0"/>
        <pt x="294" y="477" on="1"/>
        <pt x="265" y="517" on="1"/>
        <pt x="291" y="532" on="0"/>
        <pt x="334" y="583" on="0"/>
        <pt x="338" y="610" on="1"/>
      </contour>
    </TTGlyph>
    <TTGlyph name="Lcommaaccent" xMin="73" yMin="-329" xMax="454" yMax="630">
      <contour>
        <pt x="73" y="630" on="1"/>
        <pt x="195" y="630" on="1"/>
        <pt x="195" y="98" on="1"/>
        <pt x="454" y="98" on="1"/>
        <pt x="454" y="0" on="1"/>
        <pt x="73" y="0" on="1"/>
      </contour>
      <contour>
        <pt x="247" y="-193" on="1"/>
        <pt x="225" y="-188" on="0"/>
        <pt x="191" y="-156" on="0"/>
        <pt x="191" y="-129" on="1"/>
        <pt x="191" y="-103" on="0"/>
        <pt x="225" y="-65" on="0"/>
        <pt x="256" y="-65" on="1"/>
        <pt x="268" y="-65" on="0"/>
        <pt x="295" y="-75" on="0"/>
        <pt x="318" y="-98" on="0"/>
        <pt x="332" y="-134" on="0"/>
        <pt x="332" y="-160" on="1"/>
        <pt x="332" y="-186" on="0"/>
        <pt x="314" y="-236" on="0"/>
        <pt x="283" y="-281" on="0"/>
        <pt x="242" y="-317" on="0"/>
        <pt x="220" y="-329" on="1"/>
        <pt x="191" y="-289" on="1"/>
        <pt x="218" y="-274" on="0"/>
        <pt x="260" y="-223" on="0"/>
        <pt x="264" y="-196" on="1"/>
      </contour>
    </TTGlyph>
    <TTGlyph name="Ldot" xMin="73" yMin="0" xMax="454" yMax="630">
      <contour>
        <pt x="73" y="630" on="1"/>
        <pt x="195" y="630" on="1"/>
        <pt x="195" y="98" on="1"/>
        <pt x="454" y="98" on="1"/>
        <pt x="454" y="0" on="1"/>
        <pt x="73" y="0" on="1"/>
      </contour>
      <contour>
        <pt x="261" y="341" on="1"/>
        <pt x="261" y="368" on="0"/>
        <pt x="296" y="407" on="0"/>
        <pt x="324" y="407" on="1"/>
        <pt x="350" y="407" on="0"/>
        <pt x="385" y="369" on="0"/>
        <pt x="385" y="341" on="1"/>
        <pt x="385" y="315" on="0"/>
        <pt x="349" y="275" on="0"/>
        <pt x="324" y="275" on="1"/>
        <pt x="296" y="275" on="0"/>
        <pt x="261" y="315" on="0"/>
      </contour>
    </TTGlyph>
    <TTGlyph name="Lla.gm" xMin="-35" yMin="-78" xMax="707" yMax="588">
      <contour>
        <pt x="-35" y="588" on="1"/>
        <pt x="707" y="588" on="1"/>
        <pt x="707" y="504" on="1"/>
        <pt x="546" y="504" on="1"/>
        <pt x="542" y="473" on="0"/>
        <pt x="525" y="410" on="0"/>
        <pt x="514" y="384" on="1"/>
        <pt x="573" y="355" on="0"/>
        <pt x="650" y="260" on="0"/>
        <pt x="650" y="188" on="1"/>
        <pt x="650" y="140" on="0"/>
        <pt x="615" y="69" on="0"/>
        <pt x="556" y="20" on="0"/>
        <pt x="481" y="-7" on="0"/>
        <pt x="442" y="-11" on="1"/>
        <pt x="420" y="70" on="1"/>
        <pt x="475" y="80" on="0"/>
        <pt x="545" y="141" on="0"/>
        <pt x="545" y="194" on="1"/>
        <pt x="545" y="230" on="0"/>
        <pt x="502" y="286" on="0"/>
        <pt x="470" y="303" on="1"/>
        <pt x="458" y="285" on="0"/>
        <pt x="429" y="251" on="0"/>
        <pt x="396" y="219" on="0"/>
        <pt x="360" y="193" on="0"/>
        <pt x="343" y="183" on="1"/>
        <pt x="305" y="203" on="0"/>
        <pt x="238" y="266" on="0"/>
        <pt x="214" y="301" on="1"/>
        <pt x="182" y="284" on="0"/>
        <pt x="143" y="229" on="0"/>
        <pt x="143" y="193" on="1"/>
        <pt x="143" y="141" on="0"/>
        <pt x="213" y="80" on="0"/>
        <pt x="270" y="70" on="1"/>
        <pt x="247" y="-11" on="1"/>
        <pt x="206" y="-8" on="0"/>
        <pt x="130" y="21" on="0"/>
        <pt x="73" y="70" on="0"/>
        <pt x="39" y="141" on="0"/>
        <pt x="39" y="188" on="1"/>
        <pt x="39" y="257" on="0"/>
        <pt x="111" y="352" on="0"/>
        <pt x="168" y="381" on="1"/>
        <pt x="157" y="407" on="0"/>
        <pt x="141" y="471" on="0"/>
        <pt x="136" y="504" on="1"/>
        <pt x="-35" y="504" on="1"/>
      </contour>
      <contour>
        <pt x="343" y="288" on="1"/>
        <pt x="383" y="326" on="0"/>
        <pt x="432" y="435" on="0"/>
        <pt x="439" y="504" on="1"/>
        <pt x="243" y="504" on="1"/>
        <pt x="259" y="364" on="0"/>
      </contour>
      <contour>
        <pt x="-33" y="-23" on="1"/>
        <pt x="-33" y="1" on="0"/>
        <pt x="-1" y="35" on="0"/>
        <pt x="24" y="35" on="1"/>
        <pt x="49" y="35" on="0"/>
        <pt x="80" y="0" on="0"/>
        <pt x="80" y="-23" on="1"/>
        <pt x="80" y="-46" on="0"/>
        <pt x="49" y="-78" on="0"/>
        <pt x="24" y="-78" on="1"/>
        <pt x="-1" y="-78" on="0"/>
        <pt x="-33" y="-47" on="0"/>
      </contour>
    </TTGlyph>
    <TTGlyph name="LlaVirama.gm" xMin="-35" yMin="-300" xMax="709" yMax="588">
      <contour>
        <pt x="-35" y="588" on="1"/>
        <pt x="705" y="588" on="1"/>
        <pt x="705" y="504" on="1"/>
        <pt x="544" y="504" on="1"/>
        <pt x="540" y="473" on="0"/>
        <pt x="523" y="410" on="0"/>
        <pt x="512" y="384" on="1"/>
        <pt x="571" y="355" on="0"/>
        <pt x="648" y="260" on="0"/>
        <pt x="648" y="188" on="1"/>
        <pt x="648" y="140" on="0"/>
        <pt x="613" y="69" on="0"/>
        <pt x="554" y="20" on="0"/>
        <pt x="479" y="-7" on="0"/>
        <pt x="440" y="-11" on="1"/>
        <pt x="418" y="70" on="1"/>
        <pt x="473" y="80" on="0"/>
        <pt x="543" y="141" on="0"/>
        <pt x="543" y="194" on="1"/>
        <pt x="543" y="230" on="0"/>
        <pt x="500" y="286" on="0"/>
        <pt x="468" y="303" on="1"/>
        <pt x="456" y="285" on="0"/>
        <pt x="427" y="251" on="0"/>
        <pt x="394" y="219" on="0"/>
        <pt x="358" y="193" on="0"/>
        <pt x="341" y="183" on="1"/>
        <pt x="303" y="203" on="0"/>
        <pt x="236" y="266" on="0"/>
        <pt x="212" y="301" on="1"/>
        <pt x="180" y="284" on="0"/>
        <pt x="141" y="229" on="0"/>
        <pt x="141" y="193" on="1"/>
        <pt x="141" y="141" on="0"/>
        <pt x="211" y="80" on="0"/>
        <pt x="268" y="70" on="1"/>
        <pt x="245" y="-11" on="1"/>
        <pt x="204" y="-8" on="0"/>
        <pt x="128" y="21" on="0"/>
        <pt x="71" y="70" on="0"/>
        <pt x="37" y="141" on="0"/>
        <pt x="37" y="188" on="1"/>
        <pt x="37" y="257" on="0"/>
        <pt x="109" y="352" on="0"/>
        <pt x="166" y="381" on="1"/>
        <pt x="155" y="407" on="0"/>
        <pt x="139" y="471" on="0"/>
        <pt x="134" y="504" on="1"/>
        <pt x="-35" y="504" on="1"/>
      </contour>
      <contour>
        <pt x="341" y="288" on="1"/>
        <pt x="381" y="326" on="0"/>
        <pt x="430" y="435" on="0"/>
        <pt x="437" y="504" on="1"/>
        <pt x="241" y="504" on="1"/>
        <pt x="257" y="364" on="0"/>
      </contour>
      <contour>
        <pt x="709" y="-235" on="1"/>
        <pt x="655" y="-300" on="1"/>
        <pt x="426" y="-133" on="1"/>
        <pt x="489" y="-53" on="1"/>
      </contour>
      <contour>
        <pt x="-33" y="-23" on="1"/>
        <pt x="-33" y="1" on="0"/>
        <pt x="-1" y="35" on="0"/>
        <pt x="24" y="35" on="1"/>
        <pt x="49" y="35" on="0"/>
        <pt x="80" y="0" on="0"/>
        <pt x="80" y="-23" on="1"/>
        <pt x="80" y="-46" on="0"/>
        <pt x="49" y="-78" on="0"/>
        <pt x="24" y="-78" on="1"/>
        <pt x="-1" y="-78" on="0"/>
        <pt x="-33" y="-47" on="0"/>
      </contour>
    </TTGlyph>
    <TTGlyph name="Lslash" xMin="-41" yMin="0" xMax="454" yMax="630">
      <contour>
        <pt x="73" y="630" on="1"/>
        <pt x="195" y="630" on="1"/>
        <pt x="195" y="397" on="1"/>
        <pt x="307" y="491" on="1"/>
        <pt x="352" y="436" on="1"/>
        <pt x="195" y="303" on="1"/>
        <pt x="195" y="98" on="1"/>
        <pt x="454" y="98" on="1"/>
        <pt x="454" y="0" on="1"/>
        <pt x="73" y="0" on="1"/>
        <pt x="73" y="215" on="1"/>
        <pt x="4" y="158" on="1"/>
        <pt x="-41" y="213" on="1"/>
        <pt x="73" y="308" on="1"/>
      </contour>
    </TTGlyph>
    <TTGlyph name="Lsmall" xMin="69" yMin="0" xMax="393" yMax="475">
      <contour>
        <pt x="69" y="475" on="1"/>
        <pt x="187" y="475" on="1"/>
        <pt x="187" y="87" on="1"/>
        <pt x="393" y="87" on="1"/>
        <pt x="393" y="0" on="1"/>
        <pt x="69" y="0" on="1"/>
      </contour>
    </TTGlyph>
</ttFont>
